<svg xmlns="http://www.w3.org/2000/svg" xmlns:xlink="http://www.w3.org/1999/xlink" version="1.1" width="1271px" height="1011px" viewBox="-0.5 -0.5 1271 1011" content="&lt;mxfile&gt;&lt;diagram id=&quot;vpc-arch&quot; name=&quot;VPC Network Architecture&quot;&gt;7Vxbb6M4FP41SN2HVNxC4BFIMrPSzGp2Uk2lfYkccIk1BCNwkra/fm3uGKfNpiTptiRthY+v+DvfOcc2VNLczeOXBMTr79iHoaTK/qOkTSVVncgT+pcJnnKBPtFzQZAgPxcptWCBnmEhlAvpFvkwbRUkGIcExW2hh6MIeqQlA0mC9+1iDzhs9xqDAHYECw+EXek98sm6kOqyXGd8hShYl13L4yJnA8rShSBdAx/vGyJtJmlugjHJrzaPLgzZ5JUTk9ebH8itRpbAiBxTYZvCJM0r7UC4LW5QmrmSqUq2yy4sW7Kt7GImWeWwyVM5GelvSDx2U7KkOXhLQhRBt5p4JnzAEXFxiJOsgka/czYYJ0iAj2CdF+EIsuIoDPniUypPSYJ/Q66wD9I19IuOdjAhiML0Daxg+AOniCAc0bwVJgRvWBMx8FAU3OGYSseNGnaIAlaSsBwHFCmPDg7Szpw12YQ0rRQ3U2ikopbpYjbYGEAa53f+gB7ZwJwYI9bKbEcbS4tGKOoxq7B5DBhBbsE+1W9zKDSnC2GBKhssfGyICki/QLyBJHmiRYpcQy9wemoTZ19ra6mR64aeljJQ8COoGq41iF4USiRWKHorIy/EW7+jVPb9ggrcOq+hRNkkZb2OHfpDx+HK0pjmuCx1q445AZ+etAVKN8XaaAv49KQtUPjmFa5/hR9gQ9BJtZqXuf7lxgDH00M0OkCXhm7u14jABdVxNqt7qlmcvuqcvh5UxSDB2zjr8k8vY1A3d0kvlxnQSxCSip4cxZtcLsb7MuVC+EBqon7LUlNNFnG3Rf0eSKO1OWN2OaNQ19VljaX3QBsU7IVW2JpKjinNppKpS1RPZk52Qf0nvbYlR5VMtyymZ8XsrDyVOJJt1lmXttqmq8/n83dptRWpT6udFYsgWQaAwD14OpMB1y5nwXex11HFXz9oNflGkW+zL21CMf4YrPi7sOKsVWqlCaB9JUUbvPrmZcIQxClaVbUS6G2TFO3gT3iqF6DKonLGv6L+OY0/Z52qPvt2Cmabh6JISlFEXmGi9hFMPY9U0A2kdgCFYIVCRNhI/2FTS/uJRxFOyBqClFS1GuQUoNG2zXQaFX0yc+zmNCoHQeNVkEOkakqkzi/E013Mant0NGpqGzVdYDxF1tMwesJsdRJmq0+NmSFfEbR4uxql9FfAtiyqojGUy4IvGltZOruwDcmeZlGYyyIyq8w13WaMxppreU1VHrzmdbymKOo7ee2TMsdJmbysCy9KDyiLSDqxbUUxumHyXJ0bM/OMjrHq+BXHeAJh9VfXS2NFwFe1V752Le2b+Lqq+KoYA2EHwn4owhrqNRmboN1LLpbS1MyYauXcrfY0KE0tyZr8F1+rqOZA3k9MXlm2dVtA3pkxN+aTM5K36vjs3lY7lrya3Ct5xf727eRtOF5dH8g7kPdDkZf3vJdl7x7SYDkQOd57mrP4ctK2w3Sqjdktn7bTUNXm9e6VnYde0OD29BS1C0ZlbltxUB9gQE8dMUCEYVB2bEMtJm8uVXZ96SOc2XSiyF2KvocjHFmgYW85wkkJiDzY21ZWtSFcapiA7rrZVbBS1gvZRyh6wGIdy88UHXagyFbH2SMeube2NKZymk0rfb27+3FjMifsFqnFja5rRXqx+Hqjql0PTWeItHHjDLMY+ASm6BnUJxNtR898HdgSqlfP1bG1SCcFdoujQP5pa5PVG+xcjKZa465hkYWG5e24R4CMBGfIf9l30nBW/E4MDcXoxWPiE3RO452ZcTlTwzbhEiJcEBzegPt5N+hXy/T0p140wCZwSXIz2o96jblDGUugXQKD1scTMaUj6644P2fUWp1zXTdsFW0ADGHrhwhbJ+Prha3+oSXq1PmEXOecun401bUeqJ74qRiIgt/F8sFl8aOtl88m6rXk0ox3LXV8eFHwgRhPkVmWrD/XWlUXufgzk/6tS9XvT4u/v91omsyeSZQfEoqkKh+IEoYFao21IbArldHve4GanSEcWC4ccX4wrBv+T+uGyoqUG94XXDj4h9YNnzKU4JcNV4glREgMscQHjCX4BcQlYwmQJKPsDbqR8FUaXo+gH8ByItkTuDjAEQhntbSJAox8m702ysrGMMolc8TGkqFAU02QOubDyD5VTvnOKDMJ1PZG/usPrKd4m3jF0BuvbBKQBLAoWd02u7UX0UpgCAjawVYPb5172j3bIBAda32gua8muTnz/JHedQEQbNB8GgBW1wQg0/6RL6JAtkChIrZEuS4anH87jIYg2hQ1EzLn5wDvd5BVbz4pmX2OxZXnUBPe5obE9aBdMWi75BqgPRra1QFor8padm56zYjBFEHJrTxLKJXb1nvPymkmtHlSfJ0Agibr/3CR5TX+T4g2+xc=&lt;/diagram&gt;&lt;/mxfile&gt;"><defs/><g><rect x="610" y="0" width="50" height="50" fill="none" stroke="none" pointer-events="all"/><path d="M 640.27 8.28 C 640.27 4.97 643.01 2.27 646.39 2.27 C 649.76 2.27 652.5 4.97 652.5 8.28 C 652.5 11.59 649.76 14.29 646.39 14.29 C 643.01 14.29 640.27 11.59 640.27 8.28 Z M 653.37 16.29 C 652.63 15.83 651.86 15.45 651.05 15.15 C 653.29 13.66 654.77 11.14 654.77 8.28 C 654.77 3.71 651.01 0 646.39 0 C 641.76 0 638 3.71 638 8.28 C 638 11.13 639.47 13.65 641.7 15.14 C 640.24 15.69 638.88 16.49 637.67 17.53 L 639.15 19.25 C 641.17 17.52 643.74 16.56 646.36 16.56 C 648.41 16.56 650.42 17.13 652.17 18.22 C 655.28 20.15 657.33 23.55 657.67 27.27 L 646.36 27.27 L 646.36 29.55 L 658.86 29.55 C 659.49 29.55 660 29.04 660 28.41 C 660 23.47 657.46 18.83 653.37 16.29 Z M 617.54 8.28 C 617.54 4.97 620.29 2.27 623.66 2.27 C 627.03 2.27 629.77 4.97 629.77 8.28 C 629.77 11.59 627.03 14.29 623.66 14.29 C 620.29 14.29 617.54 11.59 617.54 8.28 Z M 623.64 27.27 L 612.33 27.27 C 612.88 21.27 617.74 16.56 623.64 16.56 C 625.68 16.56 627.69 17.13 629.44 18.22 C 629.93 18.52 630.41 18.87 630.85 19.25 L 632.33 17.53 C 631.8 17.07 631.23 16.66 630.64 16.29 C 629.9 15.83 629.13 15.45 628.33 15.15 C 630.57 13.66 632.04 11.14 632.04 8.28 C 632.04 3.71 628.28 0 623.66 0 C 619.03 0 615.27 3.71 615.27 8.28 C 615.27 11.14 616.75 13.66 618.99 15.15 C 613.75 17.13 610 22.32 610 28.41 C 610 29.04 610.51 29.55 611.14 29.55 L 623.64 29.55 Z M 623.69 47.73 C 624.24 41.72 629.1 37.01 635 37.01 C 637.05 37.01 639.06 37.59 640.81 38.67 C 643.92 40.61 645.96 44.01 646.31 47.73 Z M 628.91 28.73 C 628.91 25.42 631.65 22.73 635.02 22.73 C 638.39 22.73 641.13 25.42 641.13 28.73 C 641.13 32.05 638.39 34.74 635.02 34.74 C 631.65 34.74 628.91 32.05 628.91 28.73 Z M 642 36.74 C 641.27 36.29 640.49 35.91 639.69 35.61 C 641.93 34.12 643.41 31.59 643.41 28.73 C 643.41 24.17 639.64 20.45 635.02 20.45 C 630.4 20.45 626.64 24.17 626.64 28.73 C 626.64 31.59 628.11 34.12 630.35 35.6 C 625.12 37.58 621.36 42.77 621.36 48.86 C 621.36 49.49 621.87 50 622.5 50 L 647.5 50 C 648.13 50 648.64 49.49 648.64 48.86 C 648.64 43.93 646.1 39.28 642 36.74 Z" fill="#232f3d" stroke="none" pointer-events="all"/><g transform="translate(-0.5 -0.5)"><switch><foreignObject pointer-events="none" width="100%" height="100%" requiredFeatures="http://www.w3.org/TR/SVG11/feature#Extensibility" style="overflow: visible; text-align: left;"><div xmlns="http://www.w3.org/1999/xhtml" style="display: flex; align-items: unsafe flex-start; justify-content: unsafe center; width: 1px; height: 1px; padding-top: 62px; margin-left: 635px;"><div data-drawio-colors="color: #232F3E; " style="box-sizing: border-box; font-size: 0px; text-align: center;"><div style="display: inline-block; font-size: 12px; font-family: Helvetica; color: rgb(35, 47, 62); line-height: 1.2; pointer-events: all; white-space: nowrap;">사용자</div></div></div></foreignObject><text x="635" y="74" fill="#232F3E" font-family="Helvetica" font-size="12px" text-anchor="middle">사용자</text></switch></g><path d="M 0 70 L 1270 70 L 1270 1010 L 0 1010 Z" fill="none" stroke="rgb(0, 0, 0)" stroke-miterlimit="10" pointer-events="all"/><path d="M 6.09 77.18 C 6.01 77.18 5.93 77.19 5.85 77.19 C 5.5 77.19 5.15 77.23 4.81 77.32 C 4.53 77.39 4.25 77.49 3.98 77.62 C 3.9 77.65 3.84 77.7 3.79 77.76 C 3.75 77.83 3.74 77.91 3.74 77.99 L 3.74 78.32 C 3.74 78.46 3.79 78.53 3.89 78.53 L 3.99 78.53 L 4.22 78.44 C 4.45 78.35 4.69 78.27 4.94 78.21 C 5.17 78.16 5.41 78.13 5.65 78.13 C 6.04 78.09 6.43 78.2 6.73 78.44 C 6.97 78.74 7.09 79.12 7.05 79.5 L 7.05 79.99 C 6.79 79.93 6.54 79.88 6.29 79.84 C 6.05 79.81 5.81 79.79 5.57 79.79 C 4.98 79.76 4.4 79.94 3.94 80.31 C 3.54 80.65 3.32 81.15 3.34 81.68 C 3.31 82.15 3.49 82.62 3.82 82.96 C 4.18 83.29 4.66 83.46 5.15 83.44 C 5.91 83.45 6.63 83.11 7.11 82.51 C 7.18 82.66 7.24 82.79 7.31 82.91 C 7.38 83.02 7.46 83.12 7.55 83.21 C 7.6 83.27 7.67 83.31 7.75 83.31 C 7.81 83.31 7.87 83.29 7.92 83.25 L 8.34 82.97 C 8.41 82.93 8.46 82.86 8.47 82.77 C 8.47 82.72 8.45 82.67 8.42 82.62 C 8.34 82.47 8.26 82.31 8.21 82.14 C 8.15 81.95 8.12 81.75 8.13 81.55 L 8.14 79.37 C 8.2 78.77 8 78.18 7.59 77.74 C 7.17 77.39 6.64 77.19 6.09 77.18 Z M 19.89 77.19 C 19.78 77.19 19.68 77.19 19.57 77.2 C 19.29 77.2 19 77.24 18.73 77.31 C 18.47 77.38 18.23 77.5 18.02 77.66 C 17.82 77.81 17.66 77.99 17.54 78.21 C 17.42 78.43 17.35 78.67 17.36 78.92 C 17.36 79.27 17.48 79.61 17.69 79.89 C 17.97 80.22 18.34 80.46 18.76 80.56 L 19.72 80.87 C 19.97 80.93 20.2 81.05 20.39 81.22 C 20.51 81.35 20.58 81.51 20.57 81.69 C 20.58 81.94 20.45 82.18 20.23 82.31 C 19.93 82.48 19.6 82.56 19.26 82.54 C 18.99 82.54 18.72 82.51 18.46 82.45 C 18.22 82.4 17.98 82.32 17.75 82.22 L 17.59 82.15 C 17.54 82.14 17.5 82.14 17.46 82.15 C 17.36 82.15 17.31 82.22 17.31 82.36 L 17.31 82.69 C 17.31 82.76 17.32 82.82 17.35 82.89 C 17.4 82.97 17.47 83.03 17.56 83.07 C 17.8 83.19 18.06 83.28 18.32 83.34 C 18.66 83.41 19 83.45 19.35 83.45 L 19.33 83.46 C 19.66 83.45 19.98 83.4 20.29 83.3 C 20.55 83.22 20.8 83.09 21.01 82.92 C 21.21 82.77 21.38 82.57 21.49 82.34 C 21.61 82.1 21.67 81.83 21.66 81.56 C 21.67 81.23 21.56 80.9 21.36 80.63 C 21.09 80.32 20.73 80.09 20.33 79.99 L 19.39 79.69 C 19.13 79.61 18.88 79.49 18.67 79.32 C 18.54 79.2 18.47 79.03 18.47 78.85 C 18.46 78.61 18.58 78.38 18.79 78.25 C 19.06 78.11 19.36 78.05 19.67 78.06 C 20.11 78.06 20.55 78.14 20.96 78.32 C 21.04 78.37 21.12 78.4 21.21 78.41 C 21.31 78.41 21.36 78.34 21.36 78.19 L 21.36 77.88 C 21.37 77.8 21.35 77.72 21.31 77.66 C 21.25 77.59 21.18 77.54 21.11 77.49 L 20.83 77.38 L 20.45 77.27 L 20.01 77.2 C 19.97 77.2 19.93 77.19 19.89 77.19 Z M 16.02 77.36 C 15.94 77.35 15.86 77.38 15.79 77.42 C 15.72 77.5 15.68 77.59 15.66 77.69 L 14.51 82.14 L 13.47 77.71 C 13.45 77.61 13.41 77.52 13.34 77.44 C 13.26 77.39 13.17 77.37 13.07 77.38 L 12.54 77.38 C 12.44 77.37 12.35 77.39 12.27 77.44 C 12.2 77.51 12.15 77.61 12.14 77.71 L 11.09 82.14 L 9.97 77.7 C 9.95 77.6 9.91 77.51 9.84 77.44 C 9.76 77.39 9.67 77.36 9.58 77.37 L 8.92 77.37 C 8.81 77.37 8.76 77.43 8.76 77.54 C 8.77 77.63 8.79 77.72 8.82 77.81 L 10.38 82.95 C 10.4 83.05 10.45 83.14 10.52 83.21 C 10.6 83.26 10.69 83.29 10.78 83.28 L 11.36 83.26 C 11.46 83.27 11.55 83.25 11.63 83.19 C 11.7 83.12 11.74 83.03 11.76 82.93 L 12.79 78.64 L 13.82 82.93 C 13.83 83.03 13.88 83.12 13.95 83.19 C 14.03 83.25 14.12 83.27 14.21 83.26 L 14.79 83.26 C 14.88 83.27 14.97 83.25 15.04 83.2 C 15.11 83.13 15.16 83.03 15.18 82.94 L 16.79 77.79 C 16.84 77.72 16.84 77.63 16.84 77.63 C 16.84 77.59 16.84 77.56 16.84 77.52 C 16.84 77.48 16.82 77.43 16.79 77.4 C 16.76 77.37 16.72 77.35 16.67 77.36 L 16.05 77.36 C 16.04 77.36 16.03 77.36 16.02 77.36 Z M 5.65 80.62 C 5.7 80.62 5.75 80.62 5.8 80.62 L 6.43 80.62 C 6.64 80.64 6.85 80.67 7.06 80.71 L 7.07 81.01 C 7.07 81.21 7.05 81.4 7 81.59 C 6.96 81.75 6.88 81.9 6.77 82.01 C 6.61 82.21 6.39 82.36 6.14 82.44 C 5.91 82.52 5.67 82.56 5.43 82.56 C 5.18 82.6 4.93 82.53 4.73 82.37 C 4.55 82.18 4.46 81.92 4.49 81.66 C 4.47 81.36 4.59 81.08 4.81 80.89 C 5.06 80.72 5.35 80.62 5.65 80.62 Z M 21.04 84.72 C 20.34 84.73 19.51 84.89 18.89 85.33 C 18.69 85.47 18.72 85.63 18.94 85.63 C 19.64 85.54 21.21 85.35 21.5 85.71 C 21.78 86.06 21.19 87.54 20.94 88.21 C 20.86 88.41 21.04 88.49 21.21 88.34 C 22.39 87.36 22.72 85.3 22.46 85 C 22.32 84.85 21.74 84.71 21.04 84.72 Z M 2.65 85.1 C 2.5 85.12 2.42 85.3 2.58 85.44 C 5.29 87.89 8.82 89.23 12.48 89.21 C 15.37 89.22 18.2 88.36 20.59 86.74 C 20.95 86.47 20.64 86.07 20.26 86.23 C 17.87 87.24 15.3 87.76 12.71 87.77 C 9.23 87.78 5.82 86.87 2.81 85.14 C 2.75 85.11 2.7 85.1 2.65 85.1 Z M 0 70 L 25 70 L 25 95 L 0 95 Z" fill="rgb(0, 0, 0)" stroke="none" pointer-events="all"/><g transform="translate(-0.5 -0.5)"><switch><foreignObject pointer-events="none" width="100%" height="100%" requiredFeatures="http://www.w3.org/TR/SVG11/feature#Extensibility" style="overflow: visible; text-align: left;"><div xmlns="http://www.w3.org/1999/xhtml" style="display: flex; align-items: unsafe flex-start; justify-content: unsafe flex-start; width: 1238px; height: 1px; padding-top: 82px; margin-left: 32px;"><div data-drawio-colors="color: rgb(0, 0, 0); " style="box-sizing: border-box; font-size: 0px; text-align: left;"><div style="display: inline-block; font-size: 14px; font-family: Helvetica; color: rgb(0, 0, 0); line-height: 1.2; pointer-events: all; font-weight: bold; white-space: normal; overflow-wrap: normal;">AWS Cloud</div></div></div></foreignObject><text x="32" y="96" fill="rgb(0, 0, 0)" font-family="Helvetica" font-size="14px" font-weight="bold">AWS Cloud</text></switch></g><rect x="610" y="120" width="50" height="50" fill="none" stroke="none" pointer-events="all"/><path d="M 645.79 157.78 L 644.09 157.78 L 644.09 137.65 C 644.09 137.21 643.82 136.8 643.41 136.62 L 643.31 136.57 C 641.02 135.53 638.66 134.47 635.25 134.47 C 631.7 134.47 629.09 135.61 626.51 136.9 C 626.12 137.09 625.87 137.48 625.87 137.92 L 625.87 157.78 L 624.21 157.78 L 624.21 136.3 C 626.98 134.04 630.98 132.76 635.26 132.76 C 639.25 132.76 643.05 133.89 645.79 135.89 Z M 635.26 130.48 C 630.23 130.48 625.51 132.1 622.32 134.92 C 622.07 135.13 621.93 135.44 621.93 135.77 L 621.93 158.92 C 621.93 159.55 622.44 160.06 623.07 160.06 L 627.01 160.06 C 627.64 160.06 628.15 159.55 628.15 158.92 L 628.15 138.63 C 630.34 137.57 632.46 136.74 635.25 136.74 C 637.91 136.74 639.85 137.51 641.81 138.39 L 641.81 158.92 C 641.81 159.55 642.32 160.06 642.95 160.06 L 646.93 160.06 C 647.56 160.06 648.07 159.55 648.07 158.92 L 648.07 135.33 C 648.07 134.98 647.91 134.65 647.64 134.43 C 644.48 131.92 639.97 130.48 635.26 130.48 Z M 635 167.72 C 622.47 167.72 612.28 157.53 612.28 145 C 612.28 132.47 622.47 122.28 635 122.28 C 647.53 122.28 657.72 132.47 657.72 145 C 657.72 157.53 647.53 167.72 635 167.72 Z M 635 120 C 621.21 120 610 131.22 610 145 C 610 158.79 621.21 170 635 170 C 648.79 170 660 158.79 660 145 C 660 131.22 648.79 120 635 120 Z" fill="#8c4fff" stroke="none" pointer-events="all"/><g transform="translate(-0.5 -0.5)"><switch><foreignObject pointer-events="none" width="100%" height="100%" requiredFeatures="http://www.w3.org/TR/SVG11/feature#Extensibility" style="overflow: visible; text-align: left;"><div xmlns="http://www.w3.org/1999/xhtml" style="display: flex; align-items: unsafe flex-start; justify-content: unsafe center; width: 1px; height: 1px; padding-top: 182px; margin-left: 635px;"><div data-drawio-colors="color: #232F3E; " style="box-sizing: border-box; font-size: 0px; text-align: center;"><div style="display: inline-block; font-size: 11px; font-family: Helvetica; color: rgb(35, 47, 62); line-height: 1.2; pointer-events: all; white-space: nowrap;">인터넷 게이트웨이</div></div></div></foreignObject><text x="635" y="193" fill="#232F3E" font-family="Helvetica" font-size="11px" text-anchor="middle">인터넷 게이트웨이</text></switch></g><rect x="50" y="200" width="1170" height="720" fill="none" stroke="rgb(0, 0, 0)" pointer-events="none"/><g transform="translate(-0.5 -0.5)"><switch><foreignObject pointer-events="none" width="100%" height="100%" requiredFeatures="http://www.w3.org/TR/SVG11/feature#Extensibility" style="overflow: visible; text-align: left;"><div xmlns="http://www.w3.org/1999/xhtml" style="display: flex; align-items: unsafe flex-start; justify-content: unsafe flex-start; width: 1138px; height: 1px; padding-top: 212px; margin-left: 82px;"><div data-drawio-colors="color: #8C4FFF; " style="box-sizing: border-box; font-size: 0px; text-align: left;"><div style="display: inline-block; font-size: 14px; font-family: Helvetica; color: rgb(140, 79, 255); line-height: 1.2; pointer-events: none; white-space: normal; overflow-wrap: normal;">VPC (10.0.0.0/16)</div></div></div></foreignObject><text x="82" y="226" fill="#8C4FFF" font-family="Helvetica" font-size="14px">VPC (10.0.0.0/16)</text></switch></g><rect x="70" y="240" width="550" height="660" fill="none" stroke="#147eba" stroke-dasharray="3 3" pointer-events="none"/><g transform="translate(-0.5 -0.5)"><switch><foreignObject pointer-events="none" width="100%" height="100%" requiredFeatures="http://www.w3.org/TR/SVG11/feature#Extensibility" style="overflow: visible; text-align: left;"><div xmlns="http://www.w3.org/1999/xhtml" style="display: flex; align-items: unsafe flex-start; justify-content: unsafe center; width: 548px; height: 1px; padding-top: 247px; margin-left: 71px;"><div data-drawio-colors="color: #147EBA; " style="box-sizing: border-box; font-size: 0px; text-align: center;"><div style="display: inline-block; font-size: 12px; font-family: Helvetica; color: rgb(20, 126, 186); line-height: 1.2; pointer-events: none; white-space: normal; overflow-wrap: normal;">Availability Zone ap-northeast-2a</div></div></div></foreignObject><text x="345" y="259" fill="#147EBA" font-family="Helvetica" font-size="12px" text-anchor="middle">Availability Zone ap-northeast-2a</text></switch></g><rect x="650" y="240" width="550" height="660" fill="none" stroke="#147eba" stroke-dasharray="3 3" pointer-events="none"/><g transform="translate(-0.5 -0.5)"><switch><foreignObject pointer-events="none" width="100%" height="100%" requiredFeatures="http://www.w3.org/TR/SVG11/feature#Extensibility" style="overflow: visible; text-align: left;"><div xmlns="http://www.w3.org/1999/xhtml" style="display: flex; align-items: unsafe flex-start; justify-content: unsafe center; width: 548px; height: 1px; padding-top: 247px; margin-left: 651px;"><div data-drawio-colors="color: #147EBA; " style="box-sizing: border-box; font-size: 0px; text-align: center;"><div style="display: inline-block; font-size: 12px; font-family: Helvetica; color: rgb(20, 126, 186); line-height: 1.2; pointer-events: none; white-space: normal; overflow-wrap: normal;">Availability Zone ap-northeast-2b</div></div></div></foreignObject><text x="925" y="259" fill="#147EBA" font-family="Helvetica" font-size="12px" text-anchor="middle">Availability Zone ap-northeast-2b</text></switch></g><path d="M 90 280 L 600 280 L 600 540 L 90 540 Z" fill="#f2f6e8" stroke="none" pointer-events="none"/><path d="M 90 280 L 115 280 L 115 305 L 90 305 Z M 102.52 283.21 C 101.4 283.21 100.31 283.63 99.48 284.39 C 98.67 285.11 98.2 286.15 98.2 287.24 L 98.2 289.78 L 95.89 289.78 C 95.8 289.78 95.7 289.82 95.64 289.89 C 95.57 289.95 95.54 290.04 95.54 290.13 L 95.54 301.43 C 95.54 301.63 95.7 301.79 95.89 301.79 L 109.11 301.79 C 109.3 301.79 109.46 301.63 109.46 301.43 L 109.46 290.15 C 109.47 290.06 109.43 289.97 109.36 289.9 C 109.3 289.83 109.21 289.79 109.11 289.79 L 106.81 289.79 L 106.81 287.29 C 106.8 286.21 106.35 285.18 105.56 284.44 C 104.74 283.65 103.65 283.22 102.52 283.21 Z M 102.51 283.93 C 103.46 283.92 104.37 284.28 105.06 284.93 C 105.72 285.54 106.1 286.4 106.1 287.29 L 106.1 289.79 L 98.88 289.79 L 98.89 287.26 C 98.9 286.36 99.28 285.51 99.95 284.91 C 100.65 284.27 101.57 283.92 102.51 283.93 Z M 96.24 290.5 L 108.76 290.5 L 108.75 301.07 L 96.24 301.07 Z M 102.51 292.74 C 101.48 292.73 100.61 293.51 100.51 294.53 C 100.42 295.56 101.13 296.48 102.14 296.66 L 102.14 299.44 L 102.86 299.44 L 102.86 296.66 C 103.79 296.49 104.47 295.67 104.48 294.72 C 104.48 293.63 103.6 292.75 102.51 292.74 Z M 102.39 293.45 C 102.43 293.45 102.47 293.45 102.51 293.46 C 102.84 293.46 103.16 293.59 103.4 293.83 C 103.64 294.07 103.77 294.39 103.76 294.72 C 103.77 295.06 103.64 295.38 103.4 295.61 C 103.16 295.85 102.84 295.98 102.51 295.98 C 102.04 296.02 101.6 295.8 101.34 295.42 C 101.08 295.03 101.06 294.53 101.28 294.12 C 101.5 293.71 101.93 293.46 102.39 293.45 Z" fill="#7aa116" stroke="none" pointer-events="all"/><g transform="translate(-0.5 -0.5)"><switch><foreignObject pointer-events="none" width="100%" height="100%" requiredFeatures="http://www.w3.org/TR/SVG11/feature#Extensibility" style="overflow: visible; text-align: left;"><div xmlns="http://www.w3.org/1999/xhtml" style="display: flex; align-items: unsafe flex-start; justify-content: unsafe flex-start; width: 478px; height: 1px; padding-top: 292px; margin-left: 122px;"><div data-drawio-colors="color: #7AA116; " style="box-sizing: border-box; font-size: 0px; text-align: left;"><div style="display: inline-block; font-size: 11px; font-family: Helvetica; color: rgb(122, 161, 22); line-height: 1.2; pointer-events: all; white-space: normal; overflow-wrap: normal;">퍼블릭 서브넷 2a (10.0.0.0/20)</div></div></div></foreignObject><text x="122" y="303" fill="#7AA116" font-family="Helvetica" font-size="11px">퍼블릭 서브넷 2a (10.0.0.0/20)</text></switch></g><path d="M 670 280 L 1180 280 L 1180 540 L 670 540 Z" fill="#f2f6e8" stroke="none" pointer-events="all"/><path d="M 670 280 L 695 280 L 695 305 L 670 305 Z M 682.52 283.21 C 681.4 283.21 680.31 283.63 679.49 284.39 C 678.67 285.11 678.2 286.15 678.2 287.24 L 678.2 289.78 L 675.89 289.78 C 675.8 289.78 675.7 289.82 675.64 289.89 C 675.57 289.95 675.54 290.04 675.54 290.13 L 675.54 301.43 C 675.54 301.63 675.7 301.79 675.89 301.79 L 689.11 301.79 C 689.3 301.79 689.46 301.63 689.46 301.43 L 689.46 290.15 C 689.47 290.06 689.43 289.97 689.36 289.9 C 689.3 289.83 689.21 289.79 689.11 289.79 L 686.81 289.79 L 686.81 287.29 C 686.8 286.21 686.35 285.18 685.56 284.44 C 684.74 283.65 683.65 283.22 682.52 283.21 Z M 682.51 283.93 C 683.46 283.92 684.37 284.28 685.06 284.93 C 685.72 285.54 686.1 286.4 686.1 287.29 L 686.1 289.79 L 678.88 289.79 L 678.89 287.26 C 678.9 286.36 679.28 285.51 679.95 284.91 C 680.65 284.27 681.57 283.92 682.51 283.93 Z M 676.24 290.5 L 688.76 290.5 L 688.75 301.07 L 676.24 301.07 Z M 682.51 292.74 C 681.48 292.73 680.61 293.51 680.51 294.53 C 680.42 295.56 681.13 296.48 682.14 296.66 L 682.14 299.44 L 682.86 299.44 L 682.86 296.66 C 683.79 296.49 684.47 295.67 684.48 294.72 C 684.48 293.63 683.6 292.75 682.51 292.74 Z M 682.39 293.45 C 682.43 293.45 682.47 293.45 682.51 293.46 C 682.84 293.46 683.16 293.59 683.4 293.83 C 683.64 294.07 683.77 294.39 683.76 294.72 C 683.77 295.06 683.64 295.38 683.4 295.61 C 683.16 295.85 682.84 295.98 682.51 295.98 C 682.04 296.02 681.6 295.8 681.34 295.42 C 681.08 295.03 681.06 294.53 681.28 294.12 C 681.5 293.71 681.93 293.46 682.39 293.45 Z" fill="#7aa116" stroke="none" pointer-events="all"/><g transform="translate(-0.5 -0.5)"><switch><foreignObject pointer-events="none" width="100%" height="100%" requiredFeatures="http://www.w3.org/TR/SVG11/feature#Extensibility" style="overflow: visible; text-align: left;"><div xmlns="http://www.w3.org/1999/xhtml" style="display: flex; align-items: unsafe flex-start; justify-content: unsafe flex-start; width: 478px; height: 1px; padding-top: 292px; margin-left: 702px;"><div data-drawio-colors="color: #7AA116; " style="box-sizing: border-box; font-size: 0px; text-align: left;"><div style="display: inline-block; font-size: 11px; font-family: Helvetica; color: rgb(122, 161, 22); line-height: 1.2; pointer-events: all; white-space: normal; overflow-wrap: normal;">퍼블릭 서브넷 2b (10.0.16.0/20)</div></div></div></foreignObject><text x="702" y="303" fill="#7AA116" font-family="Helvetica" font-size="11px">퍼블릭 서브넷 2b (10.0.16.0/20)</text></switch></g><path d="M 90 580 L 600 580 L 600 880 L 90 880 Z" fill="#e6f6f7" stroke="none" pointer-events="all"/><path d="M 90 580 L 115 580 L 115 605 L 90 605 Z M 102.52 583.21 C 101.4 583.21 100.31 583.63 99.48 584.39 C 98.67 585.11 98.2 586.15 98.2 587.24 L 98.2 589.78 L 95.89 589.78 C 95.8 589.78 95.7 589.82 95.64 589.89 C 95.57 589.95 95.54 590.04 95.54 590.13 L 95.54 601.43 C 95.54 601.63 95.7 601.79 95.89 601.79 L 109.11 601.79 C 109.3 601.79 109.46 601.63 109.46 601.43 L 109.46 590.15 C 109.47 590.06 109.43 589.97 109.36 589.9 C 109.3 589.83 109.21 589.79 109.11 589.79 L 106.81 589.79 L 106.81 587.29 C 106.8 586.21 106.35 585.18 105.56 584.44 C 104.74 583.65 103.65 583.22 102.52 583.21 Z M 102.51 583.93 C 103.46 583.92 104.37 584.28 105.06 584.93 C 105.72 585.54 106.1 586.4 106.1 587.29 L 106.1 589.79 L 98.88 589.79 L 98.89 587.26 C 98.9 586.36 99.28 585.51 99.95 584.91 C 100.65 584.27 101.57 583.92 102.51 583.93 Z M 96.24 590.5 L 108.76 590.5 L 108.75 601.07 L 96.24 601.07 Z M 102.51 592.74 C 101.48 592.73 100.61 593.51 100.51 594.53 C 100.42 595.56 101.13 596.48 102.14 596.66 L 102.14 599.44 L 102.86 599.44 L 102.86 596.66 C 103.79 596.49 104.47 595.67 104.48 594.72 C 104.48 593.63 103.6 592.75 102.51 592.74 Z M 102.39 593.45 C 102.43 593.45 102.47 593.45 102.51 593.46 C 102.84 593.46 103.16 593.59 103.4 593.83 C 103.64 594.07 103.77 594.39 103.76 594.72 C 103.77 595.06 103.64 595.38 103.4 595.61 C 103.16 595.85 102.84 595.98 102.51 595.98 C 102.04 596.02 101.6 595.8 101.34 595.42 C 101.08 595.03 101.06 594.53 101.28 594.12 C 101.5 593.71 101.93 593.46 102.39 593.45 Z" fill="#00a4a6" stroke="none" pointer-events="all"/><g transform="translate(-0.5 -0.5)"><switch><foreignObject pointer-events="none" width="100%" height="100%" requiredFeatures="http://www.w3.org/TR/SVG11/feature#Extensibility" style="overflow: visible; text-align: left;"><div xmlns="http://www.w3.org/1999/xhtml" style="display: flex; align-items: unsafe flex-start; justify-content: unsafe flex-start; width: 478px; height: 1px; padding-top: 592px; margin-left: 122px;"><div data-drawio-colors="color: #00A4A6; " style="box-sizing: border-box; font-size: 0px; text-align: left;"><div style="display: inline-block; font-size: 11px; font-family: Helvetica; color: rgb(0, 164, 166); line-height: 1.2; pointer-events: all; white-space: normal; overflow-wrap: normal;">프라이빗 서브넷 2a (10.0.128.0/20)</div></div></div></foreignObject><text x="122" y="603" fill="#00A4A6" font-family="Helvetica" font-size="11px">프라이빗 서브넷 2a (10.0.128.0/20)</text></switch></g><path d="M 670 580 L 1180 580 L 1180 880 L 670 880 Z" fill="#e6f6f7" stroke="none" pointer-events="all"/><path d="M 670 580 L 695 580 L 695 605 L 670 605 Z M 682.52 583.21 C 681.4 583.21 680.31 583.63 679.49 584.39 C 678.67 585.11 678.2 586.15 678.2 587.24 L 678.2 589.78 L 675.89 589.78 C 675.8 589.78 675.7 589.82 675.64 589.89 C 675.57 589.95 675.54 590.04 675.54 590.13 L 675.54 601.43 C 675.54 601.63 675.7 601.79 675.89 601.79 L 689.11 601.79 C 689.3 601.79 689.46 601.63 689.46 601.43 L 689.46 590.15 C 689.47 590.06 689.43 589.97 689.36 589.9 C 689.3 589.83 689.21 589.79 689.11 589.79 L 686.81 589.79 L 686.81 587.29 C 686.8 586.21 686.35 585.18 685.56 584.44 C 684.74 583.65 683.65 583.22 682.52 583.21 Z M 682.51 583.93 C 683.46 583.92 684.37 584.28 685.06 584.93 C 685.72 585.54 686.1 586.4 686.1 587.29 L 686.1 589.79 L 678.88 589.79 L 678.89 587.26 C 678.9 586.36 679.28 585.51 679.95 584.91 C 680.65 584.27 681.57 583.92 682.51 583.93 Z M 676.24 590.5 L 688.76 590.5 L 688.75 601.07 L 676.24 601.07 Z M 682.51 592.74 C 681.48 592.73 680.61 593.51 680.51 594.53 C 680.42 595.56 681.13 596.48 682.14 596.66 L 682.14 599.44 L 682.86 599.44 L 682.86 596.66 C 683.79 596.49 684.47 595.67 684.48 594.72 C 684.48 593.63 683.6 592.75 682.51 592.74 Z M 682.39 593.45 C 682.43 593.45 682.47 593.45 682.51 593.46 C 682.84 593.46 683.16 593.59 683.4 593.83 C 683.64 594.07 683.77 594.39 683.76 594.72 C 683.77 595.06 683.64 595.38 683.4 595.61 C 683.16 595.85 682.84 595.98 682.51 595.98 C 682.04 596.02 681.6 595.8 681.34 595.42 C 681.08 595.03 681.06 594.53 681.28 594.12 C 681.5 593.71 681.93 593.46 682.39 593.45 Z" fill="#00a4a6" stroke="none" pointer-events="all"/><g transform="translate(-0.5 -0.5)"><switch><foreignObject pointer-events="none" width="100%" height="100%" requiredFeatures="http://www.w3.org/TR/SVG11/feature#Extensibility" style="overflow: visible; text-align: left;"><div xmlns="http://www.w3.org/1999/xhtml" style="display: flex; align-items: unsafe flex-start; justify-content: unsafe flex-start; width: 478px; height: 1px; padding-top: 592px; margin-left: 702px;"><div data-drawio-colors="color: #00A4A6; " style="box-sizing: border-box; font-size: 0px; text-align: left;"><div style="display: inline-block; font-size: 11px; font-family: Helvetica; color: rgb(0, 164, 166); line-height: 1.2; pointer-events: all; white-space: normal; overflow-wrap: normal;">프라이빗 서브넷 2b (10.0.144.0/20)</div></div></div></foreignObject><text x="702" y="603" fill="#00A4A6" font-family="Helvetica" font-size="11px">프라이빗 서브넷 2b (10.0.144.0/20)</text></switch></g><rect x="130" y="320" width="240" height="200" fill="none" stroke="#dd3522" pointer-events="all"/><g transform="translate(-0.5 -0.5)"><switch><foreignObject pointer-events="none" width="100%" height="100%" requiredFeatures="http://www.w3.org/TR/SVG11/feature#Extensibility" style="overflow: visible; text-align: left;"><div xmlns="http://www.w3.org/1999/xhtml" style="display: flex; align-items: unsafe flex-start; justify-content: unsafe center; width: 238px; height: 1px; padding-top: 327px; margin-left: 131px;"><div data-drawio-colors="color: #DD3522; " style="box-sizing: border-box; font-size: 0px; text-align: center;"><div style="display: inline-block; font-size: 11px; font-family: Helvetica; color: rgb(221, 53, 34); line-height: 1.2; pointer-events: all; white-space: normal; overflow-wrap: normal;">Web-SG</div></div></div></foreignObject><text x="250" y="338" fill="#DD3522" font-family="Helvetica" font-size="11px" text-anchor="middle">Web-SG</text></switch></g><rect x="220" y="380" width="48" height="48" fill="none" stroke="none" pointer-events="all"/><path d="M 268 392 L 268 389.82 L 262.55 389.82 L 262.55 386.55 C 262.55 385.94 262.06 385.45 261.45 385.45 L 258.18 385.45 L 258.18 380 L 256 380 L 256 385.45 L 251.64 385.45 L 251.64 380 L 249.45 380 L 249.45 385.45 L 245.09 385.45 L 245.09 380 L 242.91 380 L 242.91 385.45 L 238.55 385.45 L 238.55 380 L 236.36 380 L 236.36 385.45 L 232 385.45 L 232 380 L 229.82 380 L 229.82 385.45 L 226.55 385.45 C 225.94 385.45 225.45 385.94 225.45 386.55 L 225.45 389.82 L 220 389.82 L 220 392 L 225.45 392 L 225.45 396.36 L 220 396.36 L 220 398.55 L 225.45 398.55 L 225.45 402.91 L 220 402.91 L 220 405.09 L 225.45 405.09 L 225.45 409.45 L 220 409.45 L 220 411.64 L 225.45 411.64 L 225.45 416 L 220 416 L 220 418.18 L 225.45 418.18 L 225.45 421.45 C 225.45 422.06 225.94 422.55 226.55 422.55 L 229.82 422.55 L 229.82 428 L 232 428 L 232 422.55 L 236.36 422.55 L 236.36 428 L 238.55 428 L 238.55 422.55 L 242.91 422.55 L 242.91 428 L 245.09 428 L 245.09 422.55 L 249.45 422.55 L 249.45 428 L 251.64 428 L 251.64 422.55 L 256 422.55 L 256 428 L 258.18 428 L 258.18 422.55 L 261.45 422.55 C 262.06 422.55 262.55 422.06 262.55 421.45 L 262.55 418.18 L 268 418.18 L 268 416 L 262.55 416 L 262.55 411.64 L 268 411.64 L 268 409.45 L 262.55 409.45 L 262.55 405.09 L 268 405.09 L 268 402.91 L 262.55 402.91 L 262.55 398.55 L 268 398.55 L 268 396.36 L 262.55 396.36 L 262.55 392 Z M 227.64 420.36 L 227.64 387.64 L 260.36 387.64 L 260.36 420.36 Z" fill="#ed7100" stroke="none" pointer-events="all"/><g transform="translate(-0.5 -0.5)"><switch><foreignObject pointer-events="none" width="100%" height="100%" requiredFeatures="http://www.w3.org/TR/SVG11/feature#Extensibility" style="overflow: visible; text-align: left;"><div xmlns="http://www.w3.org/1999/xhtml" style="display: flex; align-items: unsafe flex-start; justify-content: unsafe center; width: 1px; height: 1px; padding-top: 440px; margin-left: 244px;"><div data-drawio-colors="color: #232F3E; " style="box-sizing: border-box; font-size: 0px; text-align: center;"><div style="display: inline-block; font-size: 10px; font-family: Helvetica; color: rgb(35, 47, 62); line-height: 1.2; pointer-events: all; white-space: nowrap;">웹 서버</div></div></div></foreignObject><text x="244" y="450" fill="#232F3E" font-family="Helvetica" font-size="10px" text-anchor="middle">웹 서버</text></switch></g><rect x="190" y="495" width="200" height="20" fill="none" stroke="none" pointer-events="all"/><g transform="translate(-0.5 -0.5)"><switch><foreignObject pointer-events="none" width="100%" height="100%" requiredFeatures="http://www.w3.org/TR/SVG11/feature#Extensibility" style="overflow: visible; text-align: left;"><div xmlns="http://www.w3.org/1999/xhtml" style="display: flex; align-items: unsafe flex-start; justify-content: unsafe flex-start; width: 1px; height: 1px; padding-top: 502px; margin-left: 192px;"><div data-drawio-colors="color: #333333; " style="box-sizing: border-box; font-size: 0px; text-align: left;"><div style="display: inline-block; font-size: 9px; font-family: Helvetica; color: rgb(51, 51, 51); line-height: 1.2; pointer-events: all; white-space: nowrap;">인바운드: HTTP(80), HTTPS(443), SSH(22)</div></div></div></foreignObject><text x="192" y="511" fill="#333333" font-family="Helvetica" font-size="9px">인바운드: HTTP(80), HTTPS(443), SSH(22)</text></switch></g><rect x="430" y="360" width="48" height="48" fill="none" stroke="none" pointer-events="all"/><path d="M 442.68 397 L 442.68 393.91 L 444.62 395.45 Z M 442.27 390.78 C 441.94 390.52 441.49 390.47 441.12 390.65 C 440.74 390.84 440.5 391.22 440.5 391.64 L 440.5 399.27 C 440.5 399.69 440.74 400.07 441.12 400.26 C 441.27 400.33 441.43 400.36 441.59 400.36 C 441.83 400.36 442.08 400.28 442.27 400.12 L 447.05 396.31 C 447.3 396.1 447.45 395.79 447.45 395.45 C 447.45 395.12 447.3 394.81 447.05 394.6 Z M 468.45 387.09 L 468.45 382.81 L 470.59 384.95 Z M 472.91 384.18 L 468.13 379.41 C 467.82 379.1 467.36 379 466.95 379.17 C 466.54 379.34 466.27 379.74 466.27 380.18 L 466.27 383.86 L 457.95 383.86 L 457.95 373.5 C 457.95 372.9 457.47 372.41 456.86 372.41 L 448.47 372.41 L 448.47 374.59 L 455.77 374.59 L 455.77 383.86 L 448.27 383.86 L 448.27 386.04 L 455.77 386.04 L 455.77 395.32 L 448.47 395.32 L 448.47 397.5 L 456.86 397.5 C 457.47 397.5 457.95 397.01 457.95 396.41 L 457.95 386.04 L 466.27 386.04 L 466.27 389.73 C 466.27 390.17 466.54 390.57 466.95 390.74 C 467.08 390.79 467.22 390.82 467.36 390.82 C 467.65 390.82 467.93 390.71 468.13 390.5 L 472.91 385.73 C 473.33 385.3 473.33 384.61 472.91 384.18 Z M 442.68 386.5 L 442.68 383.41 L 444.62 384.95 Z M 442.27 380.28 C 441.94 380.02 441.49 379.97 441.12 380.15 C 440.74 380.34 440.5 380.72 440.5 381.14 L 440.5 388.77 C 440.5 389.19 440.74 389.57 441.12 389.76 C 441.27 389.83 441.43 389.86 441.59 389.86 C 441.83 389.86 442.08 389.78 442.27 389.62 L 447.05 385.81 C 447.3 385.6 447.45 385.29 447.45 384.95 C 447.45 384.62 447.3 384.31 447.05 384.1 Z M 442.68 375.05 L 442.68 371.95 L 444.62 373.5 Z M 442.27 368.83 C 441.94 368.57 441.49 368.52 441.12 368.7 C 440.74 368.88 440.5 369.26 440.5 369.68 L 440.5 377.32 C 440.5 377.74 440.74 378.12 441.12 378.3 C 441.27 378.37 441.43 378.41 441.59 378.41 C 441.83 378.41 442.08 378.33 442.27 378.17 L 447.05 374.35 C 447.3 374.14 447.45 373.83 447.45 373.5 C 447.45 373.17 447.3 372.86 447.05 372.65 Z M 454 405.82 C 441.97 405.82 432.18 396.03 432.18 384 C 432.18 371.97 441.97 362.18 454 362.18 C 466.03 362.18 475.82 371.97 475.82 384 C 475.82 396.03 466.03 405.82 454 405.82 Z M 454 360 C 440.77 360 430 370.77 430 384 C 430 397.23 440.77 408 454 408 C 467.23 408 478 397.23 478 384 C 478 370.77 467.23 360 454 360 Z" fill="#8c4fff" stroke="none" pointer-events="all"/><g transform="translate(-0.5 -0.5)"><switch><foreignObject pointer-events="none" width="100%" height="100%" requiredFeatures="http://www.w3.org/TR/SVG11/feature#Extensibility" style="overflow: visible; text-align: left;"><div xmlns="http://www.w3.org/1999/xhtml" style="display: flex; align-items: unsafe flex-start; justify-content: unsafe center; width: 1px; height: 1px; padding-top: 420px; margin-left: 454px;"><div data-drawio-colors="color: #232F3E; " style="box-sizing: border-box; font-size: 0px; text-align: center;"><div style="display: inline-block; font-size: 10px; font-family: Helvetica; color: rgb(35, 47, 62); line-height: 1.2; pointer-events: all; white-space: nowrap;">NAT 게이트웨이</div></div></div></foreignObject><text x="454" y="430" fill="#232F3E" font-family="Helvetica" font-size="10px" text-anchor="middle">NAT 게이트웨이</text></switch></g><rect x="550" y="290" width="40" height="40" fill="none" stroke="none" pointer-events="all"/><path d="M 551.82 327.78 L 588.18 327.78 L 588.18 319.26 L 551.82 319.26 Z M 590 318.35 L 590 328.69 C 590 329.2 589.59 329.6 589.09 329.6 L 550.91 329.6 C 550.41 329.6 550 329.2 550 328.69 L 550 318.35 C 550 317.85 550.41 317.44 550.91 317.44 L 589.09 317.44 C 589.59 317.44 590 317.85 590 318.35 Z M 551.82 314.26 L 588.18 314.26 L 588.18 305.74 L 551.82 305.74 Z M 590 304.83 L 590 315.17 C 590 315.67 589.59 316.08 589.09 316.08 L 550.91 316.08 C 550.41 316.08 550 315.67 550 315.17 L 550 304.83 C 550 304.33 550.41 303.92 550.91 303.92 L 589.09 303.92 C 589.59 303.92 590 304.33 590 304.83 Z M 551.82 300.74 L 588.18 300.74 L 588.18 292.22 L 551.82 292.22 Z M 590 291.31 L 590 301.65 C 590 302.15 589.59 302.56 589.09 302.56 L 550.91 302.56 C 550.41 302.56 550 302.15 550 301.65 L 550 291.31 C 550 290.8 550.41 290.4 550.91 290.4 L 589.09 290.4 C 589.59 290.4 590 290.8 590 291.31 Z M 584.04 323.55 C 584.04 324.33 584.12 324.89 584.26 325.24 C 584.41 325.59 584.64 325.76 584.96 325.76 C 585.28 325.76 585.52 325.59 585.66 325.24 C 585.81 324.89 585.88 324.33 585.88 323.55 C 585.88 322.77 585.81 322.21 585.66 321.86 C 585.52 321.51 585.28 321.33 584.96 321.33 C 584.64 321.33 584.41 321.51 584.26 321.86 C 584.12 322.21 584.04 322.77 584.04 323.55 Z M 583.67 325.68 C 583.37 325.19 583.22 324.48 583.22 323.55 C 583.22 322.61 583.37 321.9 583.67 321.42 C 583.96 320.93 584.39 320.69 584.96 320.69 C 585.53 320.69 585.96 320.93 586.26 321.42 C 586.56 321.9 586.7 322.61 586.7 323.55 C 586.7 324.48 586.56 325.2 586.26 325.68 C 585.96 326.17 585.53 326.41 584.96 326.41 C 584.39 326.41 583.96 326.17 583.67 325.68 Z M 581.96 326.39 C 582.11 326.39 582.23 326.34 582.32 326.25 C 582.42 326.15 582.46 326.03 582.46 325.88 C 582.46 325.72 582.42 325.6 582.32 325.51 C 582.23 325.41 582.11 325.37 581.96 325.37 C 581.8 325.37 581.68 325.41 581.59 325.51 C 581.5 325.6 581.45 325.72 581.45 325.88 C 581.45 326.03 581.5 326.15 581.59 326.25 C 581.68 326.34 581.8 326.39 581.96 326.39 Z M 580.57 325.65 L 578.27 325.65 C 578.92 324.85 579.39 324.26 579.66 323.88 C 579.93 323.49 580.11 323.17 580.21 322.91 C 580.32 322.65 580.37 322.4 580.37 322.15 C 580.37 321.69 580.25 321.33 580 321.08 C 579.76 320.82 579.42 320.69 578.99 320.69 C 578.74 320.69 578.5 320.73 578.26 320.81 C 578.03 320.9 577.78 321.03 577.53 321.21 L 577.53 321.88 C 578.06 321.54 578.51 321.37 578.85 321.37 C 579.31 321.37 579.54 321.65 579.54 322.2 C 579.54 322.45 579.47 322.71 579.35 322.99 C 579.21 323.27 579 323.61 578.7 324.03 C 578.4 324.44 577.97 325 577.4 325.71 L 577.4 326.31 L 580.57 326.31 Z M 575.94 326.39 C 576.09 326.39 576.21 326.34 576.31 326.25 C 576.4 326.15 576.45 326.03 576.45 325.88 C 576.45 325.72 576.4 325.6 576.31 325.51 C 576.21 325.41 576.09 325.37 575.94 325.37 C 575.79 325.37 575.67 325.41 575.57 325.51 C 575.48 325.6 575.43 325.72 575.43 325.88 C 575.43 326.03 575.48 326.15 575.57 326.25 C 575.67 326.34 575.79 326.39 575.94 326.39 Z M 572.08 323.88 C 572.08 324.54 572.15 325.02 572.3 325.32 C 572.45 325.63 572.69 325.78 573.01 325.78 C 573.54 325.78 573.81 325.41 573.81 324.66 C 573.81 324.31 573.74 324.05 573.6 323.87 C 573.46 323.69 573.25 323.59 572.97 323.59 C 572.68 323.59 572.38 323.67 572.08 323.82 Z M 571.7 325.75 C 571.42 325.32 571.28 324.64 571.28 323.73 C 571.28 322.75 571.45 322 571.79 321.47 C 572.12 320.95 572.6 320.69 573.22 320.69 C 573.41 320.69 573.6 320.71 573.8 320.76 C 573.99 320.81 574.16 320.87 574.31 320.95 L 574.31 321.53 C 574.17 321.47 574.01 321.42 573.83 321.38 C 573.65 321.34 573.48 321.32 573.32 321.32 C 572.92 321.32 572.62 321.48 572.42 321.79 C 572.23 322.11 572.11 322.61 572.09 323.3 C 572.45 323.09 572.82 322.98 573.2 322.98 C 573.63 322.98 573.97 323.13 574.23 323.43 C 574.49 323.72 574.61 324.12 574.61 324.61 C 574.61 325.16 574.47 325.6 574.17 325.92 C 573.88 326.25 573.48 326.41 572.98 326.41 C 572.41 326.41 571.98 326.19 571.7 325.75 Z M 568.78 326.31 L 569.59 326.31 L 569.59 320.79 L 568.85 320.79 L 567.52 321.55 L 567.52 322.2 L 568.78 321.6 Z M 565.82 326.39 C 565.97 326.39 566.09 326.34 566.19 326.25 C 566.28 326.15 566.33 326.03 566.33 325.88 C 566.33 325.72 566.28 325.6 566.19 325.51 C 566.09 325.41 565.97 325.37 565.82 325.37 C 565.67 325.37 565.54 325.41 565.45 325.51 C 565.36 325.6 565.31 325.72 565.31 325.88 C 565.31 326.03 565.36 326.15 565.45 326.25 C 565.54 326.34 565.67 326.39 565.82 326.39 Z M 564.43 325.65 L 562.13 325.65 C 562.79 324.85 563.25 324.26 563.52 323.88 C 563.79 323.49 563.98 323.17 564.08 322.91 C 564.18 322.65 564.23 322.4 564.23 322.15 C 564.23 321.69 564.11 321.33 563.87 321.08 C 563.62 320.82 563.29 320.69 562.85 320.69 C 562.6 320.69 562.36 320.73 562.13 320.81 C 561.89 320.9 561.64 321.03 561.39 321.21 L 561.39 321.88 C 561.93 321.54 562.37 321.37 562.72 321.37 C 563.17 321.37 563.4 321.65 563.4 322.2 C 563.4 322.45 563.34 322.71 563.21 322.99 C 563.08 323.27 562.86 323.61 562.57 324.03 C 562.27 324.44 561.83 325 561.26 325.71 L 561.26 326.31 L 564.43 326.31 Z M 557.67 326.31 L 558.5 326.31 L 560.27 321.38 L 560.27 320.79 L 557.04 320.79 L 557.04 321.45 L 559.46 321.45 Z M 554.55 326.31 L 555.36 326.31 L 555.36 320.79 L 554.62 320.79 L 553.3 321.55 L 553.3 322.2 L 554.55 321.6 Z M 584.04 309.73 C 584.04 310.51 584.12 311.07 584.26 311.42 C 584.41 311.77 584.64 311.95 584.96 311.95 C 585.28 311.95 585.52 311.77 585.66 311.42 C 585.81 311.07 585.88 310.51 585.88 309.73 C 585.88 308.96 585.81 308.39 585.66 308.04 C 585.52 307.69 585.28 307.52 584.96 307.52 C 584.64 307.52 584.41 307.69 584.26 308.04 C 584.12 308.39 584.04 308.96 584.04 309.73 Z M 583.67 311.86 C 583.37 311.37 583.22 310.66 583.22 309.73 C 583.22 308.8 583.37 308.09 583.67 307.6 C 583.96 307.12 584.39 306.87 584.96 306.87 C 585.53 306.87 585.96 307.12 586.26 307.6 C 586.56 308.09 586.7 308.8 586.7 309.73 C 586.7 310.67 586.56 311.38 586.26 311.87 C 585.96 312.35 585.53 312.59 584.96 312.59 C 584.39 312.59 583.96 312.35 583.67 311.86 Z M 581.96 312.57 C 582.11 312.57 582.23 312.52 582.32 312.43 C 582.42 312.34 582.46 312.21 582.46 312.06 C 582.46 311.91 582.42 311.78 582.32 311.69 C 582.23 311.6 582.11 311.55 581.96 311.55 C 581.8 311.55 581.68 311.6 581.59 311.69 C 581.5 311.78 581.45 311.91 581.45 312.06 C 581.45 312.21 581.5 312.34 581.59 312.43 C 581.68 312.52 581.8 312.57 581.96 312.57 Z M 578.9 312.49 L 579.71 312.49 L 579.71 306.98 L 578.97 306.98 L 577.65 307.73 L 577.65 308.38 L 578.9 307.79 Z M 575.94 312.57 C 576.09 312.57 576.21 312.52 576.31 312.43 C 576.4 312.34 576.45 312.21 576.45 312.06 C 576.45 311.91 576.4 311.78 576.31 311.69 C 576.21 311.6 576.09 311.55 575.94 311.55 C 575.79 311.55 575.67 311.6 575.57 311.69 C 575.48 311.78 575.43 311.91 575.43 312.06 C 575.43 312.21 575.48 312.34 575.57 312.43 C 575.67 312.52 575.79 312.57 575.94 312.57 Z M 572.08 310.06 C 572.08 310.72 572.15 311.2 572.3 311.51 C 572.45 311.81 572.69 311.96 573.01 311.96 C 573.54 311.96 573.81 311.59 573.81 310.84 C 573.81 310.5 573.74 310.23 573.6 310.05 C 573.46 309.87 573.25 309.78 572.97 309.78 C 572.68 309.78 572.38 309.85 572.08 310 Z M 571.7 311.94 C 571.42 311.5 571.28 310.82 571.28 309.91 C 571.28 308.93 571.45 308.18 571.79 307.66 C 572.12 307.13 572.6 306.87 573.22 306.87 C 573.41 306.87 573.6 306.9 573.8 306.95 C 573.99 306.99 574.16 307.06 574.31 307.14 L 574.31 307.72 C 574.17 307.65 574.01 307.6 573.83 307.56 C 573.65 307.52 573.48 307.5 573.32 307.5 C 572.92 307.5 572.62 307.66 572.42 307.98 C 572.23 308.29 572.11 308.79 572.09 309.48 C 572.45 309.27 572.82 309.16 573.2 309.16 C 573.63 309.16 573.97 309.31 574.23 309.61 C 574.49 309.91 574.61 310.3 574.61 310.8 C 574.61 311.35 574.47 311.78 574.17 312.11 C 573.88 312.43 573.48 312.59 572.98 312.59 C 572.41 312.59 571.98 312.37 571.7 311.94 Z M 568.78 312.49 L 569.59 312.49 L 569.59 306.98 L 568.85 306.98 L 567.52 307.73 L 567.52 308.38 L 568.78 307.79 Z M 565.82 312.57 C 565.97 312.57 566.09 312.52 566.19 312.43 C 566.28 312.34 566.33 312.21 566.33 312.06 C 566.33 311.91 566.28 311.78 566.19 311.69 C 566.09 311.6 565.97 311.55 565.82 311.55 C 565.67 311.55 565.54 311.6 565.45 311.69 C 565.36 311.78 565.31 311.91 565.31 312.06 C 565.31 312.21 565.36 312.34 565.45 312.43 C 565.54 312.52 565.67 312.57 565.82 312.57 Z M 564.43 311.83 L 562.13 311.83 C 562.79 311.03 563.25 310.44 563.52 310.06 C 563.79 309.68 563.98 309.35 564.08 309.09 C 564.18 308.83 564.23 308.58 564.23 308.34 C 564.23 307.88 564.11 307.52 563.87 307.26 C 563.62 307 563.29 306.87 562.85 306.87 C 562.6 306.87 562.36 306.91 562.13 307 C 561.89 307.08 561.64 307.21 561.39 307.39 L 561.39 308.07 C 561.93 307.73 562.37 307.56 562.72 307.56 C 563.17 307.56 563.4 307.83 563.4 308.38 C 563.4 308.63 563.34 308.9 563.21 309.17 C 563.08 309.45 562.86 309.79 562.57 310.21 C 562.27 310.63 561.83 311.19 561.26 311.89 L 561.26 312.49 L 564.43 312.49 Z M 557.67 312.49 L 558.5 312.49 L 560.27 307.57 L 560.27 306.98 L 557.04 306.98 L 557.04 307.64 L 559.46 307.64 Z M 554.55 312.49 L 555.36 312.49 L 555.36 306.98 L 554.62 306.98 L 553.3 307.73 L 553.3 308.38 L 554.55 307.79 Z M 584.04 296.69 C 584.04 297.47 584.12 298.04 584.26 298.39 C 584.41 298.74 584.64 298.91 584.96 298.91 C 585.28 298.91 585.52 298.74 585.66 298.39 C 585.81 298.04 585.88 297.47 585.88 296.69 C 585.88 295.92 585.81 295.36 585.66 295.01 C 585.52 294.66 585.28 294.48 584.96 294.48 C 584.64 294.48 584.41 294.66 584.26 295.01 C 584.12 295.36 584.04 295.92 584.04 296.69 Z M 583.67 298.83 C 583.37 298.34 583.22 297.63 583.22 296.69 C 583.22 295.76 583.37 295.05 583.67 294.57 C 583.96 294.08 584.39 293.84 584.96 293.84 C 585.53 293.84 585.96 294.08 586.26 294.57 C 586.56 295.05 586.7 295.76 586.7 296.69 C 586.7 297.63 586.56 298.34 586.26 298.83 C 585.96 299.32 585.53 299.56 584.96 299.56 C 584.39 299.56 583.96 299.31 583.67 298.83 Z M 581.96 299.53 C 582.11 299.53 582.23 299.49 582.32 299.39 C 582.42 299.3 582.46 299.18 582.46 299.02 C 582.46 298.87 582.42 298.75 582.32 298.65 C 582.23 298.56 582.11 298.52 581.96 298.52 C 581.8 298.52 581.68 298.56 581.59 298.65 C 581.5 298.75 581.45 298.87 581.45 299.02 C 581.45 299.18 581.5 299.3 581.59 299.39 C 581.68 299.49 581.8 299.53 581.96 299.53 Z M 578.03 296.69 C 578.03 297.47 578.1 298.04 578.25 298.39 C 578.39 298.74 578.63 298.91 578.95 298.91 C 579.27 298.91 579.5 298.74 579.65 298.39 C 579.8 298.04 579.87 297.47 579.87 296.69 C 579.87 295.92 579.8 295.36 579.65 295.01 C 579.5 294.66 579.27 294.48 578.95 294.48 C 578.63 294.48 578.39 294.66 578.25 295.01 C 578.1 295.36 578.03 295.92 578.03 296.69 Z M 577.65 298.83 C 577.35 298.34 577.21 297.63 577.21 296.69 C 577.21 295.76 577.35 295.05 577.65 294.57 C 577.95 294.08 578.38 293.84 578.95 293.84 C 579.52 293.84 579.95 294.08 580.24 294.57 C 580.54 295.05 580.69 295.76 580.69 296.69 C 580.69 297.63 580.54 298.34 580.24 298.83 C 579.95 299.32 579.52 299.56 578.95 299.56 C 578.38 299.56 577.95 299.31 577.65 298.83 Z M 575.94 299.53 C 576.09 299.53 576.21 299.49 576.31 299.39 C 576.4 299.3 576.45 299.18 576.45 299.02 C 576.45 298.87 576.4 298.75 576.31 298.65 C 576.21 298.56 576.09 298.52 575.94 298.52 C 575.79 298.52 575.67 298.56 575.57 298.65 C 575.48 298.75 575.43 298.87 575.43 299.02 C 575.43 299.18 575.48 299.3 575.57 299.39 C 575.67 299.49 575.79 299.53 575.94 299.53 Z M 572.08 297.03 C 572.08 297.69 572.15 298.17 572.3 298.47 C 572.45 298.78 572.69 298.93 573.01 298.93 C 573.54 298.93 573.81 298.56 573.81 297.81 C 573.81 297.46 573.74 297.2 573.6 297.02 C 573.46 296.83 573.25 296.74 572.97 296.74 C 572.68 296.74 572.38 296.82 572.08 296.97 Z M 571.7 298.9 C 571.42 298.46 571.28 297.79 571.28 296.88 C 571.28 295.9 571.45 295.14 571.79 294.62 C 572.12 294.1 572.6 293.84 573.22 293.84 C 573.41 293.84 573.6 293.86 573.8 293.91 C 573.99 293.96 574.16 294.02 574.31 294.1 L 574.31 294.68 C 574.17 294.62 574.01 294.57 573.83 294.53 C 573.65 294.49 573.48 294.47 573.32 294.47 C 572.92 294.47 572.62 294.62 572.42 294.94 C 572.23 295.26 572.11 295.76 572.09 296.45 C 572.45 296.24 572.82 296.13 573.2 296.13 C 573.63 296.13 573.97 296.28 574.23 296.57 C 574.49 296.87 574.61 297.27 574.61 297.76 C 574.61 298.31 574.47 298.75 574.17 299.07 C 573.88 299.4 573.48 299.56 572.98 299.56 C 572.41 299.56 571.98 299.34 571.7 298.9 Z M 568.78 299.45 L 569.59 299.45 L 569.59 293.94 L 568.85 293.94 L 567.52 294.7 L 567.52 295.35 L 568.78 294.75 Z M 565.82 299.53 C 565.97 299.53 566.09 299.49 566.19 299.39 C 566.28 299.3 566.33 299.18 566.33 299.02 C 566.33 298.87 566.28 298.75 566.19 298.65 C 566.09 298.56 565.97 298.52 565.82 298.52 C 565.67 298.52 565.54 298.56 565.45 298.65 C 565.36 298.75 565.31 298.87 565.31 299.02 C 565.31 299.18 565.36 299.3 565.45 299.39 C 565.54 299.49 565.67 299.53 565.82 299.53 Z M 564.43 298.79 L 562.13 298.79 C 562.79 298 563.25 297.41 563.52 297.02 C 563.79 296.64 563.98 296.32 564.08 296.06 C 564.18 295.8 564.23 295.55 564.23 295.3 C 564.23 294.84 564.11 294.48 563.87 294.22 C 563.62 293.97 563.29 293.84 562.85 293.84 C 562.6 293.84 562.36 293.88 562.13 293.96 C 561.89 294.04 561.64 294.18 561.39 294.36 L 561.39 295.03 C 561.93 294.69 562.37 294.52 562.72 294.52 C 563.17 294.52 563.4 294.8 563.4 295.35 C 563.4 295.6 563.34 295.86 563.21 296.14 C 563.08 296.41 562.86 296.76 562.57 297.18 C 562.27 297.59 561.83 298.15 561.26 298.86 L 561.26 299.45 L 564.43 299.45 Z M 557.67 299.45 L 558.5 299.45 L 560.27 294.53 L 560.27 293.94 L 557.04 293.94 L 557.04 294.6 L 559.46 294.6 Z M 554.55 294.75 L 553.3 295.35 L 553.3 294.7 L 554.62 293.94 L 555.36 293.94 L 555.36 299.45 L 554.55 299.45 Z" fill="#8c4fff" stroke="none" pointer-events="all"/><g transform="translate(-0.5 -0.5)"><switch><foreignObject pointer-events="none" width="100%" height="100%" requiredFeatures="http://www.w3.org/TR/SVG11/feature#Extensibility" style="overflow: visible; text-align: left;"><div xmlns="http://www.w3.org/1999/xhtml" style="display: flex; align-items: unsafe flex-start; justify-content: unsafe center; width: 1px; height: 1px; padding-top: 342px; margin-left: 570px;"><div data-drawio-colors="color: #232F3E; " style="box-sizing: border-box; font-size: 0px; text-align: center;"><div style="display: inline-block; font-size: 9px; font-family: Helvetica; color: rgb(35, 47, 62); line-height: 1.2; pointer-events: all; white-space: nowrap;">퍼블릭 RT</div></div></div></foreignObject><text x="570" y="351" fill="#232F3E" font-family="Helvetica" font-size="9px" text-anchor="middle">퍼블릭 RT</text></switch></g><rect x="710" y="320" width="240" height="200" fill="none" stroke="#dd3522" pointer-events="all"/><g transform="translate(-0.5 -0.5)"><switch><foreignObject pointer-events="none" width="100%" height="100%" requiredFeatures="http://www.w3.org/TR/SVG11/feature#Extensibility" style="overflow: visible; text-align: left;"><div xmlns="http://www.w3.org/1999/xhtml" style="display: flex; align-items: unsafe flex-start; justify-content: unsafe center; width: 238px; height: 1px; padding-top: 327px; margin-left: 711px;"><div data-drawio-colors="color: #DD3522; " style="box-sizing: border-box; font-size: 0px; text-align: center;"><div style="display: inline-block; font-size: 11px; font-family: Helvetica; color: rgb(221, 53, 34); line-height: 1.2; pointer-events: all; white-space: normal; overflow-wrap: normal;">Web-SG</div></div></div></foreignObject><text x="830" y="338" fill="#DD3522" font-family="Helvetica" font-size="11px" text-anchor="middle">Web-SG</text></switch></g><rect x="800" y="380" width="48" height="48" fill="none" stroke="none" pointer-events="all"/><path d="M 848 392 L 848 389.82 L 842.55 389.82 L 842.55 386.55 C 842.55 385.94 842.06 385.45 841.45 385.45 L 838.18 385.45 L 838.18 380 L 836 380 L 836 385.45 L 831.64 385.45 L 831.64 380 L 829.45 380 L 829.45 385.45 L 825.09 385.45 L 825.09 380 L 822.91 380 L 822.91 385.45 L 818.55 385.45 L 818.55 380 L 816.36 380 L 816.36 385.45 L 812 385.45 L 812 380 L 809.82 380 L 809.82 385.45 L 806.55 385.45 C 805.94 385.45 805.45 385.94 805.45 386.55 L 805.45 389.82 L 800 389.82 L 800 392 L 805.45 392 L 805.45 396.36 L 800 396.36 L 800 398.55 L 805.45 398.55 L 805.45 402.91 L 800 402.91 L 800 405.09 L 805.45 405.09 L 805.45 409.45 L 800 409.45 L 800 411.64 L 805.45 411.64 L 805.45 416 L 800 416 L 800 418.18 L 805.45 418.18 L 805.45 421.45 C 805.45 422.06 805.94 422.55 806.55 422.55 L 809.82 422.55 L 809.82 428 L 812 428 L 812 422.55 L 816.36 422.55 L 816.36 428 L 818.55 428 L 818.55 422.55 L 822.91 422.55 L 822.91 428 L 825.09 428 L 825.09 422.55 L 829.45 422.55 L 829.45 428 L 831.64 428 L 831.64 422.55 L 836 422.55 L 836 428 L 838.18 428 L 838.18 422.55 L 841.45 422.55 C 842.06 422.55 842.55 422.06 842.55 421.45 L 842.55 418.18 L 848 418.18 L 848 416 L 842.55 416 L 842.55 411.64 L 848 411.64 L 848 409.45 L 842.55 409.45 L 842.55 405.09 L 848 405.09 L 848 402.91 L 842.55 402.91 L 842.55 398.55 L 848 398.55 L 848 396.36 L 842.55 396.36 L 842.55 392 Z M 807.64 420.36 L 807.64 387.64 L 840.36 387.64 L 840.36 420.36 Z" fill="#ed7100" stroke="none" pointer-events="all"/><g transform="translate(-0.5 -0.5)"><switch><foreignObject pointer-events="none" width="100%" height="100%" requiredFeatures="http://www.w3.org/TR/SVG11/feature#Extensibility" style="overflow: visible; text-align: left;"><div xmlns="http://www.w3.org/1999/xhtml" style="display: flex; align-items: unsafe flex-start; justify-content: unsafe center; width: 1px; height: 1px; padding-top: 440px; margin-left: 824px;"><div data-drawio-colors="color: #232F3E; " style="box-sizing: border-box; font-size: 0px; text-align: center;"><div style="display: inline-block; font-size: 10px; font-family: Helvetica; color: rgb(35, 47, 62); line-height: 1.2; pointer-events: all; white-space: nowrap;">웹 서버</div></div></div></foreignObject><text x="824" y="450" fill="#232F3E" font-family="Helvetica" font-size="10px" text-anchor="middle">웹 서버</text></switch></g><rect x="130" y="620" width="240" height="230" fill="none" stroke="#dd3522" pointer-events="all"/><g transform="translate(-0.5 -0.5)"><switch><foreignObject pointer-events="none" width="100%" height="100%" requiredFeatures="http://www.w3.org/TR/SVG11/feature#Extensibility" style="overflow: visible; text-align: left;"><div xmlns="http://www.w3.org/1999/xhtml" style="display: flex; align-items: unsafe flex-start; justify-content: unsafe center; width: 238px; height: 1px; padding-top: 627px; margin-left: 131px;"><div data-drawio-colors="color: #DD3522; " style="box-sizing: border-box; font-size: 0px; text-align: center;"><div style="display: inline-block; font-size: 11px; font-family: Helvetica; color: rgb(221, 53, 34); line-height: 1.2; pointer-events: all; white-space: normal; overflow-wrap: normal;">DB-SG</div></div></div></foreignObject><text x="250" y="638" fill="#DD3522" font-family="Helvetica" font-size="11px" text-anchor="middle">DB-SG</text></switch></g><rect x="220" y="690" width="48" height="48" fill="none" stroke="none" pointer-events="all"/><path d="M 240.99 715.57 C 240.72 715.57 240.39 715.53 240 715.45 C 239.62 715.37 239.28 715.27 238.97 715.16 L 238.97 716.46 C 239.23 716.61 239.56 716.73 239.95 716.82 C 240.33 716.91 240.72 716.95 241.11 716.95 C 242 716.95 242.7 716.72 243.21 716.27 C 243.72 715.81 243.97 715.19 243.97 714.4 C 243.97 714 243.91 713.66 243.79 713.37 C 243.67 713.09 243.49 712.83 243.23 712.6 C 242.98 712.37 242.64 712.14 242.21 711.9 L 241.54 711.54 C 241.18 711.35 240.94 711.17 240.81 711 C 240.68 710.84 240.62 710.62 240.62 710.37 C 240.62 710.06 240.72 709.82 240.91 709.65 C 241.11 709.48 241.38 709.39 241.73 709.39 C 242.24 709.39 242.83 709.51 243.5 709.76 L 243.5 708.45 C 242.86 708.15 242.21 708 241.56 708 C 241.04 708 240.58 708.11 240.18 708.31 C 239.78 708.51 239.46 708.8 239.23 709.18 C 239 709.55 238.88 709.99 238.88 710.49 C 238.88 711.04 239.01 711.5 239.28 711.88 C 239.54 712.26 239.98 712.61 240.59 712.94 L 241.26 713.3 C 241.6 713.48 241.84 713.66 241.98 713.84 C 242.13 714.02 242.2 714.23 242.2 714.49 C 242.2 714.84 242.1 715.1 241.89 715.29 C 241.68 715.47 241.38 715.57 240.99 715.57 Z M 236.11 712.35 C 236.11 711.38 235.98 710.66 235.72 710.2 C 235.46 709.74 235.05 709.51 234.5 709.51 L 233.78 709.51 L 233.78 715.44 L 234.51 715.44 C 235.05 715.44 235.45 715.21 235.71 714.75 C 235.98 714.28 236.11 713.56 236.11 712.6 Z M 237.06 709.28 C 237.62 710.01 237.89 711.07 237.89 712.47 C 237.89 713.88 237.62 714.95 237.08 715.68 C 236.53 716.41 235.74 716.77 234.7 716.77 L 232.05 716.77 L 232.05 708.19 L 234.64 708.19 C 235.7 708.19 236.51 708.55 237.06 709.28 Z M 228.95 710.89 C 228.95 710.43 228.86 710.08 228.69 709.84 C 228.52 709.6 228.28 709.48 227.95 709.48 L 227.15 709.48 L 227.15 712.3 L 227.95 712.3 C 228.28 712.3 228.52 712.18 228.69 711.94 C 228.86 711.7 228.95 711.35 228.95 710.89 Z M 229.37 713.33 L 231.1 716.77 L 229.32 716.77 L 227.82 713.59 L 227.15 713.59 L 227.15 716.77 L 225.46 716.77 L 225.46 708.19 L 228.17 708.19 C 228.92 708.19 229.53 708.43 229.98 708.92 C 230.43 709.4 230.65 710.06 230.65 710.89 C 230.65 711.47 230.54 711.97 230.32 712.39 C 230.1 712.81 229.78 713.12 229.37 713.33 Z M 263.19 704.39 L 263.19 699.75 C 263.19 699.15 263.06 698.69 262.81 698.38 C 262.56 698.06 262.19 697.91 261.72 697.91 C 261.11 697.91 260.48 698.15 259.82 698.64 L 259.69 698.07 L 258.3 698.07 L 258.3 704.39 L 260 704.39 L 260 699.49 C 260.3 699.29 260.58 699.19 260.84 699.19 C 261.08 699.19 261.25 699.28 261.35 699.44 C 261.45 699.61 261.49 699.87 261.49 700.23 L 261.49 704.39 Z M 255.42 701.24 C 255.42 700.53 255.35 700.02 255.21 699.69 C 255.08 699.36 254.86 699.19 254.55 699.19 C 254.25 699.19 254.02 699.36 253.89 699.69 C 253.75 700.02 253.68 700.53 253.68 701.24 C 253.68 701.94 253.75 702.45 253.89 702.78 C 254.02 703.1 254.25 703.27 254.55 703.27 C 254.86 703.27 255.08 703.1 255.21 702.78 C 255.35 702.45 255.42 701.94 255.42 701.24 Z M 256.45 698.77 C 256.89 699.35 257.11 700.17 257.11 701.24 C 257.11 702.29 256.89 703.11 256.45 703.68 C 256 704.26 255.37 704.55 254.55 704.55 C 253.74 704.55 253.1 704.26 252.66 703.68 C 252.21 703.11 251.99 702.29 251.99 701.24 C 251.99 700.17 252.21 699.35 252.66 698.77 C 253.1 698.19 253.74 697.91 254.55 697.91 C 255.37 697.91 256 698.19 256.45 698.77 Z M 246.83 704.39 L 251.22 704.39 L 251.22 703.09 L 248.61 703.09 L 251.17 699.27 L 251.17 698.07 L 246.93 698.07 L 246.93 699.37 L 249.39 699.37 L 246.83 703.19 Z M 244.25 702.97 L 244.25 701.76 C 244.07 701.7 243.86 701.67 243.61 701.67 C 243.37 701.67 243.19 701.75 243.06 701.9 C 242.93 702.05 242.87 702.27 242.87 702.56 C 242.87 702.81 242.92 703 243.02 703.15 C 243.13 703.29 243.26 703.36 243.44 703.36 C 243.71 703.36 243.98 703.23 244.25 702.97 Z M 243.75 704.35 C 243.48 704.48 243.21 704.55 242.94 704.55 C 242.43 704.55 242.03 704.39 241.73 704.05 C 241.43 703.72 241.28 703.26 241.28 702.67 C 241.28 702.05 241.46 701.56 241.83 701.2 C 242.19 700.85 242.68 700.67 243.3 700.67 C 243.56 700.67 243.87 700.72 244.25 700.81 L 244.25 700.25 C 244.25 699.82 244.2 699.53 244.09 699.37 C 243.97 699.22 243.77 699.14 243.46 699.14 C 242.97 699.14 242.36 699.28 241.64 699.54 L 241.64 698.41 C 241.88 698.26 242.19 698.13 242.58 698.04 C 242.97 697.95 243.37 697.91 243.77 697.91 C 244.49 697.91 245.01 698.07 245.33 698.4 C 245.65 698.72 245.81 699.24 245.81 699.96 L 245.81 704.39 L 244.5 704.39 L 244.35 703.82 C 244.21 704.04 244.01 704.21 243.75 704.35 Z M 240.08 704.39 L 240.08 699.75 C 240.08 699.16 239.96 698.7 239.71 698.38 C 239.46 698.06 239.11 697.91 238.65 697.91 C 238.07 697.91 237.44 698.16 236.77 698.66 C 236.53 698.16 236.11 697.91 235.53 697.91 C 234.95 697.91 234.33 698.15 233.67 698.64 L 233.54 698.07 L 232.15 698.07 L 232.15 704.39 L 233.85 704.39 L 233.85 699.49 C 234.15 699.29 234.42 699.19 234.65 699.19 C 234.87 699.19 235.03 699.28 235.13 699.44 C 235.22 699.61 235.27 699.87 235.27 700.22 L 235.27 704.39 L 236.96 704.39 L 236.96 699.77 L 236.96 699.63 C 236.96 699.58 236.96 699.53 236.95 699.49 C 237.26 699.29 237.53 699.19 237.77 699.19 C 237.99 699.19 238.15 699.28 238.25 699.44 C 238.34 699.61 238.39 699.87 238.39 700.22 L 238.39 704.39 Z M 228.74 701.11 L 227.95 697.56 L 227.2 701.11 Z M 231.35 704.39 L 229.44 704.39 L 228.99 702.35 L 226.94 702.35 L 226.51 704.39 L 224.69 704.39 L 227.06 695.82 L 228.98 695.82 Z M 265.82 720.61 L 265.82 716.75 C 263.93 717.78 261.07 718.32 258.22 718.32 C 255.37 718.32 252.51 717.78 250.62 716.75 L 250.62 720.61 C 250.62 721.3 253.21 722.91 258.22 722.91 C 263.23 722.91 265.82 721.3 265.82 720.61 Z M 265.82 727.26 L 265.82 723.53 C 263.93 724.55 261.07 725.09 258.22 725.09 C 255.37 725.09 252.51 724.55 250.62 723.53 L 250.62 727.26 C 250.62 727.95 253.21 729.56 258.22 729.56 C 263.23 729.56 265.82 727.95 265.82 727.26 Z M 265.82 733.2 L 265.82 730.18 C 263.93 731.21 261.07 731.74 258.22 731.74 C 255.37 731.74 252.51 731.21 250.62 730.18 L 250.62 733.2 C 250.62 733.89 253.21 735.5 258.22 735.5 C 263.23 735.5 265.82 733.89 265.82 733.2 Z M 250.62 713.84 C 250.62 714.53 253.21 716.13 258.22 716.13 C 263.23 716.13 265.82 714.53 265.82 713.84 C 265.82 713.15 263.23 711.54 258.22 711.54 C 253.21 711.54 250.62 713.15 250.62 713.84 Z M 268 713.84 L 268 733.2 C 268 736.14 263.08 737.68 258.22 737.68 C 253.36 737.68 248.44 736.14 248.44 733.2 L 248.44 713.84 C 248.44 710.9 253.36 709.36 258.22 709.36 C 263.08 709.36 268 710.9 268 713.84 Z M 226.28 735.76 L 247.75 735.76 L 247.75 737.94 L 226.28 737.94 C 222.82 737.94 220 735.12 220 731.66 L 220 696.34 C 220 692.88 222.82 690.06 226.28 690.06 L 261.6 690.06 C 265.06 690.06 267.88 692.88 267.88 696.34 L 267.88 710.19 L 265.7 710.19 L 265.7 696.34 C 265.7 694.08 263.86 692.24 261.6 692.24 L 226.28 692.24 C 224.02 692.24 222.18 694.08 222.18 696.34 L 222.18 731.66 C 222.18 733.92 224.02 735.76 226.28 735.76 Z" fill="#c925d1" stroke="none" pointer-events="all"/><g transform="translate(-0.5 -0.5)"><switch><foreignObject pointer-events="none" width="100%" height="100%" requiredFeatures="http://www.w3.org/TR/SVG11/feature#Extensibility" style="overflow: visible; text-align: left;"><div xmlns="http://www.w3.org/1999/xhtml" style="display: flex; align-items: unsafe flex-start; justify-content: unsafe center; width: 1px; height: 1px; padding-top: 750px; margin-left: 244px;"><div data-drawio-colors="color: #232F3E; " style="box-sizing: border-box; font-size: 0px; text-align: center;"><div style="display: inline-block; font-size: 10px; font-family: Helvetica; color: rgb(35, 47, 62); line-height: 1.2; pointer-events: all; white-space: nowrap;">DB 인스턴스</div></div></div></foreignObject><text x="244" y="760" fill="#232F3E" font-family="Helvetica" font-size="10px" text-anchor="middle">DB 인스턴스</text></switch></g><rect x="190" y="820" width="180" height="20" fill="none" stroke="none" pointer-events="all"/><g transform="translate(-0.5 -0.5)"><switch><foreignObject pointer-events="none" width="100%" height="100%" requiredFeatures="http://www.w3.org/TR/SVG11/feature#Extensibility" style="overflow: visible; text-align: left;"><div xmlns="http://www.w3.org/1999/xhtml" style="display: flex; align-items: unsafe flex-start; justify-content: unsafe flex-start; width: 1px; height: 1px; padding-top: 827px; margin-left: 192px;"><div data-drawio-colors="color: #333333; " style="box-sizing: border-box; font-size: 0px; text-align: left;"><div style="display: inline-block; font-size: 9px; font-family: Helvetica; color: rgb(51, 51, 51); line-height: 1.2; pointer-events: all; white-space: nowrap;">인바운드: MySQL(3306) from Web-SG</div></div></div></foreignObject><text x="192" y="836" fill="#333333" font-family="Helvetica" font-size="9px">인바운드: MySQL(3306) from Web-SG</text></switch></g><rect x="540" y="590" width="40" height="40" fill="none" stroke="none" pointer-events="all"/><path d="M 541.82 627.78 L 578.18 627.78 L 578.18 619.26 L 541.82 619.26 Z M 580 618.35 L 580 628.69 C 580 629.2 579.59 629.6 579.09 629.6 L 540.91 629.6 C 540.41 629.6 540 629.2 540 628.69 L 540 618.35 C 540 617.85 540.41 617.44 540.91 617.44 L 579.09 617.44 C 579.59 617.44 580 617.85 580 618.35 Z M 541.82 614.26 L 578.18 614.26 L 578.18 605.74 L 541.82 605.74 Z M 580 604.83 L 580 615.17 C 580 615.67 579.59 616.08 579.09 616.08 L 540.91 616.08 C 540.41 616.08 540 615.67 540 615.17 L 540 604.83 C 540 604.33 540.41 603.92 540.91 603.92 L 579.09 603.92 C 579.59 603.92 580 604.33 580 604.83 Z M 541.82 600.74 L 578.18 600.74 L 578.18 592.22 L 541.82 592.22 Z M 580 591.31 L 580 601.65 C 580 602.15 579.59 602.56 579.09 602.56 L 540.91 602.56 C 540.41 602.56 540 602.15 540 601.65 L 540 591.31 C 540 590.8 540.41 590.4 540.91 590.4 L 579.09 590.4 C 579.59 590.4 580 590.8 580 591.31 Z M 574.04 623.55 C 574.04 624.33 574.12 624.89 574.26 625.24 C 574.41 625.59 574.64 625.76 574.96 625.76 C 575.28 625.76 575.52 625.59 575.66 625.24 C 575.81 624.89 575.88 624.33 575.88 623.55 C 575.88 622.77 575.81 622.21 575.66 621.86 C 575.52 621.51 575.28 621.33 574.96 621.33 C 574.64 621.33 574.41 621.51 574.26 621.86 C 574.12 622.21 574.04 622.77 574.04 623.55 Z M 573.67 625.68 C 573.37 625.19 573.22 624.48 573.22 623.55 C 573.22 622.61 573.37 621.9 573.67 621.42 C 573.96 620.93 574.39 620.69 574.96 620.69 C 575.53 620.69 575.96 620.93 576.26 621.42 C 576.56 621.9 576.7 622.61 576.7 623.55 C 576.7 624.48 576.56 625.2 576.26 625.68 C 575.96 626.17 575.53 626.41 574.96 626.41 C 574.39 626.41 573.96 626.17 573.67 625.68 Z M 571.96 626.39 C 572.11 626.39 572.23 626.34 572.32 626.25 C 572.42 626.15 572.46 626.03 572.46 625.88 C 572.46 625.72 572.42 625.6 572.32 625.51 C 572.23 625.41 572.11 625.37 571.96 625.37 C 571.8 625.37 571.68 625.41 571.59 625.51 C 571.5 625.6 571.45 625.72 571.45 625.88 C 571.45 626.03 571.5 626.15 571.59 626.25 C 571.68 626.34 571.8 626.39 571.96 626.39 Z M 570.57 625.65 L 568.27 625.65 C 568.92 624.85 569.39 624.26 569.66 623.88 C 569.93 623.49 570.11 623.17 570.21 622.91 C 570.32 622.65 570.37 622.4 570.37 622.15 C 570.37 621.69 570.25 621.33 570 621.08 C 569.76 620.82 569.42 620.69 568.99 620.69 C 568.74 620.69 568.5 620.73 568.26 620.81 C 568.03 620.9 567.78 621.03 567.53 621.21 L 567.53 621.88 C 568.06 621.54 568.51 621.37 568.85 621.37 C 569.31 621.37 569.54 621.65 569.54 622.2 C 569.54 622.45 569.47 622.71 569.35 622.99 C 569.21 623.27 569 623.61 568.7 624.03 C 568.4 624.44 567.97 625 567.4 625.71 L 567.4 626.31 L 570.57 626.31 Z M 565.94 626.39 C 566.09 626.39 566.21 626.34 566.31 626.25 C 566.4 626.15 566.45 626.03 566.45 625.88 C 566.45 625.72 566.4 625.6 566.31 625.51 C 566.21 625.41 566.09 625.37 565.94 625.37 C 565.79 625.37 565.67 625.41 565.57 625.51 C 565.48 625.6 565.43 625.72 565.43 625.88 C 565.43 626.03 565.48 626.15 565.57 626.25 C 565.67 626.34 565.79 626.39 565.94 626.39 Z M 562.08 623.88 C 562.08 624.54 562.15 625.02 562.3 625.32 C 562.45 625.63 562.69 625.78 563.01 625.78 C 563.54 625.78 563.81 625.41 563.81 624.66 C 563.81 624.31 563.74 624.05 563.6 623.87 C 563.46 623.69 563.25 623.59 562.97 623.59 C 562.68 623.59 562.38 623.67 562.08 623.82 Z M 561.7 625.75 C 561.42 625.32 561.28 624.64 561.28 623.73 C 561.28 622.75 561.45 622 561.79 621.47 C 562.12 620.95 562.6 620.69 563.22 620.69 C 563.41 620.69 563.6 620.71 563.8 620.76 C 563.99 620.81 564.16 620.87 564.31 620.95 L 564.31 621.53 C 564.17 621.47 564.01 621.42 563.83 621.38 C 563.65 621.34 563.48 621.32 563.32 621.32 C 562.92 621.32 562.62 621.48 562.42 621.79 C 562.23 622.11 562.11 622.61 562.09 623.3 C 562.45 623.09 562.82 622.98 563.2 622.98 C 563.63 622.98 563.97 623.13 564.23 623.43 C 564.49 623.72 564.61 624.12 564.61 624.61 C 564.61 625.16 564.47 625.6 564.17 625.92 C 563.88 626.25 563.48 626.41 562.98 626.41 C 562.41 626.41 561.98 626.19 561.7 625.75 Z M 558.78 626.31 L 559.59 626.31 L 559.59 620.79 L 558.85 620.79 L 557.52 621.55 L 557.52 622.2 L 558.78 621.6 Z M 555.82 626.39 C 555.97 626.39 556.09 626.34 556.19 626.25 C 556.28 626.15 556.33 626.03 556.33 625.88 C 556.33 625.72 556.28 625.6 556.19 625.51 C 556.09 625.41 555.97 625.37 555.82 625.37 C 555.67 625.37 555.54 625.41 555.45 625.51 C 555.36 625.6 555.31 625.72 555.31 625.88 C 555.31 626.03 555.36 626.15 555.45 626.25 C 555.54 626.34 555.67 626.39 555.82 626.39 Z M 554.43 625.65 L 552.13 625.65 C 552.79 624.85 553.25 624.26 553.52 623.88 C 553.79 623.49 553.98 623.17 554.08 622.91 C 554.18 622.65 554.23 622.4 554.23 622.15 C 554.23 621.69 554.11 621.33 553.87 621.08 C 553.62 620.82 553.29 620.69 552.85 620.69 C 552.6 620.69 552.36 620.73 552.13 620.81 C 551.89 620.9 551.64 621.03 551.39 621.21 L 551.39 621.88 C 551.93 621.54 552.37 621.37 552.72 621.37 C 553.17 621.37 553.4 621.65 553.4 622.2 C 553.4 622.45 553.34 622.71 553.21 622.99 C 553.08 623.27 552.86 623.61 552.57 624.03 C 552.27 624.44 551.83 625 551.26 625.71 L 551.26 626.31 L 554.43 626.31 Z M 547.67 626.31 L 548.5 626.31 L 550.27 621.38 L 550.27 620.79 L 547.04 620.79 L 547.04 621.45 L 549.46 621.45 Z M 544.55 626.31 L 545.36 626.31 L 545.36 620.79 L 544.62 620.79 L 543.3 621.55 L 543.3 622.2 L 544.55 621.6 Z M 574.04 609.73 C 574.04 610.51 574.12 611.07 574.26 611.42 C 574.41 611.77 574.64 611.95 574.96 611.95 C 575.28 611.95 575.52 611.77 575.66 611.42 C 575.81 611.07 575.88 610.51 575.88 609.73 C 575.88 608.96 575.81 608.39 575.66 608.04 C 575.52 607.69 575.28 607.52 574.96 607.52 C 574.64 607.52 574.41 607.69 574.26 608.04 C 574.12 608.39 574.04 608.96 574.04 609.73 Z M 573.67 611.86 C 573.37 611.37 573.22 610.66 573.22 609.73 C 573.22 608.8 573.37 608.09 573.67 607.6 C 573.96 607.12 574.39 606.87 574.96 606.87 C 575.53 606.87 575.96 607.12 576.26 607.6 C 576.56 608.09 576.7 608.8 576.7 609.73 C 576.7 610.67 576.56 611.38 576.26 611.87 C 575.96 612.35 575.53 612.59 574.96 612.59 C 574.39 612.59 573.96 612.35 573.67 611.86 Z M 571.96 612.57 C 572.11 612.57 572.23 612.52 572.32 612.43 C 572.42 612.34 572.46 612.21 572.46 612.06 C 572.46 611.91 572.42 611.78 572.32 611.69 C 572.23 611.6 572.11 611.55 571.96 611.55 C 571.8 611.55 571.68 611.6 571.59 611.69 C 571.5 611.78 571.45 611.91 571.45 612.06 C 571.45 612.21 571.5 612.34 571.59 612.43 C 571.68 612.52 571.8 612.57 571.96 612.57 Z M 568.9 612.49 L 569.71 612.49 L 569.71 606.98 L 568.97 606.98 L 567.65 607.73 L 567.65 608.38 L 568.9 607.79 Z M 565.94 612.57 C 566.09 612.57 566.21 612.52 566.31 612.43 C 566.4 612.34 566.45 612.21 566.45 612.06 C 566.45 611.91 566.4 611.78 566.31 611.69 C 566.21 611.6 566.09 611.55 565.94 611.55 C 565.79 611.55 565.67 611.6 565.57 611.69 C 565.48 611.78 565.43 611.91 565.43 612.06 C 565.43 612.21 565.48 612.34 565.57 612.43 C 565.67 612.52 565.79 612.57 565.94 612.57 Z M 562.08 610.06 C 562.08 610.72 562.15 611.2 562.3 611.51 C 562.45 611.81 562.69 611.96 563.01 611.96 C 563.54 611.96 563.81 611.59 563.81 610.84 C 563.81 610.5 563.74 610.23 563.6 610.05 C 563.46 609.87 563.25 609.78 562.97 609.78 C 562.68 609.78 562.38 609.85 562.08 610 Z M 561.7 611.94 C 561.42 611.5 561.28 610.82 561.28 609.91 C 561.28 608.93 561.45 608.18 561.79 607.66 C 562.12 607.13 562.6 606.87 563.22 606.87 C 563.41 606.87 563.6 606.9 563.8 606.95 C 563.99 606.99 564.16 607.06 564.31 607.14 L 564.31 607.72 C 564.17 607.65 564.01 607.6 563.83 607.56 C 563.65 607.52 563.48 607.5 563.32 607.5 C 562.92 607.5 562.62 607.66 562.42 607.98 C 562.23 608.29 562.11 608.79 562.09 609.48 C 562.45 609.27 562.82 609.16 563.2 609.16 C 563.63 609.16 563.97 609.31 564.23 609.61 C 564.49 609.91 564.61 610.3 564.61 610.8 C 564.61 611.35 564.47 611.78 564.17 612.11 C 563.88 612.43 563.48 612.59 562.98 612.59 C 562.41 612.59 561.98 612.37 561.7 611.94 Z M 558.78 612.49 L 559.59 612.49 L 559.59 606.98 L 558.85 606.98 L 557.52 607.73 L 557.52 608.38 L 558.78 607.79 Z M 555.82 612.57 C 555.97 612.57 556.09 612.52 556.19 612.43 C 556.28 612.34 556.33 612.21 556.33 612.06 C 556.33 611.91 556.28 611.78 556.19 611.69 C 556.09 611.6 555.97 611.55 555.82 611.55 C 555.67 611.55 555.54 611.6 555.45 611.69 C 555.36 611.78 555.31 611.91 555.31 612.06 C 555.31 612.21 555.36 612.34 555.45 612.43 C 555.54 612.52 555.67 612.57 555.82 612.57 Z M 554.43 611.83 L 552.13 611.83 C 552.79 611.03 553.25 610.44 553.52 610.06 C 553.79 609.68 553.98 609.35 554.08 609.09 C 554.18 608.83 554.23 608.58 554.23 608.34 C 554.23 607.88 554.11 607.52 553.87 607.26 C 553.62 607 553.29 606.87 552.85 606.87 C 552.6 606.87 552.36 606.91 552.13 607 C 551.89 607.08 551.64 607.21 551.39 607.39 L 551.39 608.07 C 551.93 607.73 552.37 607.56 552.72 607.56 C 553.17 607.56 553.4 607.83 553.4 608.38 C 553.4 608.63 553.34 608.9 553.21 609.17 C 553.08 609.45 552.86 609.79 552.57 610.21 C 552.27 610.63 551.83 611.19 551.26 611.89 L 551.26 612.49 L 554.43 612.49 Z M 547.67 612.49 L 548.5 612.49 L 550.27 607.57 L 550.27 606.98 L 547.04 606.98 L 547.04 607.64 L 549.46 607.64 Z M 544.55 612.49 L 545.36 612.49 L 545.36 606.98 L 544.62 606.98 L 543.3 607.73 L 543.3 608.38 L 544.55 607.79 Z M 574.04 596.69 C 574.04 597.47 574.12 598.04 574.26 598.39 C 574.41 598.74 574.64 598.91 574.96 598.91 C 575.28 598.91 575.52 598.74 575.66 598.39 C 575.81 598.04 575.88 597.47 575.88 596.69 C 575.88 595.92 575.81 595.36 575.66 595.01 C 575.52 594.66 575.28 594.48 574.96 594.48 C 574.64 594.48 574.41 594.66 574.26 595.01 C 574.12 595.36 574.04 595.92 574.04 596.69 Z M 573.67 598.83 C 573.37 598.34 573.22 597.63 573.22 596.69 C 573.22 595.76 573.37 595.05 573.67 594.57 C 573.96 594.08 574.39 593.84 574.96 593.84 C 575.53 593.84 575.96 594.08 576.26 594.57 C 576.56 595.05 576.7 595.76 576.7 596.69 C 576.7 597.63 576.56 598.34 576.26 598.83 C 575.96 599.32 575.53 599.56 574.96 599.56 C 574.39 599.56 573.96 599.31 573.67 598.83 Z M 571.96 599.53 C 572.11 599.53 572.23 599.49 572.32 599.39 C 572.42 599.3 572.46 599.18 572.46 599.02 C 572.46 598.87 572.42 598.75 572.32 598.65 C 572.23 598.56 572.11 598.52 571.96 598.52 C 571.8 598.52 571.68 598.56 571.59 598.65 C 571.5 598.75 571.45 598.87 571.45 599.02 C 571.45 599.18 571.5 599.3 571.59 599.39 C 571.68 599.49 571.8 599.53 571.96 599.53 Z M 568.03 596.69 C 568.03 597.47 568.1 598.04 568.25 598.39 C 568.39 598.74 568.63 598.91 568.95 598.91 C 569.27 598.91 569.5 598.74 569.65 598.39 C 569.8 598.04 569.87 597.47 569.87 596.69 C 569.87 595.92 569.8 595.36 569.65 595.01 C 569.5 594.66 569.27 594.48 568.95 594.48 C 568.63 594.48 568.39 594.66 568.25 595.01 C 568.1 595.36 568.03 595.92 568.03 596.69 Z M 567.65 598.83 C 567.35 598.34 567.21 597.63 567.21 596.69 C 567.21 595.76 567.35 595.05 567.65 594.57 C 567.95 594.08 568.38 593.84 568.95 593.84 C 569.52 593.84 569.95 594.08 570.24 594.57 C 570.54 595.05 570.69 595.76 570.69 596.69 C 570.69 597.63 570.54 598.34 570.24 598.83 C 569.95 599.32 569.52 599.56 568.95 599.56 C 568.38 599.56 567.95 599.31 567.65 598.83 Z M 565.94 599.53 C 566.09 599.53 566.21 599.49 566.31 599.39 C 566.4 599.3 566.45 599.18 566.45 599.02 C 566.45 598.87 566.4 598.75 566.31 598.65 C 566.21 598.56 566.09 598.52 565.94 598.52 C 565.79 598.52 565.67 598.56 565.57 598.65 C 565.48 598.75 565.43 598.87 565.43 599.02 C 565.43 599.18 565.48 599.3 565.57 599.39 C 565.67 599.49 565.79 599.53 565.94 599.53 Z M 562.08 597.03 C 562.08 597.69 562.15 598.17 562.3 598.47 C 562.45 598.78 562.69 598.93 563.01 598.93 C 563.54 598.93 563.81 598.56 563.81 597.81 C 563.81 597.46 563.74 597.2 563.6 597.02 C 563.46 596.83 563.25 596.74 562.97 596.74 C 562.68 596.74 562.38 596.82 562.08 596.97 Z M 561.7 598.9 C 561.42 598.46 561.28 597.79 561.28 596.88 C 561.28 595.9 561.45 595.14 561.79 594.62 C 562.12 594.1 562.6 593.84 563.22 593.84 C 563.41 593.84 563.6 593.86 563.8 593.91 C 563.99 593.96 564.16 594.02 564.31 594.1 L 564.31 594.68 C 564.17 594.62 564.01 594.57 563.83 594.53 C 563.65 594.49 563.48 594.47 563.32 594.47 C 562.92 594.47 562.62 594.62 562.42 594.94 C 562.23 595.26 562.11 595.76 562.09 596.45 C 562.45 596.24 562.82 596.13 563.2 596.13 C 563.63 596.13 563.97 596.28 564.23 596.57 C 564.49 596.87 564.61 597.27 564.61 597.76 C 564.61 598.31 564.47 598.75 564.17 599.07 C 563.88 599.4 563.48 599.56 562.98 599.56 C 562.41 599.56 561.98 599.34 561.7 598.9 Z M 558.78 599.45 L 559.59 599.45 L 559.59 593.94 L 558.85 593.94 L 557.52 594.7 L 557.52 595.35 L 558.78 594.75 Z M 555.82 599.53 C 555.97 599.53 556.09 599.49 556.19 599.39 C 556.28 599.3 556.33 599.18 556.33 599.02 C 556.33 598.87 556.28 598.75 556.19 598.65 C 556.09 598.56 555.97 598.52 555.82 598.52 C 555.67 598.52 555.54 598.56 555.45 598.65 C 555.36 598.75 555.31 598.87 555.31 599.02 C 555.31 599.18 555.36 599.3 555.45 599.39 C 555.54 599.49 555.67 599.53 555.82 599.53 Z M 554.43 598.79 L 552.13 598.79 C 552.79 598 553.25 597.41 553.52 597.02 C 553.79 596.64 553.98 596.32 554.08 596.06 C 554.18 595.8 554.23 595.55 554.23 595.3 C 554.23 594.84 554.11 594.48 553.87 594.22 C 553.62 593.97 553.29 593.84 552.85 593.84 C 552.6 593.84 552.36 593.88 552.13 593.96 C 551.89 594.04 551.64 594.18 551.39 594.36 L 551.39 595.03 C 551.93 594.69 552.37 594.52 552.72 594.52 C 553.17 594.52 553.4 594.8 553.4 595.35 C 553.4 595.6 553.34 595.86 553.21 596.14 C 553.08 596.41 552.86 596.76 552.57 597.18 C 552.27 597.59 551.83 598.15 551.26 598.86 L 551.26 599.45 L 554.43 599.45 Z M 547.67 599.45 L 548.5 599.45 L 550.27 594.53 L 550.27 593.94 L 547.04 593.94 L 547.04 594.6 L 549.46 594.6 Z M 544.55 594.75 L 543.3 595.35 L 543.3 594.7 L 544.62 593.94 L 545.36 593.94 L 545.36 599.45 L 544.55 599.45 Z" fill="#8c4fff" stroke="none" pointer-events="all"/><g transform="translate(-0.5 -0.5)"><switch><foreignObject pointer-events="none" width="100%" height="100%" requiredFeatures="http://www.w3.org/TR/SVG11/feature#Extensibility" style="overflow: visible; text-align: left;"><div xmlns="http://www.w3.org/1999/xhtml" style="display: flex; align-items: unsafe flex-start; justify-content: unsafe center; width: 1px; height: 1px; padding-top: 642px; margin-left: 560px;"><div data-drawio-colors="color: #232F3E; " style="box-sizing: border-box; font-size: 0px; text-align: center;"><div style="display: inline-block; font-size: 9px; font-family: Helvetica; color: rgb(35, 47, 62); line-height: 1.2; pointer-events: all; white-space: nowrap;">프라이빗 RT</div></div></div></foreignObject><text x="560" y="651" fill="#232F3E" font-family="Helvetica" font-size="9px" text-anchor="middle">프라이빗 RT</text></switch></g><rect x="710" y="620" width="240" height="230" fill="none" stroke="#dd3522" pointer-events="all"/><g transform="translate(-0.5 -0.5)"><switch><foreignObject pointer-events="none" width="100%" height="100%" requiredFeatures="http://www.w3.org/TR/SVG11/feature#Extensibility" style="overflow: visible; text-align: left;"><div xmlns="http://www.w3.org/1999/xhtml" style="display: flex; align-items: unsafe flex-start; justify-content: unsafe center; width: 238px; height: 1px; padding-top: 627px; margin-left: 711px;"><div data-drawio-colors="color: #DD3522; " style="box-sizing: border-box; font-size: 0px; text-align: center;"><div style="display: inline-block; font-size: 11px; font-family: Helvetica; color: rgb(221, 53, 34); line-height: 1.2; pointer-events: all; white-space: normal; overflow-wrap: normal;">DB-SG</div></div></div></foreignObject><text x="830" y="638" fill="#DD3522" font-family="Helvetica" font-size="11px" text-anchor="middle">DB-SG</text></switch></g><rect x="800" y="690" width="48" height="48" fill="none" stroke="none" pointer-events="all"/><path d="M 820.99 715.57 C 820.72 715.57 820.39 715.53 820 715.45 C 819.62 715.37 819.28 715.27 818.97 715.16 L 818.97 716.46 C 819.23 716.61 819.56 716.73 819.95 716.82 C 820.33 716.91 820.72 716.95 821.11 716.95 C 822 716.95 822.7 716.72 823.21 716.27 C 823.72 715.81 823.97 715.19 823.97 714.4 C 823.97 714 823.91 713.66 823.79 713.37 C 823.67 713.09 823.49 712.83 823.23 712.6 C 822.98 712.37 822.64 712.14 822.21 711.9 L 821.54 711.54 C 821.18 711.35 820.94 711.17 820.81 711 C 820.68 710.84 820.62 710.62 820.62 710.37 C 820.62 710.06 820.72 709.82 820.91 709.65 C 821.11 709.48 821.38 709.39 821.73 709.39 C 822.24 709.39 822.83 709.51 823.5 709.76 L 823.5 708.45 C 822.86 708.15 822.21 708 821.56 708 C 821.04 708 820.58 708.11 820.18 708.31 C 819.78 708.51 819.46 708.8 819.23 709.18 C 819 709.55 818.88 709.99 818.88 710.49 C 818.88 711.04 819.01 711.5 819.28 711.88 C 819.54 712.26 819.98 712.61 820.59 712.94 L 821.26 713.3 C 821.6 713.48 821.84 713.66 821.98 713.84 C 822.13 714.02 822.2 714.23 822.2 714.49 C 822.2 714.84 822.1 715.1 821.89 715.29 C 821.68 715.47 821.38 715.57 820.99 715.57 Z M 816.11 712.35 C 816.11 711.38 815.98 710.66 815.72 710.2 C 815.46 709.74 815.05 709.51 814.5 709.51 L 813.78 709.51 L 813.78 715.44 L 814.51 715.44 C 815.05 715.44 815.45 715.21 815.71 714.75 C 815.98 714.28 816.11 713.56 816.11 712.6 Z M 817.06 709.28 C 817.62 710.01 817.89 711.07 817.89 712.47 C 817.89 713.88 817.62 714.95 817.08 715.68 C 816.53 716.41 815.74 716.77 814.7 716.77 L 812.05 716.77 L 812.05 708.19 L 814.64 708.19 C 815.7 708.19 816.51 708.55 817.06 709.28 Z M 808.95 710.89 C 808.95 710.43 808.86 710.08 808.69 709.84 C 808.52 709.6 808.28 709.48 807.95 709.48 L 807.15 709.48 L 807.15 712.3 L 807.95 712.3 C 808.28 712.3 808.52 712.18 808.69 711.94 C 808.86 711.7 808.95 711.35 808.95 710.89 Z M 809.37 713.33 L 811.1 716.77 L 809.32 716.77 L 807.82 713.59 L 807.15 713.59 L 807.15 716.77 L 805.46 716.77 L 805.46 708.19 L 808.17 708.19 C 808.92 708.19 809.53 708.43 809.98 708.92 C 810.43 709.4 810.65 710.06 810.65 710.89 C 810.65 711.47 810.54 711.97 810.32 712.39 C 810.1 712.81 809.78 713.12 809.37 713.33 Z M 843.19 704.39 L 843.19 699.75 C 843.19 699.15 843.06 698.69 842.81 698.38 C 842.56 698.06 842.19 697.91 841.72 697.91 C 841.11 697.91 840.48 698.15 839.82 698.64 L 839.69 698.07 L 838.3 698.07 L 838.3 704.39 L 840 704.39 L 840 699.49 C 840.3 699.29 840.58 699.19 840.84 699.19 C 841.08 699.19 841.25 699.28 841.35 699.44 C 841.45 699.61 841.49 699.87 841.49 700.23 L 841.49 704.39 Z M 835.42 701.24 C 835.42 700.53 835.35 700.02 835.21 699.69 C 835.08 699.36 834.86 699.19 834.55 699.19 C 834.25 699.19 834.02 699.36 833.89 699.69 C 833.75 700.02 833.68 700.53 833.68 701.24 C 833.68 701.94 833.75 702.45 833.89 702.78 C 834.02 703.1 834.25 703.27 834.55 703.27 C 834.86 703.27 835.08 703.1 835.21 702.78 C 835.35 702.45 835.42 701.94 835.42 701.24 Z M 836.45 698.77 C 836.89 699.35 837.11 700.17 837.11 701.24 C 837.11 702.29 836.89 703.11 836.45 703.68 C 836 704.26 835.37 704.55 834.55 704.55 C 833.74 704.55 833.1 704.26 832.66 703.68 C 832.21 703.11 831.99 702.29 831.99 701.24 C 831.99 700.17 832.21 699.35 832.66 698.77 C 833.1 698.19 833.74 697.91 834.55 697.91 C 835.37 697.91 836 698.19 836.45 698.77 Z M 826.83 704.39 L 831.22 704.39 L 831.22 703.09 L 828.61 703.09 L 831.17 699.27 L 831.17 698.07 L 826.93 698.07 L 826.93 699.37 L 829.39 699.37 L 826.83 703.19 Z M 824.25 702.97 L 824.25 701.76 C 824.07 701.7 823.86 701.67 823.61 701.67 C 823.37 701.67 823.19 701.75 823.06 701.9 C 822.93 702.05 822.87 702.27 822.87 702.56 C 822.87 702.81 822.92 703 823.02 703.15 C 823.13 703.29 823.26 703.36 823.44 703.36 C 823.71 703.36 823.98 703.23 824.25 702.97 Z M 823.75 704.35 C 823.48 704.48 823.21 704.55 822.94 704.55 C 822.43 704.55 822.03 704.39 821.73 704.05 C 821.43 703.72 821.28 703.26 821.28 702.67 C 821.28 702.05 821.46 701.56 821.83 701.2 C 822.19 700.85 822.68 700.67 823.3 700.67 C 823.56 700.67 823.87 700.72 824.25 700.81 L 824.25 700.25 C 824.25 699.82 824.2 699.53 824.09 699.37 C 823.97 699.22 823.77 699.14 823.46 699.14 C 822.97 699.14 822.36 699.28 821.64 699.54 L 821.64 698.41 C 821.88 698.26 822.19 698.13 822.58 698.04 C 822.97 697.95 823.37 697.91 823.77 697.91 C 824.49 697.91 825.01 698.07 825.33 698.4 C 825.65 698.72 825.81 699.24 825.81 699.96 L 825.81 704.39 L 824.5 704.39 L 824.35 703.82 C 824.21 704.04 824.01 704.21 823.75 704.35 Z M 820.08 704.39 L 820.08 699.75 C 820.08 699.16 819.96 698.7 819.71 698.38 C 819.46 698.06 819.11 697.91 818.65 697.91 C 818.07 697.91 817.44 698.16 816.77 698.66 C 816.53 698.16 816.11 697.91 815.53 697.91 C 814.95 697.91 814.33 698.15 813.67 698.64 L 813.54 698.07 L 812.15 698.07 L 812.15 704.39 L 813.85 704.39 L 813.85 699.49 C 814.15 699.29 814.42 699.19 814.65 699.19 C 814.87 699.19 815.03 699.28 815.13 699.44 C 815.22 699.61 815.27 699.87 815.27 700.22 L 815.27 704.39 L 816.96 704.39 L 816.96 699.77 L 816.96 699.63 C 816.96 699.58 816.96 699.53 816.95 699.49 C 817.26 699.29 817.53 699.19 817.77 699.19 C 817.99 699.19 818.15 699.28 818.25 699.44 C 818.34 699.61 818.39 699.87 818.39 700.22 L 818.39 704.39 Z M 808.74 701.11 L 807.95 697.56 L 807.2 701.11 Z M 811.35 704.39 L 809.44 704.39 L 808.99 702.35 L 806.94 702.35 L 806.51 704.39 L 804.69 704.39 L 807.06 695.82 L 808.98 695.82 Z M 845.82 720.61 L 845.82 716.75 C 843.93 717.78 841.07 718.32 838.22 718.32 C 835.37 718.32 832.51 717.78 830.62 716.75 L 830.62 720.61 C 830.62 721.3 833.21 722.91 838.22 722.91 C 843.23 722.91 845.82 721.3 845.82 720.61 Z M 845.82 727.26 L 845.82 723.53 C 843.93 724.55 841.07 725.09 838.22 725.09 C 835.37 725.09 832.51 724.55 830.62 723.53 L 830.62 727.26 C 830.62 727.95 833.21 729.56 838.22 729.56 C 843.23 729.56 845.82 727.95 845.82 727.26 Z M 845.82 733.2 L 845.82 730.18 C 843.93 731.21 841.07 731.74 838.22 731.74 C 835.37 731.74 832.51 731.21 830.62 730.18 L 830.62 733.2 C 830.62 733.89 833.21 735.5 838.22 735.5 C 843.23 735.5 845.82 733.89 845.82 733.2 Z M 830.62 713.84 C 830.62 714.53 833.21 716.13 838.22 716.13 C 843.23 716.13 845.82 714.53 845.82 713.84 C 845.82 713.15 843.23 711.54 838.22 711.54 C 833.21 711.54 830.62 713.15 830.62 713.84 Z M 848 713.84 L 848 733.2 C 848 736.14 843.08 737.68 838.22 737.68 C 833.36 737.68 828.44 736.14 828.44 733.2 L 828.44 713.84 C 828.44 710.9 833.36 709.36 838.22 709.36 C 843.08 709.36 848 710.9 848 713.84 Z M 806.28 735.76 L 827.75 735.76 L 827.75 737.94 L 806.28 737.94 C 802.82 737.94 800 735.12 800 731.66 L 800 696.34 C 800 692.88 802.82 690.06 806.28 690.06 L 841.6 690.06 C 845.06 690.06 847.88 692.88 847.88 696.34 L 847.88 710.19 L 845.7 710.19 L 845.7 696.34 C 845.7 694.08 843.86 692.24 841.6 692.24 L 806.28 692.24 C 804.02 692.24 802.18 694.08 802.18 696.34 L 802.18 731.66 C 802.18 733.92 804.02 735.76 806.28 735.76 Z" fill="#c925d1" stroke="none" pointer-events="all"/><g transform="translate(-0.5 -0.5)"><switch><foreignObject pointer-events="none" width="100%" height="100%" requiredFeatures="http://www.w3.org/TR/SVG11/feature#Extensibility" style="overflow: visible; text-align: left;"><div xmlns="http://www.w3.org/1999/xhtml" style="display: flex; align-items: unsafe flex-start; justify-content: unsafe center; width: 1px; height: 1px; padding-top: 750px; margin-left: 824px;"><div data-drawio-colors="color: #232F3E; " style="box-sizing: border-box; font-size: 0px; text-align: center;"><div style="display: inline-block; font-size: 10px; font-family: Helvetica; color: rgb(35, 47, 62); line-height: 1.2; pointer-events: all; white-space: nowrap;">DB 인스턴스</div></div></div></foreignObject><text x="824" y="760" fill="#232F3E" font-family="Helvetica" font-size="10px" text-anchor="middle">DB 인스턴스</text></switch></g><path d="M 635 50 L 635 115.53" fill="none" stroke="#666666" stroke-width="2" stroke-miterlimit="10" pointer-events="stroke"/><path d="M 629 105.76 L 635 117.76 L 641 105.76" fill="none" stroke="#666666" stroke-width="2" stroke-miterlimit="10" pointer-events="all"/><path d="M 610 145 L 244 145 L 244 375.53" fill="none" stroke="#666666" stroke-width="2" stroke-miterlimit="10" pointer-events="stroke"/><path d="M 238 365.76 L 244 377.76 L 250 365.76" fill="none" stroke="#666666" stroke-width="2" stroke-miterlimit="10" pointer-events="all"/><path d="M 660 145 L 824 145 L 824 375.53" fill="none" stroke="#666666" stroke-width="2" stroke-miterlimit="10" pointer-events="stroke"/><path d="M 818 365.76 L 824 377.76 L 830 365.76" fill="none" stroke="#666666" stroke-width="2" stroke-miterlimit="10" pointer-events="all"/><path d="M 244 428 L 244 685.59" fill="none" stroke="#c925d1" stroke-width="2" stroke-miterlimit="10" pointer-events="stroke"/><path d="M 238 675.82 L 244 687.82 L 250 675.82" fill="none" stroke="#c925d1" stroke-width="2" stroke-miterlimit="10" pointer-events="all"/><g transform="translate(-0.5 -0.5)"><switch><foreignObject pointer-events="none" width="100%" height="100%" requiredFeatures="http://www.w3.org/TR/SVG11/feature#Extensibility" style="overflow: visible; text-align: left;"><div xmlns="http://www.w3.org/1999/xhtml" style="display: flex; align-items: unsafe center; justify-content: unsafe center; width: 1px; height: 1px; padding-top: 559px; margin-left: 244px;"><div data-drawio-colors="color: #C925D1; background-color: #FFFFFF; " style="box-sizing: border-box; font-size: 0px; text-align: center;"><div style="display: inline-block; font-size: 9px; font-family: Helvetica; color: rgb(201, 37, 209); line-height: 1.2; pointer-events: all; background-color: rgb(255, 255, 255); white-space: nowrap;">MySQL 3306</div></div></div></foreignObject><text x="244" y="562" fill="#C925D1" font-family="Helvetica" font-size="9px" text-anchor="middle">MySQL 3306</text></switch></g><path d="M 824 428 L 824 685.59" fill="none" stroke="#c925d1" stroke-width="2" stroke-miterlimit="10" pointer-events="stroke"/><path d="M 818 675.82 L 824 687.82 L 830 675.82" fill="none" stroke="#c925d1" stroke-width="2" stroke-miterlimit="10" pointer-events="all"/><g transform="translate(-0.5 -0.5)"><switch><foreignObject pointer-events="none" width="100%" height="100%" requiredFeatures="http://www.w3.org/TR/SVG11/feature#Extensibility" style="overflow: visible; text-align: left;"><div xmlns="http://www.w3.org/1999/xhtml" style="display: flex; align-items: unsafe center; justify-content: unsafe center; width: 1px; height: 1px; padding-top: 559px; margin-left: 824px;"><div data-drawio-colors="color: #C925D1; background-color: #FFFFFF; " style="box-sizing: border-box; font-size: 0px; text-align: center;"><div style="display: inline-block; font-size: 9px; font-family: Helvetica; color: rgb(201, 37, 209); line-height: 1.2; pointer-events: all; background-color: rgb(255, 255, 255); white-space: nowrap;">MySQL 3306</div></div></div></foreignObject><text x="824" y="562" fill="#C925D1" font-family="Helvetica" font-size="9px" text-anchor="middle">MySQL 3306</text></switch></g><path d="M 478 384 L 635 384 L 635 173.35" fill="none" stroke="#8c4fff" stroke-width="1.5" stroke-miterlimit="10" stroke-dasharray="4.5 4.5" pointer-events="stroke"/><path d="M 639.75 181.18 L 635 171.68 L 630.25 181.18" fill="none" stroke="#8c4fff" stroke-width="1.5" stroke-miterlimit="10" pointer-events="all"/></g><switch><g requiredFeatures="http://www.w3.org/TR/SVG11/feature#Extensibility"/><a transform="translate(0,-5)" xlink:href="https://www.diagrams.net/doc/faq/svg-export-text-problems" target="_blank"><text text-anchor="middle" font-size="10px" x="50%" y="100%">Text is not SVG - cannot display</text></a></switch></svg>