<svg xmlns="http://www.w3.org/2000/svg" xmlns:xlink="http://www.w3.org/1999/xlink" version="1.1" width="1271px" height="891px" viewBox="-0.5 -0.5 1271 891" content="&lt;mxfile&gt;&lt;diagram id=&quot;vpc-arch&quot; name=&quot;VPC Network Architecture&quot;&gt;7Vxtb9o6FP41kbYPVHkDwsckQDdpu+od3SrdL5UhbrAW4sgx0PbXXzsxJolNSykvmxq6TuT4NT7Pc87JsVPDCReP1wRk8+84golhm9Gj4QwN23ZNj/3PBU+loG/3S0FMUFSKrK1ggp6hEJpCukQRzGsVKcYJRVldOMNpCme0JgOE4HW92gNO6qNmIIaKYDIDiSq9QxGdC6lrmtuCLxDF883QZleULMCmthDkcxDhdUXkjAwnJBjT8tviMYQJX7zNwpTtxjtK5cwITOk+DZY5JHnZaAWSpbjBn1tpTp82t53/hnTGp28aToCXNEEpDOUSc+EDTmmIE0yKBg77GfNhg5iACMFtWYpTyKujJGlWHzJ5Tgn+DRuVI5DPYSQGWkFCEVPINzCFyQ3OEUU4ZWVTTCle8C4yMENpfIszJu1WWvgJinlNyksCIK5mbHKQDRbM6SJh15a4GYE9S16L1eBzAHlW3vkDeuQTCzKMeC+jFessF50w/Wa8weIx5lS4AuvcvSoXvexxDBYo4Tz4BUkEUsDEqg6FWvk9wMeKSOj0GuIFpOSJVRGlPVfg66nOnPUWrhtIzitA3ciAIEgsO95CiH0RKNIjit1hZ5bgZaSgyr+bMEG4Latgq1i7YtRuwP6xeYSm0WUlIb+6srsNQfO6XxdY6hXvoy5oXvfrAqvZvdUY32pOsCJQrmrdm43xzcoEu8Nd7NrBogpk13NE4YRBn6/qmgGuAWO3AeOdCI0JXmbFkF9nBbHU0nv29b5Q9D1IqGRtg/lViov5vszEBD7QLX+/FVdDx9RRumYRTsclp04lT6WSZfc1ZPLsI7AJxWuFR1+5lUkhZdJrQOEasB57bNEtvg4FvXwy40iY0Q4zkB3ZxxltuRe64/H4j7TlpnFMW46EMu5joYqzmnXnfHZ9lc0UJP66CV+GXtHI/GSZV8UPG8PqfW6N/0WMv6PBPTPuFLCxiOijCfuyTpKALEdT2YrA2ZLkaAV/wEOdBwOG3fAZ0mSc0mc0rJoc80y+xKvz1za7qjOxdM5EMv9dodlzxwZqWLYCKAFTlCDKZ/ofX3E2TtZJMaFzCHIqW1U4q1FS3dRzq+D2R4FfXV1rpy6byGwoSnalQ/krQfteqtyat72VadeV2dXYYq0x7h9JldODVDltValxrOYFdZktp52c/Wq4ebOcJoi70MlyWkZ8vJL0uBW/KhMKrVs9r1vVhZMHP1Pl3LMy8t5vK082LtLU8bLv+5bVU+PvsT3ujbwTek458GGe8wCONmLfgYailoaitnlMiqo2V0PRaZOiVq/laMvRD8DRnn1JkhK02ulIWRl7QH/Zk1q21/L04/LUNH3X1/B01Bv3xv0T8lQOfClf6ujySFqeHiXelTzVeFMNT1V36rotT1uefgCeNv3peYmaAtrR7D/8499Wtx7anQVBi4GGFYdvLLDFP2RP4QCQOY2spKXJfrieirGN7P0Q6yRcQwrQNBsKvH7FHWTFw5fVeS1byVaC1vW20Skp70fR/AJFEW8dEJijZ7BNftc9DDeyYEkZtp7lhqoOl5ocm86g6mhx0hSm3VS9q6je0iW+jpGOXkP2UB13pvhR0fwdK5pcK2rcJ1M5HDpdfsuHJSdl62b2cY9k5amU1KCn01fpKfVx9IcqoSSUPmBFS8YoNAZDI/CMUWCw4GPgFhLfCFwuGTjGIDQcv8LXL7e3N3xD0DM/84jFNrmAnwr55LqOEE0mX7jAttWNwt00Fk5dr/OTUrgCnvKjdwqnAsegDo6uq4LD8jTgcI6AjWgnf4dBS18Zw/Uuyd/omPT9/jT59xsb0V8STABnKQtI+Ya++UBYQGWbO+x2y1sVFf3XiSsBcGzi8nQ2oQogZCr7x20b1p/qwBB7yKXwnpawPinELLMROfTU0wY6u3OM2K5E2P5xPaHTTibgJ83NdneT/ZrGyDa8njHgnX29vjtCjH8GK3PpAH/QbQT4jubEie7AyVFAwBN9hL6cj+e2xtQ8srUG568zOG4jGHVMTSLh5Fh7m9GpJhNKTGqyCXtYpCIp1lqkt2ebHN2B6lMdYpUoeWnnobRI6jmp1iL9dRZJCYEc64wxkATbe02S3VHO8Mkqn4pD2CZ/YvNs8egW9AyvkPh9wwvfkkf5wIZp0HgiczSHF05mmAAhneK1sI7ujQ9FgTCK4YaLHBY4xilIRltpVbcwZSAjxVuGOINpKRkjPpdCi+yquvZKSqZXfGTJ5pVHnmZhTE4jaZVUNYgD0jlekpmYeuWNQwpIDEVNedv81l5UF4EJoGgFayO8d+3Z8Pz5QxOpXnbt5RGe19a+di53L0XIFa+qoXkW9bLaUL30B9XG9JLa4HtuWqvEs4VdwyvThsz9OC8lErceq5J3HPLWQem82Jd+4chCw2d9WMbI55IgPJfOPZ3KG0HZbpVrcoe6bopIIACz33HRvHocsPi8xclpYFTdsv+DzCufFo9lLmhftdqVJzqOT+hdmlBOKZ5cI+xy+wcFirLKn2VwRv8D&lt;/diagram&gt;&lt;/mxfile&gt;"><defs/><g><rect x="610" y="0" width="50" height="50" fill="none" stroke="none" pointer-events="all"/><path d="M 640.27 8.28 C 640.27 4.97 643.01 2.27 646.39 2.27 C 649.76 2.27 652.5 4.97 652.5 8.28 C 652.5 11.59 649.76 14.29 646.39 14.29 C 643.01 14.29 640.27 11.59 640.27 8.28 Z M 653.37 16.29 C 652.63 15.83 651.86 15.45 651.05 15.15 C 653.29 13.66 654.77 11.14 654.77 8.28 C 654.77 3.71 651.01 0 646.39 0 C 641.76 0 638 3.71 638 8.28 C 638 11.13 639.47 13.65 641.7 15.14 C 640.24 15.69 638.88 16.49 637.67 17.53 L 639.15 19.25 C 641.17 17.52 643.74 16.56 646.36 16.56 C 648.41 16.56 650.42 17.13 652.17 18.22 C 655.28 20.15 657.33 23.55 657.67 27.27 L 646.36 27.27 L 646.36 29.55 L 658.86 29.55 C 659.49 29.55 660 29.04 660 28.41 C 660 23.47 657.46 18.83 653.37 16.29 Z M 617.54 8.28 C 617.54 4.97 620.29 2.27 623.66 2.27 C 627.03 2.27 629.77 4.97 629.77 8.28 C 629.77 11.59 627.03 14.29 623.66 14.29 C 620.29 14.29 617.54 11.59 617.54 8.28 Z M 623.64 27.27 L 612.33 27.27 C 612.88 21.27 617.74 16.56 623.64 16.56 C 625.68 16.56 627.69 17.13 629.44 18.22 C 629.93 18.52 630.41 18.87 630.85 19.25 L 632.33 17.53 C 631.8 17.07 631.23 16.66 630.64 16.29 C 629.9 15.83 629.13 15.45 628.33 15.15 C 630.57 13.66 632.04 11.14 632.04 8.28 C 632.04 3.71 628.28 0 623.66 0 C 619.03 0 615.27 3.71 615.27 8.28 C 615.27 11.14 616.75 13.66 618.99 15.15 C 613.75 17.13 610 22.32 610 28.41 C 610 29.04 610.51 29.55 611.14 29.55 L 623.64 29.55 Z M 623.69 47.73 C 624.24 41.72 629.1 37.01 635 37.01 C 637.05 37.01 639.06 37.59 640.81 38.67 C 643.92 40.61 645.96 44.01 646.31 47.73 Z M 628.91 28.73 C 628.91 25.42 631.65 22.73 635.02 22.73 C 638.39 22.73 641.13 25.42 641.13 28.73 C 641.13 32.05 638.39 34.74 635.02 34.74 C 631.65 34.74 628.91 32.05 628.91 28.73 Z M 642 36.74 C 641.27 36.29 640.49 35.91 639.69 35.61 C 641.93 34.12 643.41 31.59 643.41 28.73 C 643.41 24.17 639.64 20.45 635.02 20.45 C 630.4 20.45 626.64 24.17 626.64 28.73 C 626.64 31.59 628.11 34.12 630.35 35.6 C 625.12 37.58 621.36 42.77 621.36 48.86 C 621.36 49.49 621.87 50 622.5 50 L 647.5 50 C 648.13 50 648.64 49.49 648.64 48.86 C 648.64 43.93 646.1 39.28 642 36.74 Z" fill="#232f3d" stroke="none" pointer-events="all"/><g transform="translate(-0.5 -0.5)"><switch><foreignObject pointer-events="none" width="100%" height="100%" requiredFeatures="http://www.w3.org/TR/SVG11/feature#Extensibility" style="overflow: visible; text-align: left;"><div xmlns="http://www.w3.org/1999/xhtml" style="display: flex; align-items: unsafe flex-start; justify-content: unsafe center; width: 1px; height: 1px; padding-top: 62px; margin-left: 635px;"><div data-drawio-colors="color: #232F3E; " style="box-sizing: border-box; font-size: 0px; text-align: center;"><div style="display: inline-block; font-size: 11px; font-family: Verdana; color: rgb(35, 47, 62); line-height: 1.2; pointer-events: all; white-space: nowrap;">Users</div></div></div></foreignObject><text x="635" y="73" fill="#232F3E" font-family="Verdana" font-size="11px" text-anchor="middle">Users</text></switch></g><path d="M 0 70 L 1270 70 L 1270 890 L 0 890 Z" fill="none" stroke="rgb(0, 0, 0)" stroke-miterlimit="10" pointer-events="all"/><path d="M 6.09 77.18 C 6.01 77.18 5.93 77.19 5.85 77.19 C 5.5 77.19 5.15 77.23 4.81 77.32 C 4.53 77.39 4.25 77.49 3.98 77.62 C 3.9 77.65 3.84 77.7 3.79 77.76 C 3.75 77.83 3.74 77.91 3.74 77.99 L 3.74 78.32 C 3.74 78.46 3.79 78.53 3.89 78.53 L 3.99 78.53 L 4.22 78.44 C 4.45 78.35 4.69 78.27 4.94 78.21 C 5.17 78.16 5.41 78.13 5.65 78.13 C 6.04 78.09 6.43 78.2 6.73 78.44 C 6.97 78.74 7.09 79.12 7.05 79.5 L 7.05 79.99 C 6.79 79.93 6.54 79.88 6.29 79.84 C 6.05 79.81 5.81 79.79 5.57 79.79 C 4.98 79.76 4.4 79.94 3.94 80.31 C 3.54 80.65 3.32 81.15 3.34 81.68 C 3.31 82.15 3.49 82.62 3.82 82.96 C 4.18 83.29 4.66 83.46 5.15 83.44 C 5.91 83.45 6.63 83.11 7.11 82.51 C 7.18 82.66 7.24 82.79 7.31 82.91 C 7.38 83.02 7.46 83.12 7.55 83.21 C 7.6 83.27 7.67 83.31 7.75 83.31 C 7.81 83.31 7.87 83.29 7.92 83.25 L 8.34 82.97 C 8.41 82.93 8.46 82.86 8.47 82.77 C 8.47 82.72 8.45 82.67 8.42 82.62 C 8.34 82.47 8.26 82.31 8.21 82.14 C 8.15 81.95 8.12 81.75 8.13 81.55 L 8.14 79.37 C 8.2 78.77 8 78.18 7.59 77.74 C 7.17 77.39 6.64 77.19 6.09 77.18 Z M 19.89 77.19 C 19.78 77.19 19.68 77.19 19.57 77.2 C 19.29 77.2 19 77.24 18.73 77.31 C 18.47 77.38 18.23 77.5 18.02 77.66 C 17.82 77.81 17.66 77.99 17.54 78.21 C 17.42 78.43 17.35 78.67 17.36 78.92 C 17.36 79.27 17.48 79.61 17.69 79.89 C 17.97 80.22 18.34 80.46 18.76 80.56 L 19.72 80.87 C 19.97 80.93 20.2 81.05 20.39 81.22 C 20.51 81.35 20.58 81.51 20.57 81.69 C 20.58 81.94 20.45 82.18 20.23 82.31 C 19.93 82.48 19.6 82.56 19.26 82.54 C 18.99 82.54 18.72 82.51 18.46 82.45 C 18.22 82.4 17.98 82.32 17.75 82.22 L 17.59 82.15 C 17.54 82.14 17.5 82.14 17.46 82.15 C 17.36 82.15 17.31 82.22 17.31 82.36 L 17.31 82.69 C 17.31 82.76 17.32 82.82 17.35 82.89 C 17.4 82.97 17.47 83.03 17.56 83.07 C 17.8 83.19 18.06 83.28 18.32 83.34 C 18.66 83.41 19 83.45 19.35 83.45 L 19.33 83.46 C 19.66 83.45 19.98 83.4 20.29 83.3 C 20.55 83.22 20.8 83.09 21.01 82.92 C 21.21 82.77 21.38 82.57 21.49 82.34 C 21.61 82.1 21.67 81.83 21.66 81.56 C 21.67 81.23 21.56 80.9 21.36 80.63 C 21.09 80.32 20.73 80.09 20.33 79.99 L 19.39 79.69 C 19.13 79.61 18.88 79.49 18.67 79.32 C 18.54 79.2 18.47 79.03 18.47 78.85 C 18.46 78.61 18.58 78.38 18.79 78.25 C 19.06 78.11 19.36 78.05 19.67 78.06 C 20.11 78.06 20.55 78.14 20.96 78.32 C 21.04 78.37 21.12 78.4 21.21 78.41 C 21.31 78.41 21.36 78.34 21.36 78.19 L 21.36 77.88 C 21.37 77.8 21.35 77.72 21.31 77.66 C 21.25 77.59 21.18 77.54 21.11 77.49 L 20.83 77.38 L 20.45 77.27 L 20.01 77.2 C 19.97 77.2 19.93 77.19 19.89 77.19 Z M 16.02 77.36 C 15.94 77.35 15.86 77.38 15.79 77.42 C 15.72 77.5 15.68 77.59 15.66 77.69 L 14.51 82.14 L 13.47 77.71 C 13.45 77.61 13.41 77.52 13.34 77.44 C 13.26 77.39 13.17 77.37 13.07 77.38 L 12.54 77.38 C 12.44 77.37 12.35 77.39 12.27 77.44 C 12.2 77.51 12.15 77.61 12.14 77.71 L 11.09 82.14 L 9.97 77.7 C 9.95 77.6 9.91 77.51 9.84 77.44 C 9.76 77.39 9.67 77.36 9.58 77.37 L 8.92 77.37 C 8.81 77.37 8.76 77.43 8.76 77.54 C 8.77 77.63 8.79 77.72 8.82 77.81 L 10.38 82.95 C 10.4 83.05 10.45 83.14 10.52 83.21 C 10.6 83.26 10.69 83.29 10.78 83.28 L 11.36 83.26 C 11.46 83.27 11.55 83.25 11.63 83.19 C 11.7 83.12 11.74 83.03 11.76 82.93 L 12.79 78.64 L 13.82 82.93 C 13.83 83.03 13.88 83.12 13.95 83.19 C 14.03 83.25 14.12 83.27 14.21 83.26 L 14.79 83.26 C 14.88 83.27 14.97 83.25 15.04 83.2 C 15.11 83.13 15.16 83.03 15.18 82.94 L 16.79 77.79 C 16.84 77.72 16.84 77.63 16.84 77.63 C 16.84 77.59 16.84 77.56 16.84 77.52 C 16.84 77.48 16.82 77.43 16.79 77.4 C 16.76 77.37 16.72 77.35 16.67 77.36 L 16.05 77.36 C 16.04 77.36 16.03 77.36 16.02 77.36 Z M 5.65 80.62 C 5.7 80.62 5.75 80.62 5.8 80.62 L 6.43 80.62 C 6.64 80.64 6.85 80.67 7.06 80.71 L 7.07 81.01 C 7.07 81.21 7.05 81.4 7 81.59 C 6.96 81.75 6.88 81.9 6.77 82.01 C 6.61 82.21 6.39 82.36 6.14 82.44 C 5.91 82.52 5.67 82.56 5.43 82.56 C 5.18 82.6 4.93 82.53 4.73 82.37 C 4.55 82.18 4.46 81.92 4.49 81.66 C 4.47 81.36 4.59 81.08 4.81 80.89 C 5.06 80.72 5.35 80.62 5.65 80.62 Z M 21.04 84.72 C 20.34 84.73 19.51 84.89 18.89 85.33 C 18.69 85.47 18.72 85.63 18.94 85.63 C 19.64 85.54 21.21 85.35 21.5 85.71 C 21.78 86.06 21.19 87.54 20.94 88.21 C 20.86 88.41 21.04 88.49 21.21 88.34 C 22.39 87.36 22.72 85.3 22.46 85 C 22.32 84.85 21.74 84.71 21.04 84.72 Z M 2.65 85.1 C 2.5 85.12 2.42 85.3 2.58 85.44 C 5.29 87.89 8.82 89.23 12.48 89.21 C 15.37 89.22 18.2 88.36 20.59 86.74 C 20.95 86.47 20.64 86.07 20.26 86.23 C 17.87 87.24 15.3 87.76 12.71 87.77 C 9.23 87.78 5.82 86.87 2.81 85.14 C 2.75 85.11 2.7 85.1 2.65 85.1 Z M 0 70 L 25 70 L 25 95 L 0 95 Z" fill="rgb(0, 0, 0)" stroke="none" pointer-events="all"/><g transform="translate(-0.5 -0.5)"><switch><foreignObject pointer-events="none" width="100%" height="100%" requiredFeatures="http://www.w3.org/TR/SVG11/feature#Extensibility" style="overflow: visible; text-align: left;"><div xmlns="http://www.w3.org/1999/xhtml" style="display: flex; align-items: unsafe flex-start; justify-content: unsafe flex-start; width: 1238px; height: 1px; padding-top: 82px; margin-left: 32px;"><div data-drawio-colors="color: rgb(0, 0, 0); " style="box-sizing: border-box; font-size: 0px; text-align: left;"><div style="display: inline-block; font-size: 14px; font-family: Verdana; color: rgb(0, 0, 0); line-height: 1.2; pointer-events: all; font-weight: bold; white-space: normal; overflow-wrap: normal;">AWS Cloud</div></div></div></foreignObject><text x="32" y="96" fill="rgb(0, 0, 0)" font-family="Verdana" font-size="14px" font-weight="bold">AWS Cloud</text></switch></g><rect x="610" y="120" width="50" height="50" fill="none" stroke="none" pointer-events="all"/><path d="M 645.79 157.78 L 644.09 157.78 L 644.09 137.65 C 644.09 137.21 643.82 136.8 643.41 136.62 L 643.31 136.57 C 641.02 135.53 638.66 134.47 635.25 134.47 C 631.7 134.47 629.09 135.61 626.51 136.9 C 626.12 137.09 625.87 137.48 625.87 137.92 L 625.87 157.78 L 624.21 157.78 L 624.21 136.3 C 626.98 134.04 630.98 132.76 635.26 132.76 C 639.25 132.76 643.05 133.89 645.79 135.89 Z M 635.26 130.48 C 630.23 130.48 625.51 132.1 622.32 134.92 C 622.07 135.13 621.93 135.44 621.93 135.77 L 621.93 158.92 C 621.93 159.55 622.44 160.06 623.07 160.06 L 627.01 160.06 C 627.64 160.06 628.15 159.55 628.15 158.92 L 628.15 138.63 C 630.34 137.57 632.46 136.74 635.25 136.74 C 637.91 136.74 639.85 137.51 641.81 138.39 L 641.81 158.92 C 641.81 159.55 642.32 160.06 642.95 160.06 L 646.93 160.06 C 647.56 160.06 648.07 159.55 648.07 158.92 L 648.07 135.33 C 648.07 134.98 647.91 134.65 647.64 134.43 C 644.48 131.92 639.97 130.48 635.26 130.48 Z M 635 167.72 C 622.47 167.72 612.28 157.53 612.28 145 C 612.28 132.47 622.47 122.28 635 122.28 C 647.53 122.28 657.72 132.47 657.72 145 C 657.72 157.53 647.53 167.72 635 167.72 Z M 635 120 C 621.21 120 610 131.22 610 145 C 610 158.79 621.21 170 635 170 C 648.79 170 660 158.79 660 145 C 660 131.22 648.79 120 635 120 Z" fill="#8c4fff" stroke="none" pointer-events="all"/><g transform="translate(-0.5 -0.5)"><switch><foreignObject pointer-events="none" width="100%" height="100%" requiredFeatures="http://www.w3.org/TR/SVG11/feature#Extensibility" style="overflow: visible; text-align: left;"><div xmlns="http://www.w3.org/1999/xhtml" style="display: flex; align-items: unsafe flex-start; justify-content: unsafe center; width: 1px; height: 1px; padding-top: 182px; margin-left: 635px;"><div data-drawio-colors="color: #232F3E; " style="box-sizing: border-box; font-size: 0px; text-align: center;"><div style="display: inline-block; font-size: 10px; font-family: Verdana; color: rgb(35, 47, 62); line-height: 1.2; pointer-events: all; white-space: nowrap;">Internet Gateway<br />CloudArchitect-Lab-igw</div></div></div></foreignObject><text x="635" y="192" fill="#232F3E" font-family="Verdana" font-size="10px" text-anchor="middle">Internet G...</text></switch></g><rect x="50" y="195" width="1170" height="640" fill="none" stroke="rgb(0, 0, 0)" pointer-events="none"/><g transform="translate(-0.5 -0.5)"><switch><foreignObject pointer-events="none" width="100%" height="100%" requiredFeatures="http://www.w3.org/TR/SVG11/feature#Extensibility" style="overflow: visible; text-align: left;"><div xmlns="http://www.w3.org/1999/xhtml" style="display: flex; align-items: unsafe flex-start; justify-content: unsafe flex-start; width: 1138px; height: 1px; padding-top: 207px; margin-left: 82px;"><div data-drawio-colors="color: #8C4FFF; " style="box-sizing: border-box; font-size: 0px; text-align: left;"><div style="display: inline-block; font-size: 13px; font-family: Verdana; color: rgb(140, 79, 255); line-height: 1.2; pointer-events: none; white-space: normal; overflow-wrap: normal;">VPC<br />CloudArchitect-Lab-vpc (10.0.0.0/16)</div></div></div></foreignObject><text x="82" y="220" fill="#8C4FFF" font-family="Verdana" font-size="13px">VPC...</text></switch></g><rect x="70" y="245" width="550" height="570" fill="none" stroke="#147eba" stroke-dasharray="3 3" pointer-events="none"/><g transform="translate(-0.5 -0.5)"><switch><foreignObject pointer-events="none" width="100%" height="100%" requiredFeatures="http://www.w3.org/TR/SVG11/feature#Extensibility" style="overflow: visible; text-align: left;"><div xmlns="http://www.w3.org/1999/xhtml" style="display: flex; align-items: unsafe flex-start; justify-content: unsafe center; width: 548px; height: 1px; padding-top: 252px; margin-left: 71px;"><div data-drawio-colors="color: #147EBA; " style="box-sizing: border-box; font-size: 0px; text-align: center;"><div style="display: inline-block; font-size: 11px; font-family: Verdana; color: rgb(20, 126, 186); line-height: 1.2; pointer-events: none; white-space: normal; overflow-wrap: normal;">Availability Zone ap-northeast-2a</div></div></div></foreignObject><text x="345" y="263" fill="#147EBA" font-family="Verdana" font-size="11px" text-anchor="middle">Availability Zone ap-northeast-2a</text></switch></g><rect x="650" y="245" width="550" height="570" fill="none" stroke="#147eba" stroke-dasharray="3 3" pointer-events="none"/><g transform="translate(-0.5 -0.5)"><switch><foreignObject pointer-events="none" width="100%" height="100%" requiredFeatures="http://www.w3.org/TR/SVG11/feature#Extensibility" style="overflow: visible; text-align: left;"><div xmlns="http://www.w3.org/1999/xhtml" style="display: flex; align-items: unsafe flex-start; justify-content: unsafe center; width: 548px; height: 1px; padding-top: 252px; margin-left: 651px;"><div data-drawio-colors="color: #147EBA; " style="box-sizing: border-box; font-size: 0px; text-align: center;"><div style="display: inline-block; font-size: 11px; font-family: Verdana; color: rgb(20, 126, 186); line-height: 1.2; pointer-events: none; white-space: normal; overflow-wrap: normal;">Availability Zone ap-northeast-2b</div></div></div></foreignObject><text x="925" y="263" fill="#147EBA" font-family="Verdana" font-size="11px" text-anchor="middle">Availability Zone ap-northeast-2b</text></switch></g><path d="M 90 285 L 600 285 L 600 485 L 90 485 Z" fill="#f2f6e8" stroke="none" pointer-events="none"/><path d="M 90 285 L 115 285 L 115 310 L 90 310 Z M 102.52 288.21 C 101.4 288.21 100.31 288.63 99.48 289.39 C 98.67 290.11 98.2 291.15 98.2 292.24 L 98.2 294.78 L 95.89 294.78 C 95.8 294.78 95.7 294.82 95.64 294.89 C 95.57 294.95 95.54 295.04 95.54 295.13 L 95.54 306.43 C 95.54 306.63 95.7 306.79 95.89 306.79 L 109.11 306.79 C 109.3 306.79 109.46 306.63 109.46 306.43 L 109.46 295.15 C 109.47 295.06 109.43 294.97 109.36 294.9 C 109.3 294.83 109.21 294.79 109.11 294.79 L 106.81 294.79 L 106.81 292.29 C 106.8 291.21 106.35 290.18 105.56 289.44 C 104.74 288.65 103.65 288.22 102.52 288.21 Z M 102.51 288.93 C 103.46 288.92 104.37 289.28 105.06 289.93 C 105.72 290.54 106.1 291.4 106.1 292.29 L 106.1 294.79 L 98.88 294.79 L 98.89 292.26 C 98.9 291.36 99.28 290.51 99.95 289.91 C 100.65 289.27 101.57 288.92 102.51 288.93 Z M 96.24 295.5 L 108.76 295.5 L 108.75 306.07 L 96.24 306.07 Z M 102.51 297.74 C 101.48 297.73 100.61 298.51 100.51 299.53 C 100.42 300.56 101.13 301.48 102.14 301.66 L 102.14 304.44 L 102.86 304.44 L 102.86 301.66 C 103.79 301.49 104.47 300.67 104.48 299.72 C 104.48 298.63 103.6 297.75 102.51 297.74 Z M 102.39 298.45 C 102.43 298.45 102.47 298.45 102.51 298.46 C 102.84 298.46 103.16 298.59 103.4 298.83 C 103.64 299.07 103.77 299.39 103.76 299.72 C 103.77 300.06 103.64 300.38 103.4 300.61 C 103.16 300.85 102.84 300.98 102.51 300.98 C 102.04 301.02 101.6 300.8 101.34 300.42 C 101.08 300.03 101.06 299.53 101.28 299.12 C 101.5 298.71 101.93 298.46 102.39 298.45 Z" fill="#7aa116" stroke="none" pointer-events="all"/><g transform="translate(-0.5 -0.5)"><switch><foreignObject pointer-events="none" width="100%" height="100%" requiredFeatures="http://www.w3.org/TR/SVG11/feature#Extensibility" style="overflow: visible; text-align: left;"><div xmlns="http://www.w3.org/1999/xhtml" style="display: flex; align-items: unsafe flex-start; justify-content: unsafe flex-start; width: 478px; height: 1px; padding-top: 297px; margin-left: 122px;"><div data-drawio-colors="color: #7AA116; " style="box-sizing: border-box; font-size: 0px; text-align: left;"><div style="display: inline-block; font-size: 10px; font-family: Verdana; color: rgb(122, 161, 22); line-height: 1.2; pointer-events: all; white-space: normal; overflow-wrap: normal;">Public Subnet 2a<br />10.0.0.0/20</div></div></div></foreignObject><text x="122" y="307" fill="#7AA116" font-family="Verdana" font-size="10px">Public Subnet 2a...</text></switch></g><path d="M 670 285 L 1180 285 L 1180 485 L 670 485 Z" fill="#f2f6e8" stroke="none" pointer-events="all"/><path d="M 670 285 L 695 285 L 695 310 L 670 310 Z M 682.52 288.21 C 681.4 288.21 680.31 288.63 679.49 289.39 C 678.67 290.11 678.2 291.15 678.2 292.24 L 678.2 294.78 L 675.89 294.78 C 675.8 294.78 675.7 294.82 675.64 294.89 C 675.57 294.95 675.54 295.04 675.54 295.13 L 675.54 306.43 C 675.54 306.63 675.7 306.79 675.89 306.79 L 689.11 306.79 C 689.3 306.79 689.46 306.63 689.46 306.43 L 689.46 295.15 C 689.47 295.06 689.43 294.97 689.36 294.9 C 689.3 294.83 689.21 294.79 689.11 294.79 L 686.81 294.79 L 686.81 292.29 C 686.8 291.21 686.35 290.18 685.56 289.44 C 684.74 288.65 683.65 288.22 682.52 288.21 Z M 682.51 288.93 C 683.46 288.92 684.37 289.28 685.06 289.93 C 685.72 290.54 686.1 291.4 686.1 292.29 L 686.1 294.79 L 678.88 294.79 L 678.89 292.26 C 678.9 291.36 679.28 290.51 679.95 289.91 C 680.65 289.27 681.57 288.92 682.51 288.93 Z M 676.24 295.5 L 688.76 295.5 L 688.75 306.07 L 676.24 306.07 Z M 682.51 297.74 C 681.48 297.73 680.61 298.51 680.51 299.53 C 680.42 300.56 681.13 301.48 682.14 301.66 L 682.14 304.44 L 682.86 304.44 L 682.86 301.66 C 683.79 301.49 684.47 300.67 684.48 299.72 C 684.48 298.63 683.6 297.75 682.51 297.74 Z M 682.39 298.45 C 682.43 298.45 682.47 298.45 682.51 298.46 C 682.84 298.46 683.16 298.59 683.4 298.83 C 683.64 299.07 683.77 299.39 683.76 299.72 C 683.77 300.06 683.64 300.38 683.4 300.61 C 683.16 300.85 682.84 300.98 682.51 300.98 C 682.04 301.02 681.6 300.8 681.34 300.42 C 681.08 300.03 681.06 299.53 681.28 299.12 C 681.5 298.71 681.93 298.46 682.39 298.45 Z" fill="#7aa116" stroke="none" pointer-events="all"/><g transform="translate(-0.5 -0.5)"><switch><foreignObject pointer-events="none" width="100%" height="100%" requiredFeatures="http://www.w3.org/TR/SVG11/feature#Extensibility" style="overflow: visible; text-align: left;"><div xmlns="http://www.w3.org/1999/xhtml" style="display: flex; align-items: unsafe flex-start; justify-content: unsafe flex-start; width: 478px; height: 1px; padding-top: 297px; margin-left: 702px;"><div data-drawio-colors="color: #7AA116; " style="box-sizing: border-box; font-size: 0px; text-align: left;"><div style="display: inline-block; font-size: 10px; font-family: Verdana; color: rgb(122, 161, 22); line-height: 1.2; pointer-events: all; white-space: normal; overflow-wrap: normal;">Public Subnet 2b<br />10.0.16.0/20</div></div></div></foreignObject><text x="702" y="307" fill="#7AA116" font-family="Verdana" font-size="10px">Public Subnet 2b...</text></switch></g><path d="M 90 525 L 600 525 L 600 795 L 90 795 Z" fill="#e6f6f7" stroke="none" pointer-events="all"/><path d="M 90 525 L 115 525 L 115 550 L 90 550 Z M 102.52 528.21 C 101.4 528.21 100.31 528.63 99.48 529.39 C 98.67 530.11 98.2 531.15 98.2 532.24 L 98.2 534.78 L 95.89 534.78 C 95.8 534.78 95.7 534.82 95.64 534.89 C 95.57 534.95 95.54 535.04 95.54 535.13 L 95.54 546.43 C 95.54 546.63 95.7 546.79 95.89 546.79 L 109.11 546.79 C 109.3 546.79 109.46 546.63 109.46 546.43 L 109.46 535.15 C 109.47 535.06 109.43 534.97 109.36 534.9 C 109.3 534.83 109.21 534.79 109.11 534.79 L 106.81 534.79 L 106.81 532.29 C 106.8 531.21 106.35 530.18 105.56 529.44 C 104.74 528.65 103.65 528.22 102.52 528.21 Z M 102.51 528.93 C 103.46 528.92 104.37 529.28 105.06 529.93 C 105.72 530.54 106.1 531.4 106.1 532.29 L 106.1 534.79 L 98.88 534.79 L 98.89 532.26 C 98.9 531.36 99.28 530.51 99.95 529.91 C 100.65 529.27 101.57 528.92 102.51 528.93 Z M 96.24 535.5 L 108.76 535.5 L 108.75 546.07 L 96.24 546.07 Z M 102.51 537.74 C 101.48 537.73 100.61 538.51 100.51 539.53 C 100.42 540.56 101.13 541.48 102.14 541.66 L 102.14 544.44 L 102.86 544.44 L 102.86 541.66 C 103.79 541.49 104.47 540.67 104.48 539.72 C 104.48 538.63 103.6 537.75 102.51 537.74 Z M 102.39 538.45 C 102.43 538.45 102.47 538.45 102.51 538.46 C 102.84 538.46 103.16 538.59 103.4 538.83 C 103.64 539.07 103.77 539.39 103.76 539.72 C 103.77 540.06 103.64 540.38 103.4 540.61 C 103.16 540.85 102.84 540.98 102.51 540.98 C 102.04 541.02 101.6 540.8 101.34 540.42 C 101.08 540.03 101.06 539.53 101.28 539.12 C 101.5 538.71 101.93 538.46 102.39 538.45 Z" fill="#00a4a6" stroke="none" pointer-events="all"/><g transform="translate(-0.5 -0.5)"><switch><foreignObject pointer-events="none" width="100%" height="100%" requiredFeatures="http://www.w3.org/TR/SVG11/feature#Extensibility" style="overflow: visible; text-align: left;"><div xmlns="http://www.w3.org/1999/xhtml" style="display: flex; align-items: unsafe flex-start; justify-content: unsafe flex-start; width: 478px; height: 1px; padding-top: 537px; margin-left: 122px;"><div data-drawio-colors="color: #00A4A6; " style="box-sizing: border-box; font-size: 0px; text-align: left;"><div style="display: inline-block; font-size: 10px; font-family: Verdana; color: rgb(0, 164, 166); line-height: 1.2; pointer-events: all; white-space: normal; overflow-wrap: normal;">Private Subnet 2a<br />10.0.128.0/20</div></div></div></foreignObject><text x="122" y="547" fill="#00A4A6" font-family="Verdana" font-size="10px">Private Subnet 2a...</text></switch></g><path d="M 670 525 L 1180 525 L 1180 795 L 670 795 Z" fill="#e6f6f7" stroke="none" pointer-events="all"/><path d="M 670 525 L 695 525 L 695 550 L 670 550 Z M 682.52 528.21 C 681.4 528.21 680.31 528.63 679.49 529.39 C 678.67 530.11 678.2 531.15 678.2 532.24 L 678.2 534.78 L 675.89 534.78 C 675.8 534.78 675.7 534.82 675.64 534.89 C 675.57 534.95 675.54 535.04 675.54 535.13 L 675.54 546.43 C 675.54 546.63 675.7 546.79 675.89 546.79 L 689.11 546.79 C 689.3 546.79 689.46 546.63 689.46 546.43 L 689.46 535.15 C 689.47 535.06 689.43 534.97 689.36 534.9 C 689.3 534.83 689.21 534.79 689.11 534.79 L 686.81 534.79 L 686.81 532.29 C 686.8 531.21 686.35 530.18 685.56 529.44 C 684.74 528.65 683.65 528.22 682.52 528.21 Z M 682.51 528.93 C 683.46 528.92 684.37 529.28 685.06 529.93 C 685.72 530.54 686.1 531.4 686.1 532.29 L 686.1 534.79 L 678.88 534.79 L 678.89 532.26 C 678.9 531.36 679.28 530.51 679.95 529.91 C 680.65 529.27 681.57 528.92 682.51 528.93 Z M 676.24 535.5 L 688.76 535.5 L 688.75 546.07 L 676.24 546.07 Z M 682.51 537.74 C 681.48 537.73 680.61 538.51 680.51 539.53 C 680.42 540.56 681.13 541.48 682.14 541.66 L 682.14 544.44 L 682.86 544.44 L 682.86 541.66 C 683.79 541.49 684.47 540.67 684.48 539.72 C 684.48 538.63 683.6 537.75 682.51 537.74 Z M 682.39 538.45 C 682.43 538.45 682.47 538.45 682.51 538.46 C 682.84 538.46 683.16 538.59 683.4 538.83 C 683.64 539.07 683.77 539.39 683.76 539.72 C 683.77 540.06 683.64 540.38 683.4 540.61 C 683.16 540.85 682.84 540.98 682.51 540.98 C 682.04 541.02 681.6 540.8 681.34 540.42 C 681.08 540.03 681.06 539.53 681.28 539.12 C 681.5 538.71 681.93 538.46 682.39 538.45 Z" fill="#00a4a6" stroke="none" pointer-events="all"/><g transform="translate(-0.5 -0.5)"><switch><foreignObject pointer-events="none" width="100%" height="100%" requiredFeatures="http://www.w3.org/TR/SVG11/feature#Extensibility" style="overflow: visible; text-align: left;"><div xmlns="http://www.w3.org/1999/xhtml" style="display: flex; align-items: unsafe flex-start; justify-content: unsafe flex-start; width: 478px; height: 1px; padding-top: 537px; margin-left: 702px;"><div data-drawio-colors="color: #00A4A6; " style="box-sizing: border-box; font-size: 0px; text-align: left;"><div style="display: inline-block; font-size: 10px; font-family: Verdana; color: rgb(0, 164, 166); line-height: 1.2; pointer-events: all; white-space: normal; overflow-wrap: normal;">Private Subnet 2b<br />10.0.144.0/20</div></div></div></foreignObject><text x="702" y="547" fill="#00A4A6" font-family="Verdana" font-size="10px">Private Subnet 2b...</text></switch></g><rect x="430" y="345" width="48" height="48" fill="none" stroke="none" pointer-events="all"/><path d="M 442.68 382 L 442.68 378.91 L 444.62 380.45 Z M 442.27 375.78 C 441.94 375.52 441.49 375.47 441.12 375.65 C 440.74 375.84 440.5 376.22 440.5 376.64 L 440.5 384.27 C 440.5 384.69 440.74 385.07 441.12 385.26 C 441.27 385.33 441.43 385.36 441.59 385.36 C 441.83 385.36 442.08 385.28 442.27 385.12 L 447.05 381.31 C 447.3 381.1 447.45 380.79 447.45 380.45 C 447.45 380.12 447.3 379.81 447.05 379.6 Z M 468.45 372.09 L 468.45 367.81 L 470.59 369.95 Z M 472.91 369.18 L 468.13 364.41 C 467.82 364.1 467.36 364 466.95 364.17 C 466.54 364.34 466.27 364.74 466.27 365.18 L 466.27 368.86 L 457.95 368.86 L 457.95 358.5 C 457.95 357.9 457.47 357.41 456.86 357.41 L 448.47 357.41 L 448.47 359.59 L 455.77 359.59 L 455.77 368.86 L 448.27 368.86 L 448.27 371.04 L 455.77 371.04 L 455.77 380.32 L 448.47 380.32 L 448.47 382.5 L 456.86 382.5 C 457.47 382.5 457.95 382.01 457.95 381.41 L 457.95 371.04 L 466.27 371.04 L 466.27 374.73 C 466.27 375.17 466.54 375.57 466.95 375.74 C 467.08 375.79 467.22 375.82 467.36 375.82 C 467.65 375.82 467.93 375.71 468.13 375.5 L 472.91 370.73 C 473.33 370.3 473.33 369.61 472.91 369.18 Z M 442.68 371.5 L 442.68 368.41 L 444.62 369.95 Z M 442.27 365.28 C 441.94 365.02 441.49 364.97 441.12 365.15 C 440.74 365.34 440.5 365.72 440.5 366.14 L 440.5 373.77 C 440.5 374.19 440.74 374.57 441.12 374.76 C 441.27 374.83 441.43 374.86 441.59 374.86 C 441.83 374.86 442.08 374.78 442.27 374.62 L 447.05 370.81 C 447.3 370.6 447.45 370.29 447.45 369.95 C 447.45 369.62 447.3 369.31 447.05 369.1 Z M 442.68 360.05 L 442.68 356.95 L 444.62 358.5 Z M 442.27 353.83 C 441.94 353.57 441.49 353.52 441.12 353.7 C 440.74 353.88 440.5 354.26 440.5 354.68 L 440.5 362.32 C 440.5 362.74 440.74 363.12 441.12 363.3 C 441.27 363.37 441.43 363.41 441.59 363.41 C 441.83 363.41 442.08 363.33 442.27 363.17 L 447.05 359.35 C 447.3 359.14 447.45 358.83 447.45 358.5 C 447.45 358.17 447.3 357.86 447.05 357.65 Z M 454 390.82 C 441.97 390.82 432.18 381.03 432.18 369 C 432.18 356.97 441.97 347.18 454 347.18 C 466.03 347.18 475.82 356.97 475.82 369 C 475.82 381.03 466.03 390.82 454 390.82 Z M 454 345 C 440.77 345 430 355.77 430 369 C 430 382.23 440.77 393 454 393 C 467.23 393 478 382.23 478 369 C 478 355.77 467.23 345 454 345 Z" fill="#8c4fff" stroke="none" pointer-events="all"/><g transform="translate(-0.5 -0.5)"><switch><foreignObject pointer-events="none" width="100%" height="100%" requiredFeatures="http://www.w3.org/TR/SVG11/feature#Extensibility" style="overflow: visible; text-align: left;"><div xmlns="http://www.w3.org/1999/xhtml" style="display: flex; align-items: unsafe flex-start; justify-content: unsafe center; width: 1px; height: 1px; padding-top: 405px; margin-left: 454px;"><div data-drawio-colors="color: #232F3E; " style="box-sizing: border-box; font-size: 0px; text-align: center;"><div style="display: inline-block; font-size: 9px; font-family: Verdana; color: rgb(35, 47, 62); line-height: 1.2; pointer-events: all; white-space: nowrap;">NAT Gateway</div></div></div></foreignObject><text x="454" y="414" fill="#232F3E" font-family="Verdana" font-size="9px" text-anchor="middle">NAT Gateway</text></switch></g><rect x="270" y="349" width="150" height="40" fill="none" stroke="none" pointer-events="all"/><g transform="translate(-0.5 -0.5)"><switch><foreignObject pointer-events="none" width="100%" height="100%" requiredFeatures="http://www.w3.org/TR/SVG11/feature#Extensibility" style="overflow: visible; text-align: left;"><div xmlns="http://www.w3.org/1999/xhtml" style="display: flex; align-items: unsafe center; justify-content: unsafe flex-end; width: 1px; height: 1px; padding-top: 369px; margin-left: 418px;"><div data-drawio-colors="color: #232F3E; " style="box-sizing: border-box; font-size: 0px; text-align: right;"><div style="display: inline-block; font-size: 10px; font-family: Verdana; color: rgb(35, 47, 62); line-height: 1.2; pointer-events: all; white-space: nowrap;">CloudArchitect-Lab-nat-<br />public1-ap-northeast-2a</div></div></div></foreignObject><text x="418" y="372" fill="#232F3E" font-family="Verdana" font-size="10px" text-anchor="end">CloudArchitect-Lab-nat-...</text></switch></g><rect x="130" y="565" width="240" height="200" fill="none" stroke="#dd3522" pointer-events="all"/><g transform="translate(-0.5 -0.5)"><switch><foreignObject pointer-events="none" width="100%" height="100%" requiredFeatures="http://www.w3.org/TR/SVG11/feature#Extensibility" style="overflow: visible; text-align: left;"><div xmlns="http://www.w3.org/1999/xhtml" style="display: flex; align-items: unsafe flex-start; justify-content: unsafe center; width: 238px; height: 1px; padding-top: 572px; margin-left: 131px;"><div data-drawio-colors="color: #DD3522; " style="box-sizing: border-box; font-size: 0px; text-align: center;"><div style="display: inline-block; font-size: 11px; font-family: Verdana; color: rgb(221, 53, 34); line-height: 1.2; pointer-events: all; white-space: normal; overflow-wrap: normal;">Web-SG</div></div></div></foreignObject><text x="250" y="583" fill="#DD3522" font-family="Verdana" font-size="11px" text-anchor="middle">Web-SG</text></switch></g><rect x="140" y="735" width="180" height="30" fill="none" stroke="none" pointer-events="all"/><g transform="translate(-0.5 -0.5)"><switch><foreignObject pointer-events="none" width="100%" height="100%" requiredFeatures="http://www.w3.org/TR/SVG11/feature#Extensibility" style="overflow: visible; text-align: left;"><div xmlns="http://www.w3.org/1999/xhtml" style="display: flex; align-items: unsafe flex-start; justify-content: unsafe flex-start; width: 1px; height: 1px; padding-top: 742px; margin-left: 142px;"><div data-drawio-colors="color: #333333; " style="box-sizing: border-box; font-size: 0px; text-align: left;"><div style="display: inline-block; font-size: 9px; font-family: Verdana; color: rgb(51, 51, 51); line-height: 1.2; pointer-events: all; white-space: nowrap;">인바운드:<br />HTTP (80), HTTPS (443), SSH (22)</div></div></div></foreignObject><text x="142" y="751" fill="#333333" font-family="Verdana" font-size="9px">인바운드:...</text></switch></g><rect x="710" y="565" width="240" height="200" fill="none" stroke="#dd3522" pointer-events="all"/><g transform="translate(-0.5 -0.5)"><switch><foreignObject pointer-events="none" width="100%" height="100%" requiredFeatures="http://www.w3.org/TR/SVG11/feature#Extensibility" style="overflow: visible; text-align: left;"><div xmlns="http://www.w3.org/1999/xhtml" style="display: flex; align-items: unsafe flex-start; justify-content: unsafe center; width: 238px; height: 1px; padding-top: 572px; margin-left: 711px;"><div data-drawio-colors="color: #DD3522; " style="box-sizing: border-box; font-size: 0px; text-align: center;"><div style="display: inline-block; font-size: 11px; font-family: Verdana; color: rgb(221, 53, 34); line-height: 1.2; pointer-events: all; white-space: normal; overflow-wrap: normal;">DB-SG</div></div></div></foreignObject><text x="830" y="583" fill="#DD3522" font-family="Verdana" font-size="11px" text-anchor="middle">DB-SG</text></switch></g><rect x="720" y="735" width="200" height="30" fill="none" stroke="none" pointer-events="all"/><g transform="translate(-0.5 -0.5)"><switch><foreignObject pointer-events="none" width="100%" height="100%" requiredFeatures="http://www.w3.org/TR/SVG11/feature#Extensibility" style="overflow: visible; text-align: left;"><div xmlns="http://www.w3.org/1999/xhtml" style="display: flex; align-items: unsafe flex-start; justify-content: unsafe flex-start; width: 1px; height: 1px; padding-top: 742px; margin-left: 722px;"><div data-drawio-colors="color: #333333; " style="box-sizing: border-box; font-size: 0px; text-align: left;"><div style="display: inline-block; font-size: 9px; font-family: Verdana; color: rgb(51, 51, 51); line-height: 1.2; pointer-events: all; white-space: nowrap;">인바운드:<br />MySQL/Aurora (3306) from Web-SG</div></div></div></foreignObject><text x="722" y="751" fill="#333333" font-family="Verdana" font-size="9px">인바운드:...</text></switch></g><rect x="1130" y="260" width="40" height="40" fill="none" stroke="none" pointer-events="all"/><path d="M 1131.82 297.78 L 1168.18 297.78 L 1168.18 289.26 L 1131.82 289.26 Z M 1170 288.35 L 1170 298.69 C 1170 299.2 1169.59 299.6 1169.09 299.6 L 1130.91 299.6 C 1130.41 299.6 1130 299.2 1130 298.69 L 1130 288.35 C 1130 287.85 1130.41 287.44 1130.91 287.44 L 1169.09 287.44 C 1169.59 287.44 1170 287.85 1170 288.35 Z M 1131.82 284.26 L 1168.18 284.26 L 1168.18 275.74 L 1131.82 275.74 Z M 1170 274.83 L 1170 285.17 C 1170 285.67 1169.59 286.08 1169.09 286.08 L 1130.91 286.08 C 1130.41 286.08 1130 285.67 1130 285.17 L 1130 274.83 C 1130 274.33 1130.41 273.92 1130.91 273.92 L 1169.09 273.92 C 1169.59 273.92 1170 274.33 1170 274.83 Z M 1131.82 270.74 L 1168.18 270.74 L 1168.18 262.22 L 1131.82 262.22 Z M 1170 261.31 L 1170 271.65 C 1170 272.15 1169.59 272.56 1169.09 272.56 L 1130.91 272.56 C 1130.41 272.56 1130 272.15 1130 271.65 L 1130 261.31 C 1130 260.8 1130.41 260.4 1130.91 260.4 L 1169.09 260.4 C 1169.59 260.4 1170 260.8 1170 261.31 Z M 1164.04 293.55 C 1164.04 294.33 1164.12 294.89 1164.26 295.24 C 1164.41 295.59 1164.64 295.76 1164.96 295.76 C 1165.28 295.76 1165.52 295.59 1165.66 295.24 C 1165.81 294.89 1165.88 294.33 1165.88 293.55 C 1165.88 292.77 1165.81 292.21 1165.66 291.86 C 1165.52 291.51 1165.28 291.33 1164.96 291.33 C 1164.64 291.33 1164.41 291.51 1164.26 291.86 C 1164.12 292.21 1164.04 292.77 1164.04 293.55 Z M 1163.67 295.68 C 1163.37 295.19 1163.22 294.48 1163.22 293.55 C 1163.22 292.61 1163.37 291.9 1163.67 291.42 C 1163.96 290.93 1164.39 290.69 1164.96 290.69 C 1165.53 290.69 1165.96 290.93 1166.26 291.42 C 1166.56 291.9 1166.7 292.61 1166.7 293.55 C 1166.7 294.48 1166.56 295.2 1166.26 295.68 C 1165.96 296.17 1165.53 296.41 1164.96 296.41 C 1164.39 296.41 1163.96 296.17 1163.67 295.68 Z M 1161.96 296.39 C 1162.11 296.39 1162.23 296.34 1162.32 296.25 C 1162.42 296.15 1162.46 296.03 1162.46 295.88 C 1162.46 295.72 1162.42 295.6 1162.32 295.51 C 1162.23 295.41 1162.11 295.37 1161.96 295.37 C 1161.8 295.37 1161.68 295.41 1161.59 295.51 C 1161.5 295.6 1161.45 295.72 1161.45 295.88 C 1161.45 296.03 1161.5 296.15 1161.59 296.25 C 1161.68 296.34 1161.8 296.39 1161.96 296.39 Z M 1160.57 295.65 L 1158.27 295.65 C 1158.92 294.85 1159.39 294.26 1159.66 293.88 C 1159.93 293.49 1160.11 293.17 1160.21 292.91 C 1160.32 292.65 1160.37 292.4 1160.37 292.15 C 1160.37 291.69 1160.25 291.33 1160 291.08 C 1159.76 290.82 1159.42 290.69 1158.99 290.69 C 1158.74 290.69 1158.5 290.73 1158.26 290.81 C 1158.03 290.9 1157.78 291.03 1157.53 291.21 L 1157.53 291.88 C 1158.06 291.54 1158.51 291.37 1158.85 291.37 C 1159.31 291.37 1159.54 291.65 1159.54 292.2 C 1159.54 292.45 1159.47 292.71 1159.35 292.99 C 1159.21 293.27 1159 293.61 1158.7 294.03 C 1158.4 294.44 1157.97 295 1157.4 295.71 L 1157.4 296.31 L 1160.57 296.31 Z M 1155.94 296.39 C 1156.09 296.39 1156.21 296.34 1156.31 296.25 C 1156.4 296.15 1156.45 296.03 1156.45 295.88 C 1156.45 295.72 1156.4 295.6 1156.31 295.51 C 1156.21 295.41 1156.09 295.37 1155.94 295.37 C 1155.79 295.37 1155.67 295.41 1155.57 295.51 C 1155.48 295.6 1155.43 295.72 1155.43 295.88 C 1155.43 296.03 1155.48 296.15 1155.57 296.25 C 1155.67 296.34 1155.79 296.39 1155.94 296.39 Z M 1152.08 293.88 C 1152.08 294.54 1152.15 295.02 1152.3 295.32 C 1152.45 295.63 1152.69 295.78 1153.01 295.78 C 1153.54 295.78 1153.81 295.41 1153.81 294.66 C 1153.81 294.31 1153.74 294.05 1153.6 293.87 C 1153.46 293.69 1153.25 293.59 1152.97 293.59 C 1152.68 293.59 1152.38 293.67 1152.08 293.82 Z M 1151.7 295.75 C 1151.42 295.32 1151.28 294.64 1151.28 293.73 C 1151.28 292.75 1151.45 292 1151.79 291.47 C 1152.12 290.95 1152.6 290.69 1153.22 290.69 C 1153.41 290.69 1153.6 290.71 1153.8 290.76 C 1153.99 290.81 1154.16 290.87 1154.31 290.95 L 1154.31 291.53 C 1154.17 291.47 1154.01 291.42 1153.83 291.38 C 1153.65 291.34 1153.48 291.32 1153.32 291.32 C 1152.92 291.32 1152.62 291.48 1152.42 291.79 C 1152.23 292.11 1152.11 292.61 1152.09 293.3 C 1152.45 293.09 1152.82 292.98 1153.2 292.98 C 1153.63 292.98 1153.97 293.13 1154.23 293.43 C 1154.49 293.72 1154.61 294.12 1154.61 294.61 C 1154.61 295.16 1154.47 295.6 1154.17 295.92 C 1153.88 296.25 1153.48 296.41 1152.98 296.41 C 1152.41 296.41 1151.98 296.19 1151.7 295.75 Z M 1148.78 296.31 L 1149.59 296.31 L 1149.59 290.79 L 1148.85 290.79 L 1147.52 291.55 L 1147.52 292.2 L 1148.78 291.6 Z M 1145.82 296.39 C 1145.97 296.39 1146.09 296.34 1146.19 296.25 C 1146.28 296.15 1146.33 296.03 1146.33 295.88 C 1146.33 295.72 1146.28 295.6 1146.19 295.51 C 1146.09 295.41 1145.97 295.37 1145.82 295.37 C 1145.67 295.37 1145.54 295.41 1145.45 295.51 C 1145.36 295.6 1145.31 295.72 1145.31 295.88 C 1145.31 296.03 1145.36 296.15 1145.45 296.25 C 1145.54 296.34 1145.67 296.39 1145.82 296.39 Z M 1144.43 295.65 L 1142.13 295.65 C 1142.79 294.85 1143.25 294.26 1143.52 293.88 C 1143.79 293.49 1143.98 293.17 1144.08 292.91 C 1144.18 292.65 1144.23 292.4 1144.23 292.15 C 1144.23 291.69 1144.11 291.33 1143.87 291.08 C 1143.62 290.82 1143.29 290.69 1142.85 290.69 C 1142.6 290.69 1142.36 290.73 1142.13 290.81 C 1141.89 290.9 1141.64 291.03 1141.39 291.21 L 1141.39 291.88 C 1141.93 291.54 1142.37 291.37 1142.72 291.37 C 1143.17 291.37 1143.4 291.65 1143.4 292.2 C 1143.4 292.45 1143.34 292.71 1143.21 292.99 C 1143.08 293.27 1142.86 293.61 1142.57 294.03 C 1142.27 294.44 1141.83 295 1141.26 295.71 L 1141.26 296.31 L 1144.43 296.31 Z M 1137.67 296.31 L 1138.5 296.31 L 1140.27 291.38 L 1140.27 290.79 L 1137.04 290.79 L 1137.04 291.45 L 1139.46 291.45 Z M 1134.55 296.31 L 1135.36 296.31 L 1135.36 290.79 L 1134.62 290.79 L 1133.3 291.55 L 1133.3 292.2 L 1134.55 291.6 Z M 1164.04 279.73 C 1164.04 280.51 1164.12 281.07 1164.26 281.42 C 1164.41 281.77 1164.64 281.95 1164.96 281.95 C 1165.28 281.95 1165.52 281.77 1165.66 281.42 C 1165.81 281.07 1165.88 280.51 1165.88 279.73 C 1165.88 278.96 1165.81 278.39 1165.66 278.04 C 1165.52 277.69 1165.28 277.52 1164.96 277.52 C 1164.64 277.52 1164.41 277.69 1164.26 278.04 C 1164.12 278.39 1164.04 278.96 1164.04 279.73 Z M 1163.67 281.86 C 1163.37 281.37 1163.22 280.66 1163.22 279.73 C 1163.22 278.8 1163.37 278.09 1163.67 277.6 C 1163.96 277.12 1164.39 276.87 1164.96 276.87 C 1165.53 276.87 1165.96 277.12 1166.26 277.6 C 1166.56 278.09 1166.7 278.8 1166.7 279.73 C 1166.7 280.67 1166.56 281.38 1166.26 281.87 C 1165.96 282.35 1165.53 282.59 1164.96 282.59 C 1164.39 282.59 1163.96 282.35 1163.67 281.86 Z M 1161.96 282.57 C 1162.11 282.57 1162.23 282.52 1162.32 282.43 C 1162.42 282.34 1162.46 282.21 1162.46 282.06 C 1162.46 281.91 1162.42 281.78 1162.32 281.69 C 1162.23 281.6 1162.11 281.55 1161.96 281.55 C 1161.8 281.55 1161.68 281.6 1161.59 281.69 C 1161.5 281.78 1161.45 281.91 1161.45 282.06 C 1161.45 282.21 1161.5 282.34 1161.59 282.43 C 1161.68 282.52 1161.8 282.57 1161.96 282.57 Z M 1158.9 282.49 L 1159.71 282.49 L 1159.71 276.98 L 1158.97 276.98 L 1157.65 277.73 L 1157.65 278.38 L 1158.9 277.79 Z M 1155.94 282.57 C 1156.09 282.57 1156.21 282.52 1156.31 282.43 C 1156.4 282.34 1156.45 282.21 1156.45 282.06 C 1156.45 281.91 1156.4 281.78 1156.31 281.69 C 1156.21 281.6 1156.09 281.55 1155.94 281.55 C 1155.79 281.55 1155.67 281.6 1155.57 281.69 C 1155.48 281.78 1155.43 281.91 1155.43 282.06 C 1155.43 282.21 1155.48 282.34 1155.57 282.43 C 1155.67 282.52 1155.79 282.57 1155.94 282.57 Z M 1152.08 280.06 C 1152.08 280.72 1152.15 281.2 1152.3 281.51 C 1152.45 281.81 1152.69 281.96 1153.01 281.96 C 1153.54 281.96 1153.81 281.59 1153.81 280.84 C 1153.81 280.5 1153.74 280.23 1153.6 280.05 C 1153.46 279.87 1153.25 279.78 1152.97 279.78 C 1152.68 279.78 1152.38 279.85 1152.08 280 Z M 1151.7 281.94 C 1151.42 281.5 1151.28 280.82 1151.28 279.91 C 1151.28 278.93 1151.45 278.18 1151.79 277.66 C 1152.12 277.13 1152.6 276.87 1153.22 276.87 C 1153.41 276.87 1153.6 276.9 1153.8 276.95 C 1153.99 276.99 1154.16 277.06 1154.31 277.14 L 1154.31 277.72 C 1154.17 277.65 1154.01 277.6 1153.83 277.56 C 1153.65 277.52 1153.48 277.5 1153.32 277.5 C 1152.92 277.5 1152.62 277.66 1152.42 277.98 C 1152.23 278.29 1152.11 278.79 1152.09 279.48 C 1152.45 279.27 1152.82 279.16 1153.2 279.16 C 1153.63 279.16 1153.97 279.31 1154.23 279.61 C 1154.49 279.91 1154.61 280.3 1154.61 280.8 C 1154.61 281.35 1154.47 281.78 1154.17 282.11 C 1153.88 282.43 1153.48 282.59 1152.98 282.59 C 1152.41 282.59 1151.98 282.37 1151.7 281.94 Z M 1148.78 282.49 L 1149.59 282.49 L 1149.59 276.98 L 1148.85 276.98 L 1147.52 277.73 L 1147.52 278.38 L 1148.78 277.79 Z M 1145.82 282.57 C 1145.97 282.57 1146.09 282.52 1146.19 282.43 C 1146.28 282.34 1146.33 282.21 1146.33 282.06 C 1146.33 281.91 1146.28 281.78 1146.19 281.69 C 1146.09 281.6 1145.97 281.55 1145.82 281.55 C 1145.67 281.55 1145.54 281.6 1145.45 281.69 C 1145.36 281.78 1145.31 281.91 1145.31 282.06 C 1145.31 282.21 1145.36 282.34 1145.45 282.43 C 1145.54 282.52 1145.67 282.57 1145.82 282.57 Z M 1144.43 281.83 L 1142.13 281.83 C 1142.79 281.03 1143.25 280.44 1143.52 280.06 C 1143.79 279.68 1143.98 279.35 1144.08 279.09 C 1144.18 278.83 1144.23 278.58 1144.23 278.34 C 1144.23 277.88 1144.11 277.52 1143.87 277.26 C 1143.62 277 1143.29 276.87 1142.85 276.87 C 1142.6 276.87 1142.36 276.91 1142.13 277 C 1141.89 277.08 1141.64 277.21 1141.39 277.39 L 1141.39 278.07 C 1141.93 277.73 1142.37 277.56 1142.72 277.56 C 1143.17 277.56 1143.4 277.83 1143.4 278.38 C 1143.4 278.63 1143.34 278.9 1143.21 279.17 C 1143.08 279.45 1142.86 279.79 1142.57 280.21 C 1142.27 280.63 1141.83 281.19 1141.26 281.89 L 1141.26 282.49 L 1144.43 282.49 Z M 1137.67 282.49 L 1138.5 282.49 L 1140.27 277.57 L 1140.27 276.98 L 1137.04 276.98 L 1137.04 277.64 L 1139.46 277.64 Z M 1134.55 282.49 L 1135.36 282.49 L 1135.36 276.98 L 1134.62 276.98 L 1133.3 277.73 L 1133.3 278.38 L 1134.55 277.79 Z M 1164.04 266.69 C 1164.04 267.47 1164.12 268.04 1164.26 268.39 C 1164.41 268.74 1164.64 268.91 1164.96 268.91 C 1165.28 268.91 1165.52 268.74 1165.66 268.39 C 1165.81 268.04 1165.88 267.47 1165.88 266.69 C 1165.88 265.92 1165.81 265.36 1165.66 265.01 C 1165.52 264.66 1165.28 264.48 1164.96 264.48 C 1164.64 264.48 1164.41 264.66 1164.26 265.01 C 1164.12 265.36 1164.04 265.92 1164.04 266.69 Z M 1163.67 268.83 C 1163.37 268.34 1163.22 267.63 1163.22 266.69 C 1163.22 265.76 1163.37 265.05 1163.67 264.57 C 1163.96 264.08 1164.39 263.84 1164.96 263.84 C 1165.53 263.84 1165.96 264.08 1166.26 264.57 C 1166.56 265.05 1166.7 265.76 1166.7 266.69 C 1166.7 267.63 1166.56 268.34 1166.26 268.83 C 1165.96 269.32 1165.53 269.56 1164.96 269.56 C 1164.39 269.56 1163.96 269.31 1163.67 268.83 Z M 1161.96 269.53 C 1162.11 269.53 1162.23 269.49 1162.32 269.39 C 1162.42 269.3 1162.46 269.18 1162.46 269.02 C 1162.46 268.87 1162.42 268.75 1162.32 268.65 C 1162.23 268.56 1162.11 268.52 1161.96 268.52 C 1161.8 268.52 1161.68 268.56 1161.59 268.65 C 1161.5 268.75 1161.45 268.87 1161.45 269.02 C 1161.45 269.18 1161.5 269.3 1161.59 269.39 C 1161.68 269.49 1161.8 269.53 1161.96 269.53 Z M 1158.03 266.69 C 1158.03 267.47 1158.1 268.04 1158.25 268.39 C 1158.39 268.74 1158.63 268.91 1158.95 268.91 C 1159.27 268.91 1159.5 268.74 1159.65 268.39 C 1159.8 268.04 1159.87 267.47 1159.87 266.69 C 1159.87 265.92 1159.8 265.36 1159.65 265.01 C 1159.5 264.66 1159.27 264.48 1158.95 264.48 C 1158.63 264.48 1158.39 264.66 1158.25 265.01 C 1158.1 265.36 1158.03 265.92 1158.03 266.69 Z M 1157.65 268.83 C 1157.35 268.34 1157.21 267.63 1157.21 266.69 C 1157.21 265.76 1157.35 265.05 1157.65 264.57 C 1157.95 264.08 1158.38 263.84 1158.95 263.84 C 1159.52 263.84 1159.95 264.08 1160.24 264.57 C 1160.54 265.05 1160.69 265.76 1160.69 266.69 C 1160.69 267.63 1160.54 268.34 1160.24 268.83 C 1159.95 269.32 1159.52 269.56 1158.95 269.56 C 1158.38 269.56 1157.95 269.31 1157.65 268.83 Z M 1155.94 269.53 C 1156.09 269.53 1156.21 269.49 1156.31 269.39 C 1156.4 269.3 1156.45 269.18 1156.45 269.02 C 1156.45 268.87 1156.4 268.75 1156.31 268.65 C 1156.21 268.56 1156.09 268.52 1155.94 268.52 C 1155.79 268.52 1155.67 268.56 1155.57 268.65 C 1155.48 268.75 1155.43 268.87 1155.43 269.02 C 1155.43 269.18 1155.48 269.3 1155.57 269.39 C 1155.67 269.49 1155.79 269.53 1155.94 269.53 Z M 1152.08 267.03 C 1152.08 267.69 1152.15 268.17 1152.3 268.47 C 1152.45 268.78 1152.69 268.93 1153.01 268.93 C 1153.54 268.93 1153.81 268.56 1153.81 267.81 C 1153.81 267.46 1153.74 267.2 1153.6 267.02 C 1153.46 266.83 1153.25 266.74 1152.97 266.74 C 1152.68 266.74 1152.38 266.82 1152.08 266.97 Z M 1151.7 268.9 C 1151.42 268.46 1151.28 267.79 1151.28 266.88 C 1151.28 265.9 1151.45 265.14 1151.79 264.62 C 1152.12 264.1 1152.6 263.84 1153.22 263.84 C 1153.41 263.84 1153.6 263.86 1153.8 263.91 C 1153.99 263.96 1154.16 264.02 1154.31 264.1 L 1154.31 264.68 C 1154.17 264.62 1154.01 264.57 1153.83 264.53 C 1153.65 264.49 1153.48 264.47 1153.32 264.47 C 1152.92 264.47 1152.62 264.62 1152.42 264.94 C 1152.23 265.26 1152.11 265.76 1152.09 266.45 C 1152.45 266.24 1152.82 266.13 1153.2 266.13 C 1153.63 266.13 1153.97 266.28 1154.23 266.57 C 1154.49 266.87 1154.61 267.27 1154.61 267.76 C 1154.61 268.31 1154.47 268.75 1154.17 269.07 C 1153.88 269.4 1153.48 269.56 1152.98 269.56 C 1152.41 269.56 1151.98 269.34 1151.7 268.9 Z M 1148.78 269.45 L 1149.59 269.45 L 1149.59 263.94 L 1148.85 263.94 L 1147.52 264.7 L 1147.52 265.35 L 1148.78 264.75 Z M 1145.82 269.53 C 1145.97 269.53 1146.09 269.49 1146.19 269.39 C 1146.28 269.3 1146.33 269.18 1146.33 269.02 C 1146.33 268.87 1146.28 268.75 1146.19 268.65 C 1146.09 268.56 1145.97 268.52 1145.82 268.52 C 1145.67 268.52 1145.54 268.56 1145.45 268.65 C 1145.36 268.75 1145.31 268.87 1145.31 269.02 C 1145.31 269.18 1145.36 269.3 1145.45 269.39 C 1145.54 269.49 1145.67 269.53 1145.82 269.53 Z M 1144.43 268.79 L 1142.13 268.79 C 1142.79 268 1143.25 267.41 1143.52 267.02 C 1143.79 266.64 1143.98 266.32 1144.08 266.06 C 1144.18 265.8 1144.23 265.55 1144.23 265.3 C 1144.23 264.84 1144.11 264.48 1143.87 264.22 C 1143.62 263.97 1143.29 263.84 1142.85 263.84 C 1142.6 263.84 1142.36 263.88 1142.13 263.96 C 1141.89 264.04 1141.64 264.18 1141.39 264.36 L 1141.39 265.03 C 1141.93 264.69 1142.37 264.52 1142.72 264.52 C 1143.17 264.52 1143.4 264.8 1143.4 265.35 C 1143.4 265.6 1143.34 265.86 1143.21 266.14 C 1143.08 266.41 1142.86 266.76 1142.57 267.18 C 1142.27 267.59 1141.83 268.15 1141.26 268.86 L 1141.26 269.45 L 1144.43 269.45 Z M 1137.67 269.45 L 1138.5 269.45 L 1140.27 264.53 L 1140.27 263.94 L 1137.04 263.94 L 1137.04 264.6 L 1139.46 264.6 Z M 1134.55 264.75 L 1133.3 265.35 L 1133.3 264.7 L 1134.62 263.94 L 1135.36 263.94 L 1135.36 269.45 L 1134.55 269.45 Z" fill="#8c4fff" stroke="none" pointer-events="all"/><g transform="translate(-0.5 -0.5)"><switch><foreignObject pointer-events="none" width="100%" height="100%" requiredFeatures="http://www.w3.org/TR/SVG11/feature#Extensibility" style="overflow: visible; text-align: left;"><div xmlns="http://www.w3.org/1999/xhtml" style="display: flex; align-items: unsafe flex-start; justify-content: unsafe center; width: 1px; height: 1px; padding-top: 312px; margin-left: 1150px;"><div data-drawio-colors="color: #232F3E; " style="box-sizing: border-box; font-size: 0px; text-align: center;"><div style="display: inline-block; font-size: 10px; font-family: Verdana; color: rgb(35, 47, 62); line-height: 1.2; pointer-events: all; white-space: nowrap;">Public RT</div></div></div></foreignObject><text x="1150" y="322" fill="#232F3E" font-family="Verdana" font-size="10px" text-anchor="middle">Public RT</text></switch></g><rect x="1000" y="330" width="170" height="40" fill="none" stroke="none" pointer-events="all"/><g transform="translate(-0.5 -0.5)"><switch><foreignObject pointer-events="none" width="100%" height="100%" requiredFeatures="http://www.w3.org/TR/SVG11/feature#Extensibility" style="overflow: visible; text-align: left;"><div xmlns="http://www.w3.org/1999/xhtml" style="display: flex; align-items: unsafe flex-start; justify-content: unsafe flex-end; width: 1px; height: 1px; padding-top: 337px; margin-left: 1168px;"><div data-drawio-colors="color: #232F3E; " style="box-sizing: border-box; font-size: 0px; text-align: right;"><div style="display: inline-block; font-size: 10px; font-family: Verdana; color: rgb(35, 47, 62); line-height: 1.2; pointer-events: all; white-space: nowrap;">CloudArchitect-Lab-rtb-public<br />0.0.0.0/0 → IGW</div></div></div></foreignObject><text x="1168" y="347" fill="#232F3E" font-family="Verdana" font-size="10px" text-anchor="end">CloudArchitect-Lab-rtb-public...</text></switch></g><rect x="540" y="495" width="40" height="40" fill="none" stroke="none" pointer-events="all"/><path d="M 541.82 532.78 L 578.18 532.78 L 578.18 524.26 L 541.82 524.26 Z M 580 523.35 L 580 533.69 C 580 534.2 579.59 534.6 579.09 534.6 L 540.91 534.6 C 540.41 534.6 540 534.2 540 533.69 L 540 523.35 C 540 522.85 540.41 522.44 540.91 522.44 L 579.09 522.44 C 579.59 522.44 580 522.85 580 523.35 Z M 541.82 519.26 L 578.18 519.26 L 578.18 510.74 L 541.82 510.74 Z M 580 509.83 L 580 520.17 C 580 520.67 579.59 521.08 579.09 521.08 L 540.91 521.08 C 540.41 521.08 540 520.67 540 520.17 L 540 509.83 C 540 509.33 540.41 508.92 540.91 508.92 L 579.09 508.92 C 579.59 508.92 580 509.33 580 509.83 Z M 541.82 505.74 L 578.18 505.74 L 578.18 497.22 L 541.82 497.22 Z M 580 496.31 L 580 506.65 C 580 507.15 579.59 507.56 579.09 507.56 L 540.91 507.56 C 540.41 507.56 540 507.15 540 506.65 L 540 496.31 C 540 495.8 540.41 495.4 540.91 495.4 L 579.09 495.4 C 579.59 495.4 580 495.8 580 496.31 Z M 574.04 528.55 C 574.04 529.33 574.12 529.89 574.26 530.24 C 574.41 530.59 574.64 530.76 574.96 530.76 C 575.28 530.76 575.52 530.59 575.66 530.24 C 575.81 529.89 575.88 529.33 575.88 528.55 C 575.88 527.77 575.81 527.21 575.66 526.86 C 575.52 526.51 575.28 526.33 574.96 526.33 C 574.64 526.33 574.41 526.51 574.26 526.86 C 574.12 527.21 574.04 527.77 574.04 528.55 Z M 573.67 530.68 C 573.37 530.19 573.22 529.48 573.22 528.55 C 573.22 527.61 573.37 526.9 573.67 526.42 C 573.96 525.93 574.39 525.69 574.96 525.69 C 575.53 525.69 575.96 525.93 576.26 526.42 C 576.56 526.9 576.7 527.61 576.7 528.55 C 576.7 529.48 576.56 530.2 576.26 530.68 C 575.96 531.17 575.53 531.41 574.96 531.41 C 574.39 531.41 573.96 531.17 573.67 530.68 Z M 571.96 531.39 C 572.11 531.39 572.23 531.34 572.32 531.25 C 572.42 531.15 572.46 531.03 572.46 530.88 C 572.46 530.72 572.42 530.6 572.32 530.51 C 572.23 530.41 572.11 530.37 571.96 530.37 C 571.8 530.37 571.68 530.41 571.59 530.51 C 571.5 530.6 571.45 530.72 571.45 530.88 C 571.45 531.03 571.5 531.15 571.59 531.25 C 571.68 531.34 571.8 531.39 571.96 531.39 Z M 570.57 530.65 L 568.27 530.65 C 568.92 529.85 569.39 529.26 569.66 528.88 C 569.93 528.49 570.11 528.17 570.21 527.91 C 570.32 527.65 570.37 527.4 570.37 527.15 C 570.37 526.69 570.25 526.33 570 526.08 C 569.76 525.82 569.42 525.69 568.99 525.69 C 568.74 525.69 568.5 525.73 568.26 525.81 C 568.03 525.9 567.78 526.03 567.53 526.21 L 567.53 526.88 C 568.06 526.54 568.51 526.37 568.85 526.37 C 569.31 526.37 569.54 526.65 569.54 527.2 C 569.54 527.45 569.47 527.71 569.35 527.99 C 569.21 528.27 569 528.61 568.7 529.03 C 568.4 529.44 567.97 530 567.4 530.71 L 567.4 531.31 L 570.57 531.31 Z M 565.94 531.39 C 566.09 531.39 566.21 531.34 566.31 531.25 C 566.4 531.15 566.45 531.03 566.45 530.88 C 566.45 530.72 566.4 530.6 566.31 530.51 C 566.21 530.41 566.09 530.37 565.94 530.37 C 565.79 530.37 565.67 530.41 565.57 530.51 C 565.48 530.6 565.43 530.72 565.43 530.88 C 565.43 531.03 565.48 531.15 565.57 531.25 C 565.67 531.34 565.79 531.39 565.94 531.39 Z M 562.08 528.88 C 562.08 529.54 562.15 530.02 562.3 530.32 C 562.45 530.63 562.69 530.78 563.01 530.78 C 563.54 530.78 563.81 530.41 563.81 529.66 C 563.81 529.31 563.74 529.05 563.6 528.87 C 563.46 528.69 563.25 528.59 562.97 528.59 C 562.68 528.59 562.38 528.67 562.08 528.82 Z M 561.7 530.75 C 561.42 530.32 561.28 529.64 561.28 528.73 C 561.28 527.75 561.45 527 561.79 526.47 C 562.12 525.95 562.6 525.69 563.22 525.69 C 563.41 525.69 563.6 525.71 563.8 525.76 C 563.99 525.81 564.16 525.87 564.31 525.95 L 564.31 526.53 C 564.17 526.47 564.01 526.42 563.83 526.38 C 563.65 526.34 563.48 526.32 563.32 526.32 C 562.92 526.32 562.62 526.48 562.42 526.79 C 562.23 527.11 562.11 527.61 562.09 528.3 C 562.45 528.09 562.82 527.98 563.2 527.98 C 563.63 527.98 563.97 528.13 564.23 528.43 C 564.49 528.72 564.61 529.12 564.61 529.61 C 564.61 530.16 564.47 530.6 564.17 530.92 C 563.88 531.25 563.48 531.41 562.98 531.41 C 562.41 531.41 561.98 531.19 561.7 530.75 Z M 558.78 531.31 L 559.59 531.31 L 559.59 525.79 L 558.85 525.79 L 557.52 526.55 L 557.52 527.2 L 558.78 526.6 Z M 555.82 531.39 C 555.97 531.39 556.09 531.34 556.19 531.25 C 556.28 531.15 556.33 531.03 556.33 530.88 C 556.33 530.72 556.28 530.6 556.19 530.51 C 556.09 530.41 555.97 530.37 555.82 530.37 C 555.67 530.37 555.54 530.41 555.45 530.51 C 555.36 530.6 555.31 530.72 555.31 530.88 C 555.31 531.03 555.36 531.15 555.45 531.25 C 555.54 531.34 555.67 531.39 555.82 531.39 Z M 554.43 530.65 L 552.13 530.65 C 552.79 529.85 553.25 529.26 553.52 528.88 C 553.79 528.49 553.98 528.17 554.08 527.91 C 554.18 527.65 554.23 527.4 554.23 527.15 C 554.23 526.69 554.11 526.33 553.87 526.08 C 553.62 525.82 553.29 525.69 552.85 525.69 C 552.6 525.69 552.36 525.73 552.13 525.81 C 551.89 525.9 551.64 526.03 551.39 526.21 L 551.39 526.88 C 551.93 526.54 552.37 526.37 552.72 526.37 C 553.17 526.37 553.4 526.65 553.4 527.2 C 553.4 527.45 553.34 527.71 553.21 527.99 C 553.08 528.27 552.86 528.61 552.57 529.03 C 552.27 529.44 551.83 530 551.26 530.71 L 551.26 531.31 L 554.43 531.31 Z M 547.67 531.31 L 548.5 531.31 L 550.27 526.38 L 550.27 525.79 L 547.04 525.79 L 547.04 526.45 L 549.46 526.45 Z M 544.55 531.31 L 545.36 531.31 L 545.36 525.79 L 544.62 525.79 L 543.3 526.55 L 543.3 527.2 L 544.55 526.6 Z M 574.04 514.73 C 574.04 515.51 574.12 516.07 574.26 516.42 C 574.41 516.77 574.64 516.95 574.96 516.95 C 575.28 516.95 575.52 516.77 575.66 516.42 C 575.81 516.07 575.88 515.51 575.88 514.73 C 575.88 513.96 575.81 513.39 575.66 513.04 C 575.52 512.69 575.28 512.52 574.96 512.52 C 574.64 512.52 574.41 512.69 574.26 513.04 C 574.12 513.39 574.04 513.96 574.04 514.73 Z M 573.67 516.86 C 573.37 516.37 573.22 515.66 573.22 514.73 C 573.22 513.8 573.37 513.09 573.67 512.6 C 573.96 512.12 574.39 511.87 574.96 511.87 C 575.53 511.87 575.96 512.12 576.26 512.6 C 576.56 513.09 576.7 513.8 576.7 514.73 C 576.7 515.67 576.56 516.38 576.26 516.87 C 575.96 517.35 575.53 517.59 574.96 517.59 C 574.39 517.59 573.96 517.35 573.67 516.86 Z M 571.96 517.57 C 572.11 517.57 572.23 517.52 572.32 517.43 C 572.42 517.34 572.46 517.21 572.46 517.06 C 572.46 516.91 572.42 516.78 572.32 516.69 C 572.23 516.6 572.11 516.55 571.96 516.55 C 571.8 516.55 571.68 516.6 571.59 516.69 C 571.5 516.78 571.45 516.91 571.45 517.06 C 571.45 517.21 571.5 517.34 571.59 517.43 C 571.68 517.52 571.8 517.57 571.96 517.57 Z M 568.9 517.49 L 569.71 517.49 L 569.71 511.98 L 568.97 511.98 L 567.65 512.73 L 567.65 513.38 L 568.9 512.79 Z M 565.94 517.57 C 566.09 517.57 566.21 517.52 566.31 517.43 C 566.4 517.34 566.45 517.21 566.45 517.06 C 566.45 516.91 566.4 516.78 566.31 516.69 C 566.21 516.6 566.09 516.55 565.94 516.55 C 565.79 516.55 565.67 516.6 565.57 516.69 C 565.48 516.78 565.43 516.91 565.43 517.06 C 565.43 517.21 565.48 517.34 565.57 517.43 C 565.67 517.52 565.79 517.57 565.94 517.57 Z M 562.08 515.06 C 562.08 515.72 562.15 516.2 562.3 516.51 C 562.45 516.81 562.69 516.96 563.01 516.96 C 563.54 516.96 563.81 516.59 563.81 515.84 C 563.81 515.5 563.74 515.23 563.6 515.05 C 563.46 514.87 563.25 514.78 562.97 514.78 C 562.68 514.78 562.38 514.85 562.08 515 Z M 561.7 516.94 C 561.42 516.5 561.28 515.82 561.28 514.91 C 561.28 513.93 561.45 513.18 561.79 512.66 C 562.12 512.13 562.6 511.87 563.22 511.87 C 563.41 511.87 563.6 511.9 563.8 511.95 C 563.99 511.99 564.16 512.06 564.31 512.14 L 564.31 512.72 C 564.17 512.65 564.01 512.6 563.83 512.56 C 563.65 512.52 563.48 512.5 563.32 512.5 C 562.92 512.5 562.62 512.66 562.42 512.98 C 562.23 513.29 562.11 513.79 562.09 514.48 C 562.45 514.27 562.82 514.16 563.2 514.16 C 563.63 514.16 563.97 514.31 564.23 514.61 C 564.49 514.91 564.61 515.3 564.61 515.8 C 564.61 516.35 564.47 516.78 564.17 517.11 C 563.88 517.43 563.48 517.59 562.98 517.59 C 562.41 517.59 561.98 517.37 561.7 516.94 Z M 558.78 517.49 L 559.59 517.49 L 559.59 511.98 L 558.85 511.98 L 557.52 512.73 L 557.52 513.38 L 558.78 512.79 Z M 555.82 517.57 C 555.97 517.57 556.09 517.52 556.19 517.43 C 556.28 517.34 556.33 517.21 556.33 517.06 C 556.33 516.91 556.28 516.78 556.19 516.69 C 556.09 516.6 555.97 516.55 555.82 516.55 C 555.67 516.55 555.54 516.6 555.45 516.69 C 555.36 516.78 555.31 516.91 555.31 517.06 C 555.31 517.21 555.36 517.34 555.45 517.43 C 555.54 517.52 555.67 517.57 555.82 517.57 Z M 554.43 516.83 L 552.13 516.83 C 552.79 516.03 553.25 515.44 553.52 515.06 C 553.79 514.68 553.98 514.35 554.08 514.09 C 554.18 513.83 554.23 513.58 554.23 513.34 C 554.23 512.88 554.11 512.52 553.87 512.26 C 553.62 512 553.29 511.87 552.85 511.87 C 552.6 511.87 552.36 511.91 552.13 512 C 551.89 512.08 551.64 512.21 551.39 512.39 L 551.39 513.07 C 551.93 512.73 552.37 512.56 552.72 512.56 C 553.17 512.56 553.4 512.83 553.4 513.38 C 553.4 513.63 553.34 513.9 553.21 514.17 C 553.08 514.45 552.86 514.79 552.57 515.21 C 552.27 515.63 551.83 516.19 551.26 516.89 L 551.26 517.49 L 554.43 517.49 Z M 547.67 517.49 L 548.5 517.49 L 550.27 512.57 L 550.27 511.98 L 547.04 511.98 L 547.04 512.64 L 549.46 512.64 Z M 544.55 517.49 L 545.36 517.49 L 545.36 511.98 L 544.62 511.98 L 543.3 512.73 L 543.3 513.38 L 544.55 512.79 Z M 574.04 501.69 C 574.04 502.47 574.12 503.04 574.26 503.39 C 574.41 503.74 574.64 503.91 574.96 503.91 C 575.28 503.91 575.52 503.74 575.66 503.39 C 575.81 503.04 575.88 502.47 575.88 501.69 C 575.88 500.92 575.81 500.36 575.66 500.01 C 575.52 499.66 575.28 499.48 574.96 499.48 C 574.64 499.48 574.41 499.66 574.26 500.01 C 574.12 500.36 574.04 500.92 574.04 501.69 Z M 573.67 503.83 C 573.37 503.34 573.22 502.63 573.22 501.69 C 573.22 500.76 573.37 500.05 573.67 499.57 C 573.96 499.08 574.39 498.84 574.96 498.84 C 575.53 498.84 575.96 499.08 576.26 499.57 C 576.56 500.05 576.7 500.76 576.7 501.69 C 576.7 502.63 576.56 503.34 576.26 503.83 C 575.96 504.32 575.53 504.56 574.96 504.56 C 574.39 504.56 573.96 504.31 573.67 503.83 Z M 571.96 504.53 C 572.11 504.53 572.23 504.49 572.32 504.39 C 572.42 504.3 572.46 504.18 572.46 504.02 C 572.46 503.87 572.42 503.75 572.32 503.65 C 572.23 503.56 572.11 503.52 571.96 503.52 C 571.8 503.52 571.68 503.56 571.59 503.65 C 571.5 503.75 571.45 503.87 571.45 504.02 C 571.45 504.18 571.5 504.3 571.59 504.39 C 571.68 504.49 571.8 504.53 571.96 504.53 Z M 568.03 501.69 C 568.03 502.47 568.1 503.04 568.25 503.39 C 568.39 503.74 568.63 503.91 568.95 503.91 C 569.27 503.91 569.5 503.74 569.65 503.39 C 569.8 503.04 569.87 502.47 569.87 501.69 C 569.87 500.92 569.8 500.36 569.65 500.01 C 569.5 499.66 569.27 499.48 568.95 499.48 C 568.63 499.48 568.39 499.66 568.25 500.01 C 568.1 500.36 568.03 500.92 568.03 501.69 Z M 567.65 503.83 C 567.35 503.34 567.21 502.63 567.21 501.69 C 567.21 500.76 567.35 500.05 567.65 499.57 C 567.95 499.08 568.38 498.84 568.95 498.84 C 569.52 498.84 569.95 499.08 570.24 499.57 C 570.54 500.05 570.69 500.76 570.69 501.69 C 570.69 502.63 570.54 503.34 570.24 503.83 C 569.95 504.32 569.52 504.56 568.95 504.56 C 568.38 504.56 567.95 504.31 567.65 503.83 Z M 565.94 504.53 C 566.09 504.53 566.21 504.49 566.31 504.39 C 566.4 504.3 566.45 504.18 566.45 504.02 C 566.45 503.87 566.4 503.75 566.31 503.65 C 566.21 503.56 566.09 503.52 565.94 503.52 C 565.79 503.52 565.67 503.56 565.57 503.65 C 565.48 503.75 565.43 503.87 565.43 504.02 C 565.43 504.18 565.48 504.3 565.57 504.39 C 565.67 504.49 565.79 504.53 565.94 504.53 Z M 562.08 502.03 C 562.08 502.69 562.15 503.17 562.3 503.47 C 562.45 503.78 562.69 503.93 563.01 503.93 C 563.54 503.93 563.81 503.56 563.81 502.81 C 563.81 502.46 563.74 502.2 563.6 502.02 C 563.46 501.83 563.25 501.74 562.97 501.74 C 562.68 501.74 562.38 501.82 562.08 501.97 Z M 561.7 503.9 C 561.42 503.46 561.28 502.79 561.28 501.88 C 561.28 500.9 561.45 500.14 561.79 499.62 C 562.12 499.1 562.6 498.84 563.22 498.84 C 563.41 498.84 563.6 498.86 563.8 498.91 C 563.99 498.96 564.16 499.02 564.31 499.1 L 564.31 499.68 C 564.17 499.62 564.01 499.57 563.83 499.53 C 563.65 499.49 563.48 499.47 563.32 499.47 C 562.92 499.47 562.62 499.62 562.42 499.94 C 562.23 500.26 562.11 500.76 562.09 501.45 C 562.45 501.24 562.82 501.13 563.2 501.13 C 563.63 501.13 563.97 501.28 564.23 501.57 C 564.49 501.87 564.61 502.27 564.61 502.76 C 564.61 503.31 564.47 503.75 564.17 504.07 C 563.88 504.4 563.48 504.56 562.98 504.56 C 562.41 504.56 561.98 504.34 561.7 503.9 Z M 558.78 504.45 L 559.59 504.45 L 559.59 498.94 L 558.85 498.94 L 557.52 499.7 L 557.52 500.35 L 558.78 499.75 Z M 555.82 504.53 C 555.97 504.53 556.09 504.49 556.19 504.39 C 556.28 504.3 556.33 504.18 556.33 504.02 C 556.33 503.87 556.28 503.75 556.19 503.65 C 556.09 503.56 555.97 503.52 555.82 503.52 C 555.67 503.52 555.54 503.56 555.45 503.65 C 555.36 503.75 555.31 503.87 555.31 504.02 C 555.31 504.18 555.36 504.3 555.45 504.39 C 555.54 504.49 555.67 504.53 555.82 504.53 Z M 554.43 503.79 L 552.13 503.79 C 552.79 503 553.25 502.41 553.52 502.02 C 553.79 501.64 553.98 501.32 554.08 501.06 C 554.18 500.8 554.23 500.55 554.23 500.3 C 554.23 499.84 554.11 499.48 553.87 499.22 C 553.62 498.97 553.29 498.84 552.85 498.84 C 552.6 498.84 552.36 498.88 552.13 498.96 C 551.89 499.04 551.64 499.18 551.39 499.36 L 551.39 500.03 C 551.93 499.69 552.37 499.52 552.72 499.52 C 553.17 499.52 553.4 499.8 553.4 500.35 C 553.4 500.6 553.34 500.86 553.21 501.14 C 553.08 501.41 552.86 501.76 552.57 502.18 C 552.27 502.59 551.83 503.15 551.26 503.86 L 551.26 504.45 L 554.43 504.45 Z M 547.67 504.45 L 548.5 504.45 L 550.27 499.53 L 550.27 498.94 L 547.04 498.94 L 547.04 499.6 L 549.46 499.6 Z M 544.55 499.75 L 543.3 500.35 L 543.3 499.7 L 544.62 498.94 L 545.36 498.94 L 545.36 504.45 L 544.55 504.45 Z" fill="#8c4fff" stroke="none" pointer-events="all"/><g transform="translate(-0.5 -0.5)"><switch><foreignObject pointer-events="none" width="100%" height="100%" requiredFeatures="http://www.w3.org/TR/SVG11/feature#Extensibility" style="overflow: visible; text-align: left;"><div xmlns="http://www.w3.org/1999/xhtml" style="display: flex; align-items: unsafe flex-start; justify-content: unsafe center; width: 1px; height: 1px; padding-top: 547px; margin-left: 560px;"><div data-drawio-colors="color: #232F3E; " style="box-sizing: border-box; font-size: 0px; text-align: center;"><div style="display: inline-block; font-size: 10px; font-family: Verdana; color: rgb(35, 47, 62); line-height: 1.2; pointer-events: all; white-space: nowrap;">Private RT 2a</div></div></div></foreignObject><text x="560" y="557" fill="#232F3E" font-family="Verdana" font-size="10px" text-anchor="middle">Private...</text></switch></g><rect x="430" y="575" width="150" height="50" fill="none" stroke="none" pointer-events="all"/><g transform="translate(-0.5 -0.5)"><switch><foreignObject pointer-events="none" width="100%" height="100%" requiredFeatures="http://www.w3.org/TR/SVG11/feature#Extensibility" style="overflow: visible; text-align: left;"><div xmlns="http://www.w3.org/1999/xhtml" style="display: flex; align-items: unsafe flex-start; justify-content: unsafe flex-end; width: 1px; height: 1px; padding-top: 582px; margin-left: 578px;"><div data-drawio-colors="color: #232F3E; " style="box-sizing: border-box; font-size: 0px; text-align: right;"><div style="display: inline-block; font-size: 10px; font-family: Verdana; color: rgb(35, 47, 62); line-height: 1.2; pointer-events: all; white-space: nowrap;">CloudArchitect-Lab-rtb-<br />private1-ap-northeast-2a<br />0.0.0.0/0 → NAT</div></div></div></foreignObject><text x="578" y="592" fill="#232F3E" font-family="Verdana" font-size="10px" text-anchor="end">CloudArchitect-Lab-rtb-...</text></switch></g><rect x="1130" y="510" width="40" height="40" fill="none" stroke="none" pointer-events="all"/><path d="M 1131.82 547.78 L 1168.18 547.78 L 1168.18 539.26 L 1131.82 539.26 Z M 1170 538.35 L 1170 548.69 C 1170 549.2 1169.59 549.6 1169.09 549.6 L 1130.91 549.6 C 1130.41 549.6 1130 549.2 1130 548.69 L 1130 538.35 C 1130 537.85 1130.41 537.44 1130.91 537.44 L 1169.09 537.44 C 1169.59 537.44 1170 537.85 1170 538.35 Z M 1131.82 534.26 L 1168.18 534.26 L 1168.18 525.74 L 1131.82 525.74 Z M 1170 524.83 L 1170 535.17 C 1170 535.67 1169.59 536.08 1169.09 536.08 L 1130.91 536.08 C 1130.41 536.08 1130 535.67 1130 535.17 L 1130 524.83 C 1130 524.33 1130.41 523.92 1130.91 523.92 L 1169.09 523.92 C 1169.59 523.92 1170 524.33 1170 524.83 Z M 1131.82 520.74 L 1168.18 520.74 L 1168.18 512.22 L 1131.82 512.22 Z M 1170 511.31 L 1170 521.65 C 1170 522.15 1169.59 522.56 1169.09 522.56 L 1130.91 522.56 C 1130.41 522.56 1130 522.15 1130 521.65 L 1130 511.31 C 1130 510.8 1130.41 510.4 1130.91 510.4 L 1169.09 510.4 C 1169.59 510.4 1170 510.8 1170 511.31 Z M 1164.04 543.55 C 1164.04 544.33 1164.12 544.89 1164.26 545.24 C 1164.41 545.59 1164.64 545.76 1164.96 545.76 C 1165.28 545.76 1165.52 545.59 1165.66 545.24 C 1165.81 544.89 1165.88 544.33 1165.88 543.55 C 1165.88 542.77 1165.81 542.21 1165.66 541.86 C 1165.52 541.51 1165.28 541.33 1164.96 541.33 C 1164.64 541.33 1164.41 541.51 1164.26 541.86 C 1164.12 542.21 1164.04 542.77 1164.04 543.55 Z M 1163.67 545.68 C 1163.37 545.19 1163.22 544.48 1163.22 543.55 C 1163.22 542.61 1163.37 541.9 1163.67 541.42 C 1163.96 540.93 1164.39 540.69 1164.96 540.69 C 1165.53 540.69 1165.96 540.93 1166.26 541.42 C 1166.56 541.9 1166.7 542.61 1166.7 543.55 C 1166.7 544.48 1166.56 545.2 1166.26 545.68 C 1165.96 546.17 1165.53 546.41 1164.96 546.41 C 1164.39 546.41 1163.96 546.17 1163.67 545.68 Z M 1161.96 546.39 C 1162.11 546.39 1162.23 546.34 1162.32 546.25 C 1162.42 546.15 1162.46 546.03 1162.46 545.88 C 1162.46 545.72 1162.42 545.6 1162.32 545.51 C 1162.23 545.41 1162.11 545.37 1161.96 545.37 C 1161.8 545.37 1161.68 545.41 1161.59 545.51 C 1161.5 545.6 1161.45 545.72 1161.45 545.88 C 1161.45 546.03 1161.5 546.15 1161.59 546.25 C 1161.68 546.34 1161.8 546.39 1161.96 546.39 Z M 1160.57 545.65 L 1158.27 545.65 C 1158.92 544.85 1159.39 544.26 1159.66 543.88 C 1159.93 543.49 1160.11 543.17 1160.21 542.91 C 1160.32 542.65 1160.37 542.4 1160.37 542.15 C 1160.37 541.69 1160.25 541.33 1160 541.08 C 1159.76 540.82 1159.42 540.69 1158.99 540.69 C 1158.74 540.69 1158.5 540.73 1158.26 540.81 C 1158.03 540.9 1157.78 541.03 1157.53 541.21 L 1157.53 541.88 C 1158.06 541.54 1158.51 541.37 1158.85 541.37 C 1159.31 541.37 1159.54 541.65 1159.54 542.2 C 1159.54 542.45 1159.47 542.71 1159.35 542.99 C 1159.21 543.27 1159 543.61 1158.7 544.03 C 1158.4 544.44 1157.97 545 1157.4 545.71 L 1157.4 546.31 L 1160.57 546.31 Z M 1155.94 546.39 C 1156.09 546.39 1156.21 546.34 1156.31 546.25 C 1156.4 546.15 1156.45 546.03 1156.45 545.88 C 1156.45 545.72 1156.4 545.6 1156.31 545.51 C 1156.21 545.41 1156.09 545.37 1155.94 545.37 C 1155.79 545.37 1155.67 545.41 1155.57 545.51 C 1155.48 545.6 1155.43 545.72 1155.43 545.88 C 1155.43 546.03 1155.48 546.15 1155.57 546.25 C 1155.67 546.34 1155.79 546.39 1155.94 546.39 Z M 1152.08 543.88 C 1152.08 544.54 1152.15 545.02 1152.3 545.32 C 1152.45 545.63 1152.69 545.78 1153.01 545.78 C 1153.54 545.78 1153.81 545.41 1153.81 544.66 C 1153.81 544.31 1153.74 544.05 1153.6 543.87 C 1153.46 543.69 1153.25 543.59 1152.97 543.59 C 1152.68 543.59 1152.38 543.67 1152.08 543.82 Z M 1151.7 545.75 C 1151.42 545.32 1151.28 544.64 1151.28 543.73 C 1151.28 542.75 1151.45 542 1151.79 541.47 C 1152.12 540.95 1152.6 540.69 1153.22 540.69 C 1153.41 540.69 1153.6 540.71 1153.8 540.76 C 1153.99 540.81 1154.16 540.87 1154.31 540.95 L 1154.31 541.53 C 1154.17 541.47 1154.01 541.42 1153.83 541.38 C 1153.65 541.34 1153.48 541.32 1153.32 541.32 C 1152.92 541.32 1152.62 541.48 1152.42 541.79 C 1152.23 542.11 1152.11 542.61 1152.09 543.3 C 1152.45 543.09 1152.82 542.98 1153.2 542.98 C 1153.63 542.98 1153.97 543.13 1154.23 543.43 C 1154.49 543.72 1154.61 544.12 1154.61 544.61 C 1154.61 545.16 1154.47 545.6 1154.17 545.92 C 1153.88 546.25 1153.48 546.41 1152.98 546.41 C 1152.41 546.41 1151.98 546.19 1151.7 545.75 Z M 1148.78 546.31 L 1149.59 546.31 L 1149.59 540.79 L 1148.85 540.79 L 1147.52 541.55 L 1147.52 542.2 L 1148.78 541.6 Z M 1145.82 546.39 C 1145.97 546.39 1146.09 546.34 1146.19 546.25 C 1146.28 546.15 1146.33 546.03 1146.33 545.88 C 1146.33 545.72 1146.28 545.6 1146.19 545.51 C 1146.09 545.41 1145.97 545.37 1145.82 545.37 C 1145.67 545.37 1145.54 545.41 1145.45 545.51 C 1145.36 545.6 1145.31 545.72 1145.31 545.88 C 1145.31 546.03 1145.36 546.15 1145.45 546.25 C 1145.54 546.34 1145.67 546.39 1145.82 546.39 Z M 1144.43 545.65 L 1142.13 545.65 C 1142.79 544.85 1143.25 544.26 1143.52 543.88 C 1143.79 543.49 1143.98 543.17 1144.08 542.91 C 1144.18 542.65 1144.23 542.4 1144.23 542.15 C 1144.23 541.69 1144.11 541.33 1143.87 541.08 C 1143.62 540.82 1143.29 540.69 1142.85 540.69 C 1142.6 540.69 1142.36 540.73 1142.13 540.81 C 1141.89 540.9 1141.64 541.03 1141.39 541.21 L 1141.39 541.88 C 1141.93 541.54 1142.37 541.37 1142.72 541.37 C 1143.17 541.37 1143.4 541.65 1143.4 542.2 C 1143.4 542.45 1143.34 542.71 1143.21 542.99 C 1143.08 543.27 1142.86 543.61 1142.57 544.03 C 1142.27 544.44 1141.83 545 1141.26 545.71 L 1141.26 546.31 L 1144.43 546.31 Z M 1137.67 546.31 L 1138.5 546.31 L 1140.27 541.38 L 1140.27 540.79 L 1137.04 540.79 L 1137.04 541.45 L 1139.46 541.45 Z M 1134.55 546.31 L 1135.36 546.31 L 1135.36 540.79 L 1134.62 540.79 L 1133.3 541.55 L 1133.3 542.2 L 1134.55 541.6 Z M 1164.04 529.73 C 1164.04 530.51 1164.12 531.07 1164.26 531.42 C 1164.41 531.77 1164.64 531.95 1164.96 531.95 C 1165.28 531.95 1165.52 531.77 1165.66 531.42 C 1165.81 531.07 1165.88 530.51 1165.88 529.73 C 1165.88 528.96 1165.81 528.39 1165.66 528.04 C 1165.52 527.69 1165.28 527.52 1164.96 527.52 C 1164.64 527.52 1164.41 527.69 1164.26 528.04 C 1164.12 528.39 1164.04 528.96 1164.04 529.73 Z M 1163.67 531.86 C 1163.37 531.37 1163.22 530.66 1163.22 529.73 C 1163.22 528.8 1163.37 528.09 1163.67 527.6 C 1163.96 527.12 1164.39 526.87 1164.96 526.87 C 1165.53 526.87 1165.96 527.12 1166.26 527.6 C 1166.56 528.09 1166.7 528.8 1166.7 529.73 C 1166.7 530.67 1166.56 531.38 1166.26 531.87 C 1165.96 532.35 1165.53 532.59 1164.96 532.59 C 1164.39 532.59 1163.96 532.35 1163.67 531.86 Z M 1161.96 532.57 C 1162.11 532.57 1162.23 532.52 1162.32 532.43 C 1162.42 532.34 1162.46 532.21 1162.46 532.06 C 1162.46 531.91 1162.42 531.78 1162.32 531.69 C 1162.23 531.6 1162.11 531.55 1161.96 531.55 C 1161.8 531.55 1161.68 531.6 1161.59 531.69 C 1161.5 531.78 1161.45 531.91 1161.45 532.06 C 1161.45 532.21 1161.5 532.34 1161.59 532.43 C 1161.68 532.52 1161.8 532.57 1161.96 532.57 Z M 1158.9 532.49 L 1159.71 532.49 L 1159.71 526.98 L 1158.97 526.98 L 1157.65 527.73 L 1157.65 528.38 L 1158.9 527.79 Z M 1155.94 532.57 C 1156.09 532.57 1156.21 532.52 1156.31 532.43 C 1156.4 532.34 1156.45 532.21 1156.45 532.06 C 1156.45 531.91 1156.4 531.78 1156.31 531.69 C 1156.21 531.6 1156.09 531.55 1155.94 531.55 C 1155.79 531.55 1155.67 531.6 1155.57 531.69 C 1155.48 531.78 1155.43 531.91 1155.43 532.06 C 1155.43 532.21 1155.48 532.34 1155.57 532.43 C 1155.67 532.52 1155.79 532.57 1155.94 532.57 Z M 1152.08 530.06 C 1152.08 530.72 1152.15 531.2 1152.3 531.51 C 1152.45 531.81 1152.69 531.96 1153.01 531.96 C 1153.54 531.96 1153.81 531.59 1153.81 530.84 C 1153.81 530.5 1153.74 530.23 1153.6 530.05 C 1153.46 529.87 1153.25 529.78 1152.97 529.78 C 1152.68 529.78 1152.38 529.85 1152.08 530 Z M 1151.7 531.94 C 1151.42 531.5 1151.28 530.82 1151.28 529.91 C 1151.28 528.93 1151.45 528.18 1151.79 527.66 C 1152.12 527.13 1152.6 526.87 1153.22 526.87 C 1153.41 526.87 1153.6 526.9 1153.8 526.95 C 1153.99 526.99 1154.16 527.06 1154.31 527.14 L 1154.31 527.72 C 1154.17 527.65 1154.01 527.6 1153.83 527.56 C 1153.65 527.52 1153.48 527.5 1153.32 527.5 C 1152.92 527.5 1152.62 527.66 1152.42 527.98 C 1152.23 528.29 1152.11 528.79 1152.09 529.48 C 1152.45 529.27 1152.82 529.16 1153.2 529.16 C 1153.63 529.16 1153.97 529.31 1154.23 529.61 C 1154.49 529.91 1154.61 530.3 1154.61 530.8 C 1154.61 531.35 1154.47 531.78 1154.17 532.11 C 1153.88 532.43 1153.48 532.59 1152.98 532.59 C 1152.41 532.59 1151.98 532.37 1151.7 531.94 Z M 1148.78 532.49 L 1149.59 532.49 L 1149.59 526.98 L 1148.85 526.98 L 1147.52 527.73 L 1147.52 528.38 L 1148.78 527.79 Z M 1145.82 532.57 C 1145.97 532.57 1146.09 532.52 1146.19 532.43 C 1146.28 532.34 1146.33 532.21 1146.33 532.06 C 1146.33 531.91 1146.28 531.78 1146.19 531.69 C 1146.09 531.6 1145.97 531.55 1145.82 531.55 C 1145.67 531.55 1145.54 531.6 1145.45 531.69 C 1145.36 531.78 1145.31 531.91 1145.31 532.06 C 1145.31 532.21 1145.36 532.34 1145.45 532.43 C 1145.54 532.52 1145.67 532.57 1145.82 532.57 Z M 1144.43 531.83 L 1142.13 531.83 C 1142.79 531.03 1143.25 530.44 1143.52 530.06 C 1143.79 529.68 1143.98 529.35 1144.08 529.09 C 1144.18 528.83 1144.23 528.58 1144.23 528.34 C 1144.23 527.88 1144.11 527.52 1143.87 527.26 C 1143.62 527 1143.29 526.87 1142.85 526.87 C 1142.6 526.87 1142.36 526.91 1142.13 527 C 1141.89 527.08 1141.64 527.21 1141.39 527.39 L 1141.39 528.07 C 1141.93 527.73 1142.37 527.56 1142.72 527.56 C 1143.17 527.56 1143.4 527.83 1143.4 528.38 C 1143.4 528.63 1143.34 528.9 1143.21 529.17 C 1143.08 529.45 1142.86 529.79 1142.57 530.21 C 1142.27 530.63 1141.83 531.19 1141.26 531.89 L 1141.26 532.49 L 1144.43 532.49 Z M 1137.67 532.49 L 1138.5 532.49 L 1140.27 527.57 L 1140.27 526.98 L 1137.04 526.98 L 1137.04 527.64 L 1139.46 527.64 Z M 1134.55 532.49 L 1135.36 532.49 L 1135.36 526.98 L 1134.62 526.98 L 1133.3 527.73 L 1133.3 528.38 L 1134.55 527.79 Z M 1164.04 516.69 C 1164.04 517.47 1164.12 518.04 1164.26 518.39 C 1164.41 518.74 1164.64 518.91 1164.96 518.91 C 1165.28 518.91 1165.52 518.74 1165.66 518.39 C 1165.81 518.04 1165.88 517.47 1165.88 516.69 C 1165.88 515.92 1165.81 515.36 1165.66 515.01 C 1165.52 514.66 1165.28 514.48 1164.96 514.48 C 1164.64 514.48 1164.41 514.66 1164.26 515.01 C 1164.12 515.36 1164.04 515.92 1164.04 516.69 Z M 1163.67 518.83 C 1163.37 518.34 1163.22 517.63 1163.22 516.69 C 1163.22 515.76 1163.37 515.05 1163.67 514.57 C 1163.96 514.08 1164.39 513.84 1164.96 513.84 C 1165.53 513.84 1165.96 514.08 1166.26 514.57 C 1166.56 515.05 1166.7 515.76 1166.7 516.69 C 1166.7 517.63 1166.56 518.34 1166.26 518.83 C 1165.96 519.32 1165.53 519.56 1164.96 519.56 C 1164.39 519.56 1163.96 519.31 1163.67 518.83 Z M 1161.96 519.53 C 1162.11 519.53 1162.23 519.49 1162.32 519.39 C 1162.42 519.3 1162.46 519.18 1162.46 519.02 C 1162.46 518.87 1162.42 518.75 1162.32 518.65 C 1162.23 518.56 1162.11 518.52 1161.96 518.52 C 1161.8 518.52 1161.68 518.56 1161.59 518.65 C 1161.5 518.75 1161.45 518.87 1161.45 519.02 C 1161.45 519.18 1161.5 519.3 1161.59 519.39 C 1161.68 519.49 1161.8 519.53 1161.96 519.53 Z M 1158.03 516.69 C 1158.03 517.47 1158.1 518.04 1158.25 518.39 C 1158.39 518.74 1158.63 518.91 1158.95 518.91 C 1159.27 518.91 1159.5 518.74 1159.65 518.39 C 1159.8 518.04 1159.87 517.47 1159.87 516.69 C 1159.87 515.92 1159.8 515.36 1159.65 515.01 C 1159.5 514.66 1159.27 514.48 1158.95 514.48 C 1158.63 514.48 1158.39 514.66 1158.25 515.01 C 1158.1 515.36 1158.03 515.92 1158.03 516.69 Z M 1157.65 518.83 C 1157.35 518.34 1157.21 517.63 1157.21 516.69 C 1157.21 515.76 1157.35 515.05 1157.65 514.57 C 1157.95 514.08 1158.38 513.84 1158.95 513.84 C 1159.52 513.84 1159.95 514.08 1160.24 514.57 C 1160.54 515.05 1160.69 515.76 1160.69 516.69 C 1160.69 517.63 1160.54 518.34 1160.24 518.83 C 1159.95 519.32 1159.52 519.56 1158.95 519.56 C 1158.38 519.56 1157.95 519.31 1157.65 518.83 Z M 1155.94 519.53 C 1156.09 519.53 1156.21 519.49 1156.31 519.39 C 1156.4 519.3 1156.45 519.18 1156.45 519.02 C 1156.45 518.87 1156.4 518.75 1156.31 518.65 C 1156.21 518.56 1156.09 518.52 1155.94 518.52 C 1155.79 518.52 1155.67 518.56 1155.57 518.65 C 1155.48 518.75 1155.43 518.87 1155.43 519.02 C 1155.43 519.18 1155.48 519.3 1155.57 519.39 C 1155.67 519.49 1155.79 519.53 1155.94 519.53 Z M 1152.08 517.03 C 1152.08 517.69 1152.15 518.17 1152.3 518.47 C 1152.45 518.78 1152.69 518.93 1153.01 518.93 C 1153.54 518.93 1153.81 518.56 1153.81 517.81 C 1153.81 517.46 1153.74 517.2 1153.6 517.02 C 1153.46 516.83 1153.25 516.74 1152.97 516.74 C 1152.68 516.74 1152.38 516.82 1152.08 516.97 Z M 1151.7 518.9 C 1151.42 518.46 1151.28 517.79 1151.28 516.88 C 1151.28 515.9 1151.45 515.14 1151.79 514.62 C 1152.12 514.1 1152.6 513.84 1153.22 513.84 C 1153.41 513.84 1153.6 513.86 1153.8 513.91 C 1153.99 513.96 1154.16 514.02 1154.31 514.1 L 1154.31 514.68 C 1154.17 514.62 1154.01 514.57 1153.83 514.53 C 1153.65 514.49 1153.48 514.47 1153.32 514.47 C 1152.92 514.47 1152.62 514.62 1152.42 514.94 C 1152.23 515.26 1152.11 515.76 1152.09 516.45 C 1152.45 516.24 1152.82 516.13 1153.2 516.13 C 1153.63 516.13 1153.97 516.28 1154.23 516.57 C 1154.49 516.87 1154.61 517.27 1154.61 517.76 C 1154.61 518.31 1154.47 518.75 1154.17 519.07 C 1153.88 519.4 1153.48 519.56 1152.98 519.56 C 1152.41 519.56 1151.98 519.34 1151.7 518.9 Z M 1148.78 519.45 L 1149.59 519.45 L 1149.59 513.94 L 1148.85 513.94 L 1147.52 514.7 L 1147.52 515.35 L 1148.78 514.75 Z M 1145.82 519.53 C 1145.97 519.53 1146.09 519.49 1146.19 519.39 C 1146.28 519.3 1146.33 519.18 1146.33 519.02 C 1146.33 518.87 1146.28 518.75 1146.19 518.65 C 1146.09 518.56 1145.97 518.52 1145.82 518.52 C 1145.67 518.52 1145.54 518.56 1145.45 518.65 C 1145.36 518.75 1145.31 518.87 1145.31 519.02 C 1145.31 519.18 1145.36 519.3 1145.45 519.39 C 1145.54 519.49 1145.67 519.53 1145.82 519.53 Z M 1144.43 518.79 L 1142.13 518.79 C 1142.79 518 1143.25 517.41 1143.52 517.02 C 1143.79 516.64 1143.98 516.32 1144.08 516.06 C 1144.18 515.8 1144.23 515.55 1144.23 515.3 C 1144.23 514.84 1144.11 514.48 1143.87 514.22 C 1143.62 513.97 1143.29 513.84 1142.85 513.84 C 1142.6 513.84 1142.36 513.88 1142.13 513.96 C 1141.89 514.04 1141.64 514.18 1141.39 514.36 L 1141.39 515.03 C 1141.93 514.69 1142.37 514.52 1142.72 514.52 C 1143.17 514.52 1143.4 514.8 1143.4 515.35 C 1143.4 515.6 1143.34 515.86 1143.21 516.14 C 1143.08 516.41 1142.86 516.76 1142.57 517.18 C 1142.27 517.59 1141.83 518.15 1141.26 518.86 L 1141.26 519.45 L 1144.43 519.45 Z M 1137.67 519.45 L 1138.5 519.45 L 1140.27 514.53 L 1140.27 513.94 L 1137.04 513.94 L 1137.04 514.6 L 1139.46 514.6 Z M 1134.55 514.75 L 1133.3 515.35 L 1133.3 514.7 L 1134.62 513.94 L 1135.36 513.94 L 1135.36 519.45 L 1134.55 519.45 Z" fill="#8c4fff" stroke="none" pointer-events="all"/><g transform="translate(-0.5 -0.5)"><switch><foreignObject pointer-events="none" width="100%" height="100%" requiredFeatures="http://www.w3.org/TR/SVG11/feature#Extensibility" style="overflow: visible; text-align: left;"><div xmlns="http://www.w3.org/1999/xhtml" style="display: flex; align-items: unsafe flex-start; justify-content: unsafe center; width: 1px; height: 1px; padding-top: 562px; margin-left: 1150px;"><div data-drawio-colors="color: #232F3E; " style="box-sizing: border-box; font-size: 0px; text-align: center;"><div style="display: inline-block; font-size: 10px; font-family: Verdana; color: rgb(35, 47, 62); line-height: 1.2; pointer-events: all; white-space: nowrap;">Private RT 2b</div></div></div></foreignObject><text x="1150" y="572" fill="#232F3E" font-family="Verdana" font-size="10px" text-anchor="middle">Private...</text></switch></g><rect x="1020" y="585" width="150" height="50" fill="none" stroke="none" pointer-events="all"/><g transform="translate(-0.5 -0.5)"><switch><foreignObject pointer-events="none" width="100%" height="100%" requiredFeatures="http://www.w3.org/TR/SVG11/feature#Extensibility" style="overflow: visible; text-align: left;"><div xmlns="http://www.w3.org/1999/xhtml" style="display: flex; align-items: unsafe flex-start; justify-content: unsafe flex-end; width: 1px; height: 1px; padding-top: 592px; margin-left: 1168px;"><div data-drawio-colors="color: #232F3E; " style="box-sizing: border-box; font-size: 0px; text-align: right;"><div style="display: inline-block; font-size: 10px; font-family: Verdana; color: rgb(35, 47, 62); line-height: 1.2; pointer-events: all; white-space: nowrap;">CloudArchitect-Lab-rtb-<br />private2-ap-northeast-2b<br />(VPC 내부만)</div></div></div></foreignObject><text x="1168" y="602" fill="#232F3E" font-family="Verdana" font-size="10px" text-anchor="end">CloudArchitect-Lab-rtb-...</text></switch></g><path d="M 635 50 L 635 115.53" fill="none" stroke="#666666" stroke-width="2" stroke-miterlimit="10" pointer-events="stroke"/><path d="M 629 105.76 L 635 117.76 L 641 105.76" fill="none" stroke="#666666" stroke-width="2" stroke-miterlimit="10" pointer-events="all"/><path d="M 610 145 L 345 145 L 345 280.53" fill="none" stroke="#7aa116" stroke-width="2" stroke-miterlimit="10" stroke-dasharray="6 6" pointer-events="stroke"/><path d="M 339 270.76 L 345 282.76 L 351 270.76" fill="none" stroke="#7aa116" stroke-width="2" stroke-miterlimit="10" pointer-events="all"/><path d="M 660 145 L 925 145 L 925 280.53" fill="none" stroke="#7aa116" stroke-width="2" stroke-miterlimit="10" stroke-dasharray="6 6" pointer-events="stroke"/><path d="M 919 270.76 L 925 282.76 L 931 270.76" fill="none" stroke="#7aa116" stroke-width="2" stroke-miterlimit="10" pointer-events="all"/><path d="M 478 369 L 635 369 L 635 174.47" fill="none" stroke="#8c4fff" stroke-width="2" stroke-miterlimit="10" pointer-events="stroke"/><path d="M 640 182.24 L 635 172.24 L 630 182.24" fill="none" stroke="#8c4fff" stroke-width="2" stroke-miterlimit="10" pointer-events="all"/><g transform="translate(-0.5 -0.5)"><switch><foreignObject pointer-events="none" width="100%" height="100%" requiredFeatures="http://www.w3.org/TR/SVG11/feature#Extensibility" style="overflow: visible; text-align: left;"><div xmlns="http://www.w3.org/1999/xhtml" style="display: flex; align-items: unsafe center; justify-content: unsafe center; width: 1px; height: 1px; padding-top: 348px; margin-left: 635px;"><div data-drawio-colors="color: #8C4FFF; background-color: #FFFFFF; " style="box-sizing: border-box; font-size: 0px; text-align: center;"><div style="display: inline-block; font-size: 9px; font-family: Verdana; color: rgb(140, 79, 255); line-height: 1.2; pointer-events: all; background-color: rgb(255, 255, 255); white-space: nowrap;">아웃바운드<br />인터넷 접근</div></div></div></foreignObject><text x="635" y="351" fill="#8C4FFF" font-family="Verdana" font-size="9px" text-anchor="middle">아웃바운드
인터넷 접근</text></switch></g><path d="M 454 393 L 454 459 L 345 459 L 345 520.53" fill="none" stroke="#00a4a6" stroke-width="2" stroke-miterlimit="10" stroke-dasharray="6 6" pointer-events="stroke"/><path d="M 340 512.76 L 345 522.76 L 350 512.76" fill="none" stroke="#00a4a6" stroke-width="2" stroke-miterlimit="10" pointer-events="all"/></g><switch><g requiredFeatures="http://www.w3.org/TR/SVG11/feature#Extensibility"/><a transform="translate(0,-5)" xlink:href="https://www.diagrams.net/doc/faq/svg-export-text-problems" target="_blank"><text text-anchor="middle" font-size="10px" x="50%" y="100%">Text is not SVG - cannot display</text></a></switch></svg>