<svg xmlns="http://www.w3.org/2000/svg" xmlns:xlink="http://www.w3.org/1999/xlink" version="1.1" width="1132px" height="771px" viewBox="-0.5 -0.5 1132 771" content="&lt;mxfile&gt;&lt;diagram id=&quot;ec2-arch&quot; name=&quot;EC2 Instance Architecture&quot;&gt;7Vpbb6M4GP01SDsPqbiEBB4hl06lWamadKfSvFQOuMQagpFxkra/fm3jcDFO2mZI2l1NO+rgz3ef8x1/NhjOZP10TUC++hvHMDVsM34ynKlh22PfYX+54bk0WKbjl5aEoFjaasMCvcB9QWndoBgWrYIU45SivG2McJbBiLZsgBC8axd7xGm71xwksGNYRCDtWu9RTFfSOjTNOuMrRMlKdu3vM9ZgX1gaihWI8a5hcmaGMyEY0/Jp/TSBKV+8/bqU9eYHcquBEZjRt1TYFJAUZaUtSDdyfsZsYni2EUz4gx8YgS8eZoa/HzZ93q9F8QvSiE/KNJwQb2iKMjip1p0bH3FGJzjFRFRw2O+cDyZMCIgRrPMynEFeHKWpWnzK7AUl+BdUCsegWMFYdrSFhCKG0jewhOktLhBFOGN5S0wpXvMmchChLLnDObO6jRpBihJekvKcEMhUxAYHWWfhiq5TlrbkZCQhLXuflqvBxwCKvJz5I3riAwtzjHgrsy1rrJCNMNRzXmH9lHAHuQK7YnhVQlG2OAdrlHLv+AFJDDLAzF1kJdh8DvCpYZJIX0O8hpQ8syIydzSU8FV+VyZ3NYddaVo12Lu3Aek1SdVwTSz2ILml5xmb4SBK8SbucC24XzDDpM5rcEusnejVDdk/No6JabgsZ8JTV7arGNT0uG2wuineRtugpsdtg6U2byn9W+oAG4ZOqtW8qfRvNgboTg951wEvalB2t0IULhj1+aruGOEUGg8VGh9kaELwJhdd3kTCsbq5D+zxQQD9AFJaea3i+U0Xl+M97okpfKS1/34Tqalj6ly6pQjn8yXbbPuS1/WlSvWbzjQ2e/AmlOw6fnTDVSaDlFmvAYU78HxxqfYmw/l8/iml2jT6lGok1/ohkSt9UdV2LifbjGiDlEPUoZsQ7IBEXFsiOmA4Dm6u7zuUY3OkbVQ6iKnArlEc8+ohgQV6AcsKr/ZuwAURbCijzkslWjraabSmQQzvCOnPCKkiHpbndiCtYG5iaveA6TaPOmj+uGXVRmzywlE02IoC5l+WeSV+WR/W6Muf/fpD9mtHo2VsP6aA9UVkG6qUlWXSFOQFqj2KwGhDCrSF3+Gp+z1jk61s89U2cM5tXnHaqs9Lbf9u24NtjSh7uv3f7WP/By8DG3Qj6S1ATKxRiigf6U++4qyffJBhQlcQFLSq1fBZDUhtHeWqMBzPwqC5utZBLFVmKkBVTelYfmDztt4DZS1v74jlWli6XSjHIw2UQ6cHKPPNclBsliJwU/C83SxTxCZjLmT+MYEuCw86RRuKbQ//CPaHCLYu+Dz5gFVwzWYe/lAXXuzF19Q57zgILGvUjdbn9nw0886oyVXHp2nyCY6sRMq+xpFtjSM74x4ceQeZIycdJ75n5sX1cd/dlzlBmadTx+Ur8gYxtroIVbVVtr4izke5YZ0bZU8JnoddmB3d1ltV/B2YYWQPUFZQkLG1UcGeTbjhpsp+BfQFJGzWjWLUuVqjiOCLn9xn07FldtXjE5zc/Z4P7iU09pkpqt4O2RqO6kKKUR/BIVv/FTxwbA9EJrMx+vHIQmXgPwVPmlNAgTELjcAyfH7wq6//mdGbG74vjd7QCIb8IfQN3/s/HP9H4ufM/LBGbosfjibm1F4A9BVykiPh5ve7i+vP57059HrVHxayUfhAS1aflWFj9YrJ1OySroZgbl8Ee/vFoTy7cN5VQlQfW0whNbbhjQxfbK/vumYk5dQOkOA/c8V4AgPc0etxkqW7OO5DY4qERUmPuIP+TbbEmyzmKrNJ+Sv8oIG5QNk0Al5nsfjKLxxt+wv775Ewz2Z7apMT2lpf7+5ueTXPPFTtzcSRse2n4k0rXj8Xbxy/zZvqdPQab4Y98CaFCeT06HyQEBqhY4Qi1PBdw/OEKARGODZCT0QqDg9BGPTlTbUwmbwcr2kbgde9rVbPw+JHd8iqQoKTDlnlz+mHrGqDOt9tpmW94TrT8s6kFeXJeXAA+vccoGtNqB/3ivPRSvMxp3n/7If5Dss0XHwH8XRioyOe1cerMEDIQHx2M9C9Ue9ACOME7tefX6njBGcgndXW5rIyLgf8UzNeNodZaZkjPhaxZbBUUwwOi06Zs//OjONLOKGrgLgcJh/bcRDYVPCGRLJU48MvCkgCZUm5Dl3ACEwBRdt2H7+79vz18oHL79K/5sI5PxKG6hLzNRg0dxa6ZkRQHILoVyKq6/afo+72XpwrYjdRbr90uBDYZYcDGNkf5mmeDmHl7uswwq2XX6ehob7taYKi3iz2DwtL1l+WirzG97nO7F8=&lt;/diagram&gt;&lt;/mxfile&gt;"><defs/><g><rect x="440" y="0" width="50" height="50" fill="none" stroke="none" pointer-events="all"/><path d="M 470.27 8.28 C 470.27 4.97 473.01 2.27 476.39 2.27 C 479.76 2.27 482.5 4.97 482.5 8.28 C 482.5 11.59 479.76 14.29 476.39 14.29 C 473.01 14.29 470.27 11.59 470.27 8.28 Z M 483.37 16.29 C 482.63 15.83 481.86 15.45 481.05 15.15 C 483.29 13.66 484.77 11.14 484.77 8.28 C 484.77 3.71 481.01 0 476.39 0 C 471.76 0 468 3.71 468 8.28 C 468 11.13 469.47 13.65 471.7 15.14 C 470.24 15.69 468.88 16.49 467.67 17.53 L 469.15 19.25 C 471.17 17.52 473.74 16.56 476.36 16.56 C 478.41 16.56 480.42 17.13 482.17 18.22 C 485.28 20.15 487.33 23.55 487.67 27.27 L 476.36 27.27 L 476.36 29.55 L 488.86 29.55 C 489.49 29.55 490 29.04 490 28.41 C 490 23.47 487.46 18.83 483.37 16.29 Z M 447.54 8.28 C 447.54 4.97 450.29 2.27 453.66 2.27 C 457.03 2.27 459.77 4.97 459.77 8.28 C 459.77 11.59 457.03 14.29 453.66 14.29 C 450.29 14.29 447.54 11.59 447.54 8.28 Z M 453.64 27.27 L 442.33 27.27 C 442.88 21.27 447.74 16.56 453.64 16.56 C 455.68 16.56 457.69 17.13 459.44 18.22 C 459.93 18.53 460.41 18.87 460.85 19.25 L 462.33 17.53 C 461.8 17.07 461.23 16.66 460.64 16.29 C 459.9 15.83 459.13 15.45 458.33 15.15 C 460.57 13.66 462.04 11.14 462.04 8.28 C 462.04 3.71 458.28 0 453.66 0 C 449.03 0 445.27 3.71 445.27 8.28 C 445.27 11.14 446.75 13.66 448.99 15.15 C 443.75 17.13 440 22.32 440 28.41 C 440 29.04 440.51 29.55 441.14 29.55 L 453.64 29.55 Z M 453.69 47.73 C 454.24 41.72 459.1 37.01 465 37.01 C 467.05 37.01 469.06 37.59 470.81 38.67 C 473.92 40.61 475.96 44.01 476.31 47.73 Z M 458.91 28.73 C 458.91 25.42 461.65 22.73 465.02 22.73 C 468.39 22.73 471.13 25.42 471.13 28.73 C 471.13 32.05 468.39 34.74 465.02 34.74 C 461.65 34.74 458.91 32.05 458.91 28.73 Z M 472 36.74 C 471.27 36.29 470.49 35.91 469.69 35.61 C 471.93 34.12 473.41 31.59 473.41 28.73 C 473.41 24.17 469.64 20.45 465.02 20.45 C 460.4 20.45 456.64 24.17 456.64 28.73 C 456.64 31.59 458.11 34.12 460.35 35.6 C 455.12 37.58 451.36 42.77 451.36 48.86 C 451.36 49.49 451.87 50 452.5 50 L 477.5 50 C 478.13 50 478.64 49.49 478.64 48.86 C 478.64 43.93 476.1 39.28 472 36.74 Z" fill="#232f3d" stroke="none" pointer-events="all"/><g transform="translate(-0.5 -0.5)"><switch><foreignObject pointer-events="none" width="100%" height="100%" requiredFeatures="http://www.w3.org/TR/SVG11/feature#Extensibility" style="overflow: visible; text-align: left;"><div xmlns="http://www.w3.org/1999/xhtml" style="display: flex; align-items: unsafe flex-start; justify-content: unsafe center; width: 1px; height: 1px; padding-top: 62px; margin-left: 465px;"><div data-drawio-colors="color: #232F3E; " style="box-sizing: border-box; font-size: 0px; text-align: center;"><div style="display: inline-block; font-size: 12px; font-family: Verdana; color: rgb(35, 47, 62); line-height: 1.2; pointer-events: all; white-space: nowrap;">사용자</div></div></div></foreignObject><text x="465" y="74" fill="#232F3E" font-family="Verdana" font-size="12px" text-anchor="middle">사용자</text></switch></g><path d="M 0 70 L 900 70 L 900 770 L 0 770 Z" fill="none" stroke="rgb(0, 0, 0)" stroke-miterlimit="10" pointer-events="all"/><path d="M 6.09 77.18 C 6.01 77.18 5.93 77.19 5.85 77.19 C 5.5 77.19 5.15 77.23 4.81 77.32 C 4.53 77.39 4.25 77.49 3.98 77.62 C 3.9 77.65 3.84 77.7 3.79 77.76 C 3.75 77.83 3.74 77.91 3.74 77.99 L 3.74 78.32 C 3.74 78.46 3.78 78.53 3.88 78.53 L 3.99 78.53 L 4.22 78.44 C 4.45 78.35 4.69 78.27 4.94 78.21 C 5.17 78.16 5.41 78.13 5.65 78.13 C 6.04 78.09 6.43 78.2 6.73 78.44 C 6.97 78.74 7.09 79.12 7.05 79.5 L 7.05 79.99 C 6.78 79.93 6.54 79.88 6.29 79.84 C 6.05 79.81 5.81 79.79 5.57 79.79 C 4.98 79.76 4.4 79.94 3.94 80.31 C 3.54 80.65 3.32 81.15 3.34 81.68 C 3.31 82.15 3.49 82.62 3.82 82.96 C 4.18 83.29 4.66 83.46 5.15 83.44 C 5.91 83.45 6.63 83.11 7.11 82.51 C 7.18 82.66 7.24 82.79 7.31 82.91 C 7.38 83.02 7.46 83.12 7.55 83.21 C 7.6 83.27 7.67 83.31 7.75 83.31 C 7.81 83.31 7.87 83.29 7.92 83.25 L 8.34 82.97 C 8.41 82.93 8.46 82.86 8.47 82.77 C 8.47 82.72 8.45 82.67 8.42 82.62 C 8.34 82.47 8.26 82.31 8.21 82.14 C 8.15 81.95 8.12 81.75 8.13 81.55 L 8.14 79.37 C 8.2 78.77 8 78.18 7.59 77.74 C 7.17 77.39 6.64 77.19 6.09 77.18 Z M 19.89 77.19 C 19.78 77.19 19.68 77.19 19.57 77.2 C 19.29 77.2 19 77.24 18.73 77.31 C 18.47 77.38 18.23 77.5 18.01 77.66 C 17.82 77.81 17.66 77.99 17.54 78.21 C 17.42 78.43 17.35 78.67 17.36 78.92 C 17.36 79.27 17.48 79.61 17.69 79.89 C 17.97 80.22 18.34 80.46 18.76 80.56 L 19.72 80.87 C 19.97 80.93 20.2 81.05 20.39 81.22 C 20.51 81.35 20.58 81.51 20.57 81.69 C 20.58 81.94 20.45 82.18 20.23 82.31 C 19.93 82.48 19.6 82.56 19.26 82.54 C 18.99 82.54 18.72 82.51 18.46 82.45 C 18.22 82.4 17.98 82.32 17.75 82.22 L 17.58 82.15 C 17.54 82.14 17.5 82.14 17.46 82.15 C 17.36 82.15 17.31 82.22 17.31 82.36 L 17.31 82.69 C 17.31 82.76 17.32 82.82 17.35 82.89 C 17.4 82.97 17.47 83.03 17.56 83.07 C 17.8 83.19 18.06 83.28 18.32 83.34 C 18.66 83.41 19 83.45 19.35 83.45 L 19.33 83.46 C 19.66 83.45 19.98 83.4 20.29 83.3 C 20.55 83.22 20.8 83.09 21.01 82.92 C 21.21 82.77 21.38 82.57 21.49 82.34 C 21.61 82.1 21.67 81.83 21.66 81.56 C 21.67 81.23 21.56 80.9 21.36 80.63 C 21.09 80.32 20.73 80.09 20.33 79.99 L 19.39 79.69 C 19.13 79.61 18.88 79.49 18.67 79.32 C 18.54 79.2 18.47 79.03 18.47 78.85 C 18.46 78.61 18.58 78.38 18.79 78.25 C 19.06 78.11 19.36 78.05 19.67 78.06 C 20.11 78.06 20.55 78.14 20.96 78.32 C 21.04 78.37 21.12 78.4 21.21 78.41 C 21.31 78.41 21.36 78.34 21.36 78.19 L 21.36 77.88 C 21.37 77.8 21.35 77.72 21.31 77.66 C 21.25 77.59 21.18 77.54 21.11 77.49 L 20.83 77.38 L 20.45 77.27 L 20.01 77.2 C 19.97 77.2 19.93 77.19 19.89 77.19 Z M 16.02 77.36 C 15.94 77.35 15.86 77.38 15.79 77.42 C 15.72 77.5 15.68 77.59 15.66 77.69 L 14.51 82.14 L 13.47 77.71 C 13.45 77.61 13.41 77.52 13.34 77.44 C 13.26 77.39 13.17 77.37 13.07 77.38 L 12.54 77.38 C 12.44 77.37 12.35 77.39 12.27 77.44 C 12.2 77.51 12.15 77.61 12.14 77.71 L 11.09 82.14 L 9.97 77.7 C 9.95 77.6 9.91 77.51 9.84 77.44 C 9.76 77.39 9.67 77.36 9.58 77.37 L 8.92 77.37 C 8.81 77.37 8.76 77.43 8.76 77.54 C 8.77 77.63 8.79 77.72 8.82 77.81 L 10.38 82.95 C 10.4 83.05 10.45 83.14 10.52 83.21 C 10.6 83.26 10.69 83.29 10.78 83.28 L 11.36 83.26 C 11.46 83.27 11.55 83.25 11.63 83.19 C 11.7 83.12 11.74 83.03 11.76 82.93 L 12.79 78.64 L 13.82 82.93 C 13.83 83.03 13.88 83.12 13.95 83.19 C 14.03 83.25 14.12 83.27 14.21 83.26 L 14.78 83.26 C 14.88 83.27 14.97 83.25 15.04 83.2 C 15.11 83.13 15.16 83.03 15.18 82.94 L 16.79 77.79 C 16.84 77.72 16.84 77.63 16.84 77.63 C 16.84 77.59 16.84 77.56 16.84 77.52 C 16.84 77.48 16.82 77.43 16.79 77.4 C 16.76 77.37 16.72 77.35 16.67 77.36 L 16.05 77.36 C 16.04 77.36 16.03 77.36 16.02 77.36 Z M 5.65 80.62 C 5.7 80.62 5.75 80.62 5.8 80.62 L 6.43 80.62 C 6.64 80.64 6.85 80.67 7.06 80.71 L 7.06 81.01 C 7.07 81.21 7.05 81.4 7 81.59 C 6.96 81.75 6.88 81.9 6.77 82.01 C 6.61 82.21 6.39 82.36 6.14 82.44 C 5.91 82.52 5.67 82.56 5.43 82.56 C 5.18 82.6 4.93 82.53 4.73 82.37 C 4.55 82.18 4.46 81.92 4.49 81.66 C 4.47 81.36 4.59 81.08 4.81 80.89 C 5.06 80.72 5.35 80.62 5.65 80.62 Z M 21.04 84.72 C 20.34 84.73 19.51 84.89 18.88 85.33 C 18.69 85.47 18.72 85.63 18.94 85.63 C 19.64 85.54 21.21 85.35 21.5 85.71 C 21.78 86.06 21.19 87.54 20.94 88.21 C 20.86 88.41 21.03 88.49 21.21 88.34 C 22.39 87.36 22.72 85.3 22.46 85 C 22.32 84.85 21.74 84.71 21.04 84.72 Z M 2.65 85.1 C 2.5 85.12 2.42 85.3 2.58 85.44 C 5.29 87.89 8.82 89.23 12.48 89.21 C 15.37 89.22 18.2 88.36 20.59 86.74 C 20.95 86.47 20.63 86.07 20.26 86.23 C 17.87 87.24 15.3 87.76 12.71 87.77 C 9.23 87.78 5.82 86.87 2.81 85.14 C 2.75 85.11 2.69 85.1 2.65 85.1 Z M 0 70 L 25 70 L 25 95 L 0 95 Z" fill="rgb(0, 0, 0)" stroke="none" pointer-events="all"/><g transform="translate(-0.5 -0.5)"><switch><foreignObject pointer-events="none" width="100%" height="100%" requiredFeatures="http://www.w3.org/TR/SVG11/feature#Extensibility" style="overflow: visible; text-align: left;"><div xmlns="http://www.w3.org/1999/xhtml" style="display: flex; align-items: unsafe flex-start; justify-content: unsafe flex-start; width: 868px; height: 1px; padding-top: 82px; margin-left: 32px;"><div data-drawio-colors="color: rgb(0, 0, 0); " style="box-sizing: border-box; font-size: 0px; text-align: left;"><div style="display: inline-block; font-size: 14px; font-family: Verdana; color: rgb(0, 0, 0); line-height: 1.2; pointer-events: all; font-weight: bold; white-space: normal; overflow-wrap: normal;">AWS Cloud</div></div></div></foreignObject><text x="32" y="96" fill="rgb(0, 0, 0)" font-family="Verdana" font-size="14px" font-weight="bold">AWS Cloud</text></switch></g><rect x="440" y="120" width="50" height="50" fill="none" stroke="none" pointer-events="all"/><path d="M 475.79 157.78 L 474.09 157.78 L 474.09 137.65 C 474.09 137.21 473.82 136.8 473.41 136.62 L 473.31 136.57 C 471.02 135.53 468.66 134.47 465.25 134.47 C 461.7 134.47 459.09 135.61 456.51 136.9 C 456.12 137.09 455.87 137.48 455.87 137.92 L 455.87 157.78 L 454.21 157.78 L 454.21 136.3 C 456.98 134.04 460.98 132.76 465.26 132.76 C 469.25 132.76 473.05 133.89 475.79 135.89 Z M 465.26 130.48 C 460.23 130.48 455.51 132.1 452.32 134.92 C 452.07 135.13 451.93 135.44 451.93 135.77 L 451.93 158.92 C 451.93 159.55 452.44 160.06 453.07 160.06 L 457.01 160.06 C 457.64 160.06 458.15 159.55 458.15 158.92 L 458.15 138.63 C 460.34 137.57 462.46 136.74 465.25 136.74 C 467.91 136.74 469.85 137.51 471.81 138.39 L 471.81 158.92 C 471.81 159.55 472.32 160.06 472.95 160.06 L 476.93 160.06 C 477.56 160.06 478.07 159.55 478.07 158.92 L 478.07 135.33 C 478.07 134.98 477.91 134.65 477.64 134.43 C 474.48 131.92 469.97 130.48 465.26 130.48 Z M 465 167.72 C 452.47 167.72 442.28 157.53 442.28 145 C 442.28 132.47 452.47 122.28 465 122.28 C 477.53 122.28 487.72 132.47 487.72 145 C 487.72 157.53 477.53 167.72 465 167.72 Z M 465 120 C 451.21 120 440 131.22 440 145 C 440 158.79 451.21 170 465 170 C 478.79 170 490 158.79 490 145 C 490 131.22 478.79 120 465 120 Z" fill="#8c4fff" stroke="none" pointer-events="all"/><g transform="translate(-0.5 -0.5)"><switch><foreignObject pointer-events="none" width="100%" height="100%" requiredFeatures="http://www.w3.org/TR/SVG11/feature#Extensibility" style="overflow: visible; text-align: left;"><div xmlns="http://www.w3.org/1999/xhtml" style="display: flex; align-items: unsafe flex-start; justify-content: unsafe center; width: 1px; height: 1px; padding-top: 182px; margin-left: 465px;"><div data-drawio-colors="color: #232F3E; " style="box-sizing: border-box; font-size: 0px; text-align: center;"><div style="display: inline-block; font-size: 10px; font-family: Verdana; color: rgb(35, 47, 62); line-height: 1.2; pointer-events: all; white-space: nowrap;">Internet Gateway</div></div></div></foreignObject><text x="465" y="192" fill="#232F3E" font-family="Verdana" font-size="10px" text-anchor="middle">Internet G...</text></switch></g><rect x="400" y="175" width="130" height="20" fill="none" stroke="none" pointer-events="all"/><g transform="translate(-0.5 -0.5)"><switch><foreignObject pointer-events="none" width="100%" height="100%" requiredFeatures="http://www.w3.org/TR/SVG11/feature#Extensibility" style="overflow: visible; text-align: left;"><div xmlns="http://www.w3.org/1999/xhtml" style="display: flex; align-items: unsafe center; justify-content: unsafe center; width: 1px; height: 1px; padding-top: 185px; margin-left: 465px;"><div data-drawio-colors="color: #232F3E; " style="box-sizing: border-box; font-size: 0px; text-align: center;"><div style="display: inline-block; font-size: 8px; font-family: Verdana; color: rgb(35, 47, 62); line-height: 1.2; pointer-events: all; white-space: nowrap;">CloudArchitect-Lab-IGW</div></div></div></foreignObject><text x="465" y="187" fill="#232F3E" font-family="Verdana" font-size="8px" text-anchor="middle">CloudArchitect-Lab-IGW</text></switch></g><rect x="50" y="220" width="800" height="500" fill="none" stroke="rgb(0, 0, 0)" pointer-events="none"/><g transform="translate(-0.5 -0.5)"><switch><foreignObject pointer-events="none" width="100%" height="100%" requiredFeatures="http://www.w3.org/TR/SVG11/feature#Extensibility" style="overflow: visible; text-align: left;"><div xmlns="http://www.w3.org/1999/xhtml" style="display: flex; align-items: unsafe flex-start; justify-content: unsafe flex-start; width: 768px; height: 1px; padding-top: 232px; margin-left: 82px;"><div data-drawio-colors="color: #8C4FFF; " style="box-sizing: border-box; font-size: 0px; text-align: left;"><div style="display: inline-block; font-size: 13px; font-family: Verdana; color: rgb(140, 79, 255); line-height: 1.2; pointer-events: none; white-space: normal; overflow-wrap: normal;">VPC<br />CloudArchitect-Lab-VPC (10.0.0.0/16)</div></div></div></foreignObject><text x="82" y="245" fill="#8C4FFF" font-family="Verdana" font-size="13px">VPC...</text></switch></g><rect x="70" y="270" width="760" height="430" fill="none" stroke="#147eba" stroke-dasharray="3 3" pointer-events="none"/><g transform="translate(-0.5 -0.5)"><switch><foreignObject pointer-events="none" width="100%" height="100%" requiredFeatures="http://www.w3.org/TR/SVG11/feature#Extensibility" style="overflow: visible; text-align: left;"><div xmlns="http://www.w3.org/1999/xhtml" style="display: flex; align-items: unsafe flex-start; justify-content: unsafe center; width: 758px; height: 1px; padding-top: 277px; margin-left: 71px;"><div data-drawio-colors="color: #147EBA; " style="box-sizing: border-box; font-size: 0px; text-align: center;"><div style="display: inline-block; font-size: 11px; font-family: Verdana; color: rgb(20, 126, 186); line-height: 1.2; pointer-events: none; white-space: normal; overflow-wrap: normal;">Availability Zone ap-northeast-2a</div></div></div></foreignObject><text x="450" y="288" fill="#147EBA" font-family="Verdana" font-size="11px" text-anchor="middle">Availability Zone ap-northeast-2a</text></switch></g><path d="M 90 310 L 810 310 L 810 680 L 90 680 Z" fill="#f2f6e8" stroke="none" pointer-events="none"/><path d="M 90 310 L 115 310 L 115 335 L 90 335 Z M 102.52 313.21 C 101.4 313.21 100.31 313.63 99.48 314.39 C 98.67 315.11 98.2 316.15 98.2 317.24 L 98.2 319.78 L 95.89 319.78 C 95.8 319.78 95.7 319.82 95.64 319.89 C 95.57 319.95 95.54 320.04 95.54 320.13 L 95.54 331.43 C 95.54 331.63 95.7 331.79 95.89 331.79 L 109.11 331.79 C 109.3 331.79 109.46 331.63 109.46 331.43 L 109.46 320.15 C 109.47 320.06 109.43 319.97 109.36 319.9 C 109.3 319.83 109.21 319.79 109.11 319.79 L 106.81 319.79 L 106.81 317.29 C 106.8 316.21 106.35 315.18 105.56 314.44 C 104.74 313.65 103.65 313.22 102.52 313.21 Z M 102.51 313.93 C 103.46 313.92 104.37 314.28 105.06 314.93 C 105.72 315.54 106.1 316.4 106.1 317.29 L 106.1 319.79 L 98.88 319.79 L 98.89 317.26 C 98.9 316.36 99.28 315.51 99.95 314.91 C 100.65 314.27 101.57 313.92 102.51 313.93 Z M 96.24 320.5 L 108.76 320.5 L 108.75 331.07 L 96.24 331.07 Z M 102.51 322.74 C 101.48 322.73 100.61 323.51 100.51 324.53 C 100.42 325.56 101.13 326.48 102.14 326.66 L 102.14 329.44 L 102.86 329.44 L 102.86 326.66 C 103.79 326.49 104.47 325.67 104.48 324.72 C 104.48 323.63 103.6 322.75 102.51 322.74 Z M 102.39 323.45 C 102.43 323.45 102.47 323.45 102.51 323.46 C 102.84 323.46 103.16 323.59 103.4 323.83 C 103.64 324.07 103.77 324.39 103.76 324.72 C 103.77 325.06 103.64 325.38 103.4 325.61 C 103.16 325.85 102.84 325.98 102.51 325.98 C 102.04 326.02 101.6 325.8 101.34 325.42 C 101.08 325.03 101.06 324.53 101.28 324.12 C 101.5 323.71 101.93 323.46 102.39 323.45 Z" fill="#7aa116" stroke="none" pointer-events="all"/><g transform="translate(-0.5 -0.5)"><switch><foreignObject pointer-events="none" width="100%" height="100%" requiredFeatures="http://www.w3.org/TR/SVG11/feature#Extensibility" style="overflow: visible; text-align: left;"><div xmlns="http://www.w3.org/1999/xhtml" style="display: flex; align-items: unsafe flex-start; justify-content: unsafe flex-start; width: 688px; height: 1px; padding-top: 322px; margin-left: 122px;"><div data-drawio-colors="color: #7AA116; " style="box-sizing: border-box; font-size: 0px; text-align: left;"><div style="display: inline-block; font-size: 10px; font-family: Verdana; color: rgb(122, 161, 22); line-height: 1.2; pointer-events: all; white-space: normal; overflow-wrap: normal;">Public Subnet<br />CloudArchitect-Lab-Public-Subnet<br />10.0.0.0/24</div></div></div></foreignObject><text x="122" y="332" fill="#7AA116" font-family="Verdana" font-size="10px">Public Subnet...</text></switch></g><rect x="130" y="360" width="300" height="280" fill="none" stroke="#dd3522" pointer-events="all"/><g transform="translate(-0.5 -0.5)"><switch><foreignObject pointer-events="none" width="100%" height="100%" requiredFeatures="http://www.w3.org/TR/SVG11/feature#Extensibility" style="overflow: visible; text-align: left;"><div xmlns="http://www.w3.org/1999/xhtml" style="display: flex; align-items: unsafe flex-start; justify-content: unsafe flex-start; width: 288px; height: 1px; padding-top: 367px; margin-left: 142px;"><div data-drawio-colors="color: #DD3522; " style="box-sizing: border-box; font-size: 0px; text-align: left;"><div style="display: inline-block; font-size: 10px; font-family: Verdana; color: rgb(221, 53, 34); line-height: 1.2; pointer-events: all; font-weight: bold; white-space: normal; overflow-wrap: normal;">Web-SG<br />CloudArchitect-Lab-Web-SG</div></div></div></foreignObject><text x="142" y="377" fill="#DD3522" font-family="Verdana" font-size="10px" font-weight="bold">Web-SG...</text></switch></g><rect x="250" y="460" width="60" height="60" fill="none" stroke="none" pointer-events="all"/><path d="M 310 475 L 310 472.27 L 303.18 472.27 L 303.18 468.18 C 303.18 467.43 302.57 466.82 301.82 466.82 L 297.73 466.82 L 297.73 460 L 295 460 L 295 466.82 L 289.55 466.82 L 289.55 460 L 286.82 460 L 286.82 466.82 L 281.36 466.82 L 281.36 460 L 278.64 460 L 278.64 466.82 L 273.18 466.82 L 273.18 460 L 270.45 460 L 270.45 466.82 L 265 466.82 L 265 460 L 262.27 460 L 262.27 466.82 L 258.18 466.82 C 257.43 466.82 256.82 467.43 256.82 468.18 L 256.82 472.27 L 250 472.27 L 250 475 L 256.82 475 L 256.82 480.45 L 250 480.45 L 250 483.18 L 256.82 483.18 L 256.82 488.64 L 250 488.64 L 250 491.36 L 256.82 491.36 L 256.82 496.82 L 250 496.82 L 250 499.55 L 256.82 499.55 L 256.82 505 L 250 505 L 250 507.73 L 256.82 507.73 L 256.82 511.82 C 256.82 512.57 257.43 513.18 258.18 513.18 L 262.27 513.18 L 262.27 520 L 265 520 L 265 513.18 L 270.45 513.18 L 270.45 520 L 273.18 520 L 273.18 513.18 L 278.64 513.18 L 278.64 520 L 281.36 520 L 281.36 513.18 L 286.82 513.18 L 286.82 520 L 289.55 520 L 289.55 513.18 L 295 513.18 L 295 520 L 297.73 520 L 297.73 513.18 L 301.82 513.18 C 302.57 513.18 303.18 512.57 303.18 511.82 L 303.18 507.73 L 310 507.73 L 310 505 L 303.18 505 L 303.18 499.55 L 310 499.55 L 310 496.82 L 303.18 496.82 L 303.18 491.36 L 310 491.36 L 310 488.64 L 303.18 488.64 L 303.18 483.18 L 310 483.18 L 310 480.45 L 303.18 480.45 L 303.18 475 Z M 259.55 510.45 L 259.55 469.55 L 300.45 469.55 L 300.45 510.45 Z" fill="#ed7100" stroke="none" pointer-events="all"/><g transform="translate(-0.5 -0.5)"><switch><foreignObject pointer-events="none" width="100%" height="100%" requiredFeatures="http://www.w3.org/TR/SVG11/feature#Extensibility" style="overflow: visible; text-align: left;"><div xmlns="http://www.w3.org/1999/xhtml" style="display: flex; align-items: unsafe flex-start; justify-content: unsafe center; width: 1px; height: 1px; padding-top: 532px; margin-left: 280px;"><div data-drawio-colors="color: #232F3E; " style="box-sizing: border-box; font-size: 0px; text-align: center;"><div style="display: inline-block; font-size: 9px; font-family: Verdana; color: rgb(35, 47, 62); line-height: 1.2; pointer-events: all; white-space: nowrap;">EC2 Instance<br />CloudArchitect-Lab-WebServer<br />t3.micro</div></div></div></foreignObject><text x="280" y="541" fill="#232F3E" font-family="Verdana" font-size="9px" text-anchor="middle">EC2 Instance...</text></switch></g><rect x="215" y="570" width="130" height="30" fill="none" stroke="none" pointer-events="all"/><g transform="translate(-0.5 -0.5)"><switch><foreignObject pointer-events="none" width="100%" height="100%" requiredFeatures="http://www.w3.org/TR/SVG11/feature#Extensibility" style="overflow: visible; text-align: left;"><div xmlns="http://www.w3.org/1999/xhtml" style="display: flex; align-items: unsafe center; justify-content: unsafe center; width: 1px; height: 1px; padding-top: 585px; margin-left: 280px;"><div data-drawio-colors="color: #666666; " style="box-sizing: border-box; font-size: 0px; text-align: center;"><div style="display: inline-block; font-size: 8px; font-family: Verdana; color: rgb(102, 102, 102); line-height: 1.2; pointer-events: all; white-space: nowrap;">Apache Web Server<br />User Data로 자동 설치</div></div></div></foreignObject><text x="280" y="587" fill="#666666" font-family="Verdana" font-size="8px" text-anchor="middle">Apache Web Server...</text></switch></g><rect x="750" y="320" width="35" height="35" fill="none" stroke="none" pointer-events="all"/><path d="M 751.59 353.06 L 783.41 353.06 L 783.41 345.6 L 751.59 345.6 Z M 785 344.81 L 785 353.86 C 785 354.3 784.64 354.65 784.2 354.65 L 750.8 354.65 C 750.36 354.65 750 354.3 750 353.86 L 750 344.81 C 750 344.37 750.36 344.01 750.8 344.01 L 784.2 344.01 C 784.64 344.01 785 344.37 785 344.81 Z M 751.59 341.23 L 783.41 341.23 L 783.41 333.77 L 751.59 333.77 Z M 785 332.98 L 785 342.02 C 785 342.46 784.64 342.82 784.2 342.82 L 750.8 342.82 C 750.36 342.82 750 342.46 750 342.02 L 750 332.98 C 750 332.54 750.36 332.18 750.8 332.18 L 784.2 332.18 C 784.64 332.18 785 332.54 785 332.98 Z M 751.59 329.4 L 783.41 329.4 L 783.41 321.94 L 751.59 321.94 Z M 785 321.14 L 785 330.19 C 785 330.63 784.64 330.99 784.2 330.99 L 750.8 330.99 C 750.36 330.99 750 330.63 750 330.19 L 750 321.14 C 750 320.7 750.36 320.35 750.8 320.35 L 784.2 320.35 C 784.64 320.35 785 320.7 785 321.14 Z M 779.79 349.35 C 779.79 350.03 779.85 350.53 779.98 350.84 C 780.11 351.14 780.31 351.29 780.59 351.29 C 780.87 351.29 781.08 351.14 781.21 350.84 C 781.33 350.53 781.4 350.03 781.4 349.35 C 781.4 348.68 781.33 348.18 781.21 347.88 C 781.08 347.57 780.87 347.42 780.59 347.42 C 780.31 347.42 780.11 347.57 779.98 347.88 C 779.85 348.18 779.79 348.68 779.79 349.35 Z M 779.46 351.22 C 779.2 350.79 779.07 350.17 779.07 349.35 C 779.07 348.54 779.2 347.92 779.46 347.49 C 779.72 347.07 780.1 346.85 780.59 346.85 C 781.09 346.85 781.47 347.07 781.73 347.49 C 781.99 347.92 782.12 348.54 782.12 349.35 C 782.12 350.17 781.99 350.8 781.73 351.22 C 781.47 351.65 781.09 351.86 780.59 351.86 C 780.1 351.86 779.72 351.65 779.46 351.22 Z M 777.96 351.84 C 778.09 351.84 778.2 351.8 778.28 351.72 C 778.36 351.63 778.41 351.53 778.41 351.39 C 778.41 351.26 778.36 351.15 778.28 351.07 C 778.2 350.99 778.09 350.95 777.96 350.95 C 777.83 350.95 777.72 350.99 777.64 351.07 C 777.56 351.15 777.52 351.26 777.52 351.39 C 777.52 351.53 777.56 351.63 777.64 351.72 C 777.72 351.8 777.83 351.84 777.96 351.84 Z M 776.75 351.19 L 774.74 351.19 C 775.31 350.49 775.71 349.98 775.95 349.64 C 776.19 349.31 776.35 349.02 776.44 348.8 C 776.53 348.57 776.57 348.35 776.57 348.13 C 776.57 347.73 776.47 347.42 776.25 347.19 C 776.04 346.97 775.75 346.85 775.37 346.85 C 775.15 346.85 774.94 346.89 774.73 346.96 C 774.52 347.03 774.31 347.15 774.09 347.31 L 774.09 347.9 C 774.56 347.6 774.94 347.45 775.25 347.45 C 775.65 347.45 775.85 347.69 775.85 348.18 C 775.85 348.39 775.79 348.62 775.68 348.87 C 775.56 349.11 775.38 349.41 775.12 349.77 C 774.85 350.14 774.47 350.63 773.98 351.25 L 773.98 351.77 L 776.75 351.77 Z M 772.7 351.84 C 772.83 351.84 772.94 351.8 773.02 351.72 C 773.1 351.63 773.14 351.53 773.14 351.39 C 773.14 351.26 773.1 351.15 773.02 351.07 C 772.94 350.99 772.83 350.95 772.7 350.95 C 772.56 350.95 772.46 350.99 772.38 351.07 C 772.29 351.15 772.25 351.26 772.25 351.39 C 772.25 351.53 772.29 351.63 772.38 351.72 C 772.46 351.8 772.56 351.84 772.7 351.84 Z M 769.32 349.65 C 769.32 350.22 769.38 350.64 769.52 350.91 C 769.65 351.18 769.85 351.31 770.13 351.31 C 770.6 351.31 770.83 350.98 770.83 350.33 C 770.83 350.03 770.77 349.79 770.65 349.63 C 770.53 349.47 770.34 349.39 770.1 349.39 C 769.85 349.39 769.59 349.46 769.32 349.59 Z M 768.99 351.28 C 768.75 350.9 768.62 350.31 768.62 349.51 C 768.62 348.65 768.77 348 769.06 347.54 C 769.36 347.08 769.77 346.85 770.32 346.85 C 770.48 346.85 770.65 346.87 770.82 346.92 C 770.99 346.96 771.14 347.01 771.27 347.08 L 771.27 347.59 C 771.15 347.54 771.01 347.49 770.85 347.46 C 770.69 347.42 770.54 347.4 770.41 347.4 C 770.06 347.4 769.79 347.54 769.62 347.82 C 769.45 348.09 769.35 348.53 769.33 349.14 C 769.64 348.95 769.97 348.86 770.3 348.86 C 770.68 348.86 770.98 348.99 771.2 349.25 C 771.42 349.51 771.54 349.85 771.54 350.29 C 771.54 350.77 771.41 351.15 771.15 351.43 C 770.9 351.72 770.55 351.86 770.11 351.86 C 769.61 351.86 769.23 351.67 768.99 351.28 Z M 766.44 351.77 L 767.14 351.77 L 767.14 346.94 L 766.49 346.94 L 765.33 347.61 L 765.33 348.18 L 766.44 347.65 Z M 763.84 351.84 C 763.97 351.84 764.08 351.8 764.16 351.72 C 764.24 351.63 764.28 351.53 764.28 351.39 C 764.28 351.26 764.24 351.15 764.16 351.07 C 764.08 350.99 763.97 350.95 763.84 350.95 C 763.71 350.95 763.6 350.99 763.52 351.07 C 763.44 351.15 763.4 351.26 763.4 351.39 C 763.4 351.53 763.44 351.63 763.52 351.72 C 763.6 351.8 763.71 351.84 763.84 351.84 Z M 762.63 351.19 L 760.62 351.19 C 761.19 350.49 761.59 349.98 761.83 349.64 C 762.07 349.31 762.23 349.02 762.32 348.8 C 762.41 348.57 762.45 348.35 762.45 348.13 C 762.45 347.73 762.35 347.42 762.13 347.19 C 761.92 346.97 761.63 346.85 761.25 346.85 C 761.03 346.85 760.82 346.89 760.61 346.96 C 760.4 347.03 760.19 347.15 759.97 347.31 L 759.97 347.9 C 760.43 347.6 760.82 347.45 761.13 347.45 C 761.53 347.45 761.73 347.69 761.73 348.18 C 761.73 348.39 761.67 348.62 761.56 348.87 C 761.44 349.11 761.26 349.41 760.99 349.77 C 760.73 350.14 760.35 350.63 759.86 351.25 L 759.86 351.77 L 762.63 351.77 Z M 756.71 351.77 L 757.44 351.77 L 758.98 347.46 L 758.98 346.94 L 756.16 346.94 L 756.16 347.52 L 758.28 347.52 Z M 753.99 351.77 L 754.69 351.77 L 754.69 346.94 L 754.05 346.94 L 752.88 347.61 L 752.88 348.18 L 753.99 347.65 Z M 779.79 337.26 C 779.79 337.94 779.85 338.44 779.98 338.75 C 780.11 339.05 780.31 339.2 780.59 339.2 C 780.87 339.2 781.08 339.05 781.21 338.75 C 781.33 338.44 781.4 337.94 781.4 337.26 C 781.4 336.59 781.33 336.09 781.21 335.79 C 781.08 335.48 780.87 335.33 780.59 335.33 C 780.31 335.33 780.11 335.48 779.98 335.79 C 779.85 336.09 779.79 336.59 779.79 337.26 Z M 779.46 339.13 C 779.2 338.7 779.07 338.08 779.07 337.26 C 779.07 336.45 779.2 335.83 779.46 335.4 C 779.72 334.98 780.1 334.76 780.59 334.76 C 781.09 334.76 781.47 334.98 781.73 335.4 C 781.99 335.83 782.12 336.45 782.12 337.26 C 782.12 338.08 781.99 338.71 781.73 339.13 C 781.47 339.56 781.09 339.77 780.59 339.77 C 780.1 339.77 779.72 339.56 779.46 339.13 Z M 777.96 339.75 C 778.09 339.75 778.2 339.71 778.28 339.63 C 778.36 339.54 778.41 339.44 778.41 339.3 C 778.41 339.17 778.36 339.06 778.28 338.98 C 778.2 338.9 778.09 338.86 777.96 338.86 C 777.83 338.86 777.72 338.9 777.64 338.98 C 777.56 339.06 777.52 339.17 777.52 339.3 C 777.52 339.44 777.56 339.54 777.64 339.63 C 777.72 339.71 777.83 339.75 777.96 339.75 Z M 775.29 339.68 L 775.99 339.68 L 775.99 334.85 L 775.35 334.85 L 774.19 335.52 L 774.19 336.09 L 775.29 335.56 Z M 772.7 339.75 C 772.83 339.75 772.94 339.71 773.02 339.63 C 773.1 339.54 773.14 339.44 773.14 339.3 C 773.14 339.17 773.1 339.06 773.02 338.98 C 772.94 338.9 772.83 338.86 772.7 338.86 C 772.56 338.86 772.46 338.9 772.38 338.98 C 772.29 339.06 772.25 339.17 772.25 339.3 C 772.25 339.44 772.29 339.54 772.38 339.63 C 772.46 339.71 772.56 339.75 772.7 339.75 Z M 769.32 337.56 C 769.32 338.13 769.38 338.55 769.52 338.82 C 769.65 339.09 769.85 339.22 770.13 339.22 C 770.6 339.22 770.83 338.89 770.83 338.24 C 770.83 337.94 770.77 337.71 770.65 337.54 C 770.53 337.38 770.34 337.3 770.1 337.3 C 769.85 337.3 769.59 337.37 769.32 337.5 Z M 768.99 339.19 C 768.75 338.81 768.62 338.22 768.62 337.42 C 768.62 336.56 768.77 335.91 769.06 335.45 C 769.36 334.99 769.77 334.76 770.32 334.76 C 770.48 334.76 770.65 334.79 770.82 334.83 C 770.99 334.87 771.14 334.92 771.27 334.99 L 771.27 335.5 C 771.15 335.45 771.01 335.4 770.85 335.37 C 770.69 335.33 770.54 335.31 770.41 335.31 C 770.06 335.31 769.79 335.45 769.62 335.73 C 769.45 336 769.35 336.44 769.33 337.05 C 769.64 336.86 769.97 336.77 770.3 336.77 C 770.68 336.77 770.98 336.9 771.2 337.16 C 771.42 337.42 771.54 337.76 771.54 338.2 C 771.54 338.68 771.41 339.06 771.15 339.34 C 770.9 339.63 770.55 339.77 770.11 339.77 C 769.61 339.77 769.23 339.58 768.99 339.19 Z M 766.44 339.68 L 767.14 339.68 L 767.14 334.85 L 766.49 334.85 L 765.33 335.52 L 765.33 336.09 L 766.44 335.56 Z M 763.84 339.75 C 763.97 339.75 764.08 339.71 764.16 339.63 C 764.24 339.54 764.28 339.44 764.28 339.3 C 764.28 339.17 764.24 339.06 764.16 338.98 C 764.08 338.9 763.97 338.86 763.84 338.86 C 763.71 338.86 763.6 338.9 763.52 338.98 C 763.44 339.06 763.4 339.17 763.4 339.3 C 763.4 339.44 763.44 339.54 763.52 339.63 C 763.6 339.71 763.71 339.75 763.84 339.75 Z M 762.63 339.1 L 760.62 339.1 C 761.19 338.4 761.59 337.89 761.83 337.55 C 762.07 337.22 762.23 336.93 762.32 336.71 C 762.41 336.48 762.45 336.26 762.45 336.04 C 762.45 335.64 762.35 335.33 762.13 335.1 C 761.92 334.88 761.63 334.76 761.25 334.76 C 761.03 334.76 760.82 334.8 760.61 334.87 C 760.4 334.94 760.19 335.06 759.97 335.22 L 759.97 335.81 C 760.43 335.51 760.82 335.36 761.13 335.36 C 761.53 335.36 761.73 335.6 761.73 336.09 C 761.73 336.31 761.67 336.53 761.56 336.78 C 761.44 337.02 761.26 337.32 760.99 337.68 C 760.73 338.05 760.35 338.54 759.86 339.16 L 759.86 339.68 L 762.63 339.68 Z M 756.71 339.68 L 757.44 339.68 L 758.98 335.37 L 758.98 334.85 L 756.16 334.85 L 756.16 335.43 L 758.28 335.43 Z M 753.99 339.68 L 754.69 339.68 L 754.69 334.85 L 754.05 334.85 L 752.88 335.52 L 752.88 336.09 L 753.99 335.56 Z M 779.79 325.86 C 779.79 326.54 779.85 327.03 779.98 327.34 C 780.11 327.65 780.31 327.8 780.59 327.8 C 780.87 327.8 781.08 327.65 781.21 327.34 C 781.33 327.03 781.4 326.54 781.4 325.86 C 781.4 325.18 781.33 324.69 781.21 324.38 C 781.08 324.08 780.87 323.92 780.59 323.92 C 780.31 323.92 780.11 324.08 779.98 324.38 C 779.85 324.69 779.79 325.18 779.79 325.86 Z M 779.46 327.72 C 779.2 327.3 779.07 326.67 779.07 325.86 C 779.07 325.04 779.2 324.42 779.46 324 C 779.72 323.57 780.1 323.36 780.59 323.36 C 781.09 323.36 781.47 323.57 781.73 324 C 781.99 324.42 782.12 325.04 782.12 325.86 C 782.12 326.68 781.99 327.3 781.73 327.73 C 781.47 328.15 781.09 328.36 780.59 328.36 C 780.1 328.36 779.72 328.15 779.46 327.72 Z M 777.96 328.34 C 778.09 328.34 778.2 328.3 778.28 328.22 C 778.36 328.14 778.41 328.03 778.41 327.9 C 778.41 327.76 778.36 327.65 778.28 327.57 C 778.2 327.49 778.09 327.45 777.96 327.45 C 777.83 327.45 777.72 327.49 777.64 327.57 C 777.56 327.65 777.52 327.76 777.52 327.9 C 777.52 328.03 777.56 328.14 777.64 328.22 C 777.72 328.3 777.83 328.34 777.96 328.34 Z M 774.52 325.86 C 774.52 326.54 774.59 327.03 774.72 327.34 C 774.84 327.65 775.05 327.8 775.33 327.8 C 775.61 327.8 775.82 327.65 775.94 327.34 C 776.07 327.03 776.13 326.54 776.13 325.86 C 776.13 325.18 776.07 324.69 775.94 324.38 C 775.82 324.08 775.61 323.92 775.33 323.92 C 775.05 323.92 774.84 324.08 774.72 324.38 C 774.59 324.69 774.52 325.18 774.52 325.86 Z M 774.19 327.72 C 773.94 327.3 773.81 326.67 773.81 325.86 C 773.81 325.04 773.94 324.42 774.19 324 C 774.45 323.57 774.83 323.36 775.33 323.36 C 775.83 323.36 776.21 323.57 776.46 324 C 776.72 324.42 776.85 325.04 776.85 325.86 C 776.85 326.68 776.72 327.3 776.46 327.73 C 776.21 328.15 775.83 328.36 775.33 328.36 C 774.83 328.36 774.45 328.15 774.19 327.72 Z M 772.7 328.34 C 772.83 328.34 772.94 328.3 773.02 328.22 C 773.1 328.14 773.14 328.03 773.14 327.9 C 773.14 327.76 773.1 327.65 773.02 327.57 C 772.94 327.49 772.83 327.45 772.7 327.45 C 772.56 327.45 772.46 327.49 772.38 327.57 C 772.29 327.65 772.25 327.76 772.25 327.9 C 772.25 328.03 772.29 328.14 772.38 328.22 C 772.46 328.3 772.56 328.34 772.7 328.34 Z M 769.32 326.15 C 769.32 326.73 769.38 327.15 769.52 327.41 C 769.65 327.68 769.85 327.81 770.13 327.81 C 770.6 327.81 770.83 327.49 770.83 326.83 C 770.83 326.53 770.77 326.3 770.65 326.14 C 770.53 325.98 770.34 325.9 770.1 325.9 C 769.85 325.9 769.59 325.96 769.32 326.09 Z M 768.99 327.79 C 768.75 327.41 768.62 326.82 768.62 326.02 C 768.62 325.16 768.77 324.5 769.06 324.04 C 769.36 323.59 769.77 323.36 770.32 323.36 C 770.48 323.36 770.65 323.38 770.82 323.42 C 770.99 323.46 771.14 323.52 771.27 323.59 L 771.27 324.1 C 771.15 324.04 771.01 324 770.85 323.96 C 770.69 323.93 770.54 323.91 770.41 323.91 C 770.06 323.91 769.79 324.05 769.62 324.32 C 769.45 324.6 769.35 325.04 769.33 325.64 C 769.64 325.46 769.97 325.36 770.3 325.36 C 770.68 325.36 770.98 325.49 771.2 325.75 C 771.42 326.01 771.54 326.36 771.54 326.79 C 771.54 327.27 771.41 327.65 771.15 327.94 C 770.9 328.22 770.55 328.36 770.11 328.36 C 769.61 328.36 769.23 328.17 768.99 327.79 Z M 766.44 328.27 L 767.14 328.27 L 767.14 323.45 L 766.49 323.45 L 765.33 324.11 L 765.33 324.68 L 766.44 324.16 Z M 763.84 328.34 C 763.97 328.34 764.08 328.3 764.16 328.22 C 764.24 328.14 764.28 328.03 764.28 327.9 C 764.28 327.76 764.24 327.65 764.16 327.57 C 764.08 327.49 763.97 327.45 763.84 327.45 C 763.71 327.45 763.6 327.49 763.52 327.57 C 763.44 327.65 763.4 327.76 763.4 327.9 C 763.4 328.03 763.44 328.14 763.52 328.22 C 763.6 328.3 763.71 328.34 763.84 328.34 Z M 762.63 327.69 L 760.62 327.69 C 761.19 327 761.59 326.48 761.83 326.15 C 762.07 325.81 762.23 325.53 762.32 325.3 C 762.41 325.07 762.45 324.85 762.45 324.64 C 762.45 324.24 762.35 323.92 762.13 323.7 C 761.92 323.47 761.63 323.36 761.25 323.36 C 761.03 323.36 760.82 323.39 760.61 323.47 C 760.4 323.54 760.19 323.65 759.97 323.81 L 759.97 324.4 C 760.43 324.11 760.82 323.96 761.13 323.96 C 761.53 323.96 761.73 324.2 761.73 324.68 C 761.73 324.9 761.67 325.13 761.56 325.37 C 761.44 325.61 761.26 325.91 760.99 326.28 C 760.73 326.64 760.35 327.13 759.86 327.75 L 759.86 328.27 L 762.63 328.27 Z M 756.71 328.27 L 757.44 328.27 L 758.98 323.96 L 758.98 323.45 L 756.16 323.45 L 756.16 324.03 L 758.28 324.03 Z M 753.99 324.16 L 752.88 324.68 L 752.88 324.11 L 754.05 323.45 L 754.69 323.45 L 754.69 328.27 L 753.99 328.27 Z" fill="#8c4fff" stroke="none" pointer-events="all"/><g transform="translate(-0.5 -0.5)"><switch><foreignObject pointer-events="none" width="100%" height="100%" requiredFeatures="http://www.w3.org/TR/SVG11/feature#Extensibility" style="overflow: visible; text-align: left;"><div xmlns="http://www.w3.org/1999/xhtml" style="display: flex; align-items: unsafe flex-start; justify-content: unsafe center; width: 1px; height: 1px; padding-top: 367px; margin-left: 768px;"><div data-drawio-colors="color: #232F3E; " style="box-sizing: border-box; font-size: 0px; text-align: center;"><div style="display: inline-block; font-size: 8px; font-family: Verdana; color: rgb(35, 47, 62); line-height: 1.2; pointer-events: all; white-space: nowrap;">Public RT</div></div></div></foreignObject><text x="768" y="375" fill="#232F3E" font-family="Verdana" font-size="8px" text-anchor="middle">Public RT</text></switch></g><rect x="610" y="360" width="150" height="30" fill="none" stroke="none" pointer-events="all"/><g transform="translate(-0.5 -0.5)"><switch><foreignObject pointer-events="none" width="100%" height="100%" requiredFeatures="http://www.w3.org/TR/SVG11/feature#Extensibility" style="overflow: visible; text-align: left;"><div xmlns="http://www.w3.org/1999/xhtml" style="display: flex; align-items: unsafe flex-start; justify-content: unsafe flex-end; width: 1px; height: 1px; padding-top: 367px; margin-left: 758px;"><div data-drawio-colors="color: #232F3E; " style="box-sizing: border-box; font-size: 0px; text-align: right;"><div style="display: inline-block; font-size: 8px; font-family: Verdana; color: rgb(35, 47, 62); line-height: 1.2; pointer-events: all; white-space: nowrap;">CloudArchitect-Lab-Public-RT<br />0.0.0.0/0 → IGW</div></div></div></foreignObject><text x="758" y="375" fill="#232F3E" font-family="Verdana" font-size="8px" text-anchor="end">CloudArchitect-Lab-Public-RT...</text></switch></g><rect x="440" y="590" width="150" height="40" fill="none" stroke="none" pointer-events="all"/><g transform="translate(-0.5 -0.5)"><switch><foreignObject pointer-events="none" width="100%" height="100%" requiredFeatures="http://www.w3.org/TR/SVG11/feature#Extensibility" style="overflow: visible; text-align: left;"><div xmlns="http://www.w3.org/1999/xhtml" style="display: flex; align-items: unsafe flex-start; justify-content: unsafe flex-start; width: 1px; height: 1px; padding-top: 597px; margin-left: 442px;"><div data-drawio-colors="color: #DD3522; " style="box-sizing: border-box; font-size: 0px; text-align: left;"><div style="display: inline-block; font-size: 8px; font-family: Verdana; color: rgb(221, 53, 34); line-height: 1.2; pointer-events: all; white-space: nowrap;">Inbound Rules:<br />• SSH (22) from 0.0.0.0/0<br />• HTTP (80) from 0.0.0.0/0</div></div></div></foreignObject><text x="442" y="605" fill="#DD3522" font-family="Verdana" font-size="8px">Inbound Rules:...</text></switch></g><rect x="950" y="220" width="180" height="30" fill="#ffffff" stroke="#666666" pointer-events="all"/><g transform="translate(-0.5 -0.5)"><switch><foreignObject pointer-events="none" width="100%" height="100%" requiredFeatures="http://www.w3.org/TR/SVG11/feature#Extensibility" style="overflow: visible; text-align: left;"><div xmlns="http://www.w3.org/1999/xhtml" style="display: flex; align-items: unsafe flex-start; justify-content: unsafe center; width: 178px; height: 1px; padding-top: 227px; margin-left: 951px;"><div data-drawio-colors="color: #333333; " style="box-sizing: border-box; font-size: 0px; text-align: center;"><div style="display: inline-block; font-size: 10px; font-family: Verdana; color: rgb(51, 51, 51); line-height: 1.2; pointer-events: all; font-weight: bold; white-space: normal; overflow-wrap: normal;">보안 그룹 (VPC 레벨)</div></div></div></foreignObject><text x="1040" y="237" fill="#333333" font-family="Verdana" font-size="10px" text-anchor="middle" font-weight="bold">보안 그룹 (VPC 레벨)</text></switch></g><rect x="950" y="260" width="180" height="120" fill="none" stroke="#dd3522" pointer-events="all"/><g transform="translate(-0.5 -0.5)"><switch><foreignObject pointer-events="none" width="100%" height="100%" requiredFeatures="http://www.w3.org/TR/SVG11/feature#Extensibility" style="overflow: visible; text-align: left;"><div xmlns="http://www.w3.org/1999/xhtml" style="display: flex; align-items: unsafe flex-start; justify-content: unsafe flex-start; width: 168px; height: 1px; padding-top: 267px; margin-left: 962px;"><div data-drawio-colors="color: #DD3522; " style="box-sizing: border-box; font-size: 0px; text-align: left;"><div style="display: inline-block; font-size: 9px; font-family: Verdana; color: rgb(221, 53, 34); line-height: 1.2; pointer-events: all; font-weight: bold; white-space: normal; overflow-wrap: normal;">Web-SG<br />CloudArchitect-Lab-Web-SG<br /><br />Inbound:<br />• SSH (22) from 0.0.0.0/0<br />• HTTP (80) from 0.0.0.0/0</div></div></div></foreignObject><text x="962" y="276" fill="#DD3522" font-family="Verdana" font-size="9px" font-weight="bold">Web-SG...</text></switch></g><path d="M 465 50 L 465 115.53" fill="none" stroke="#666666" stroke-width="2" stroke-miterlimit="10" pointer-events="stroke"/><path d="M 459 105.76 L 465 117.76 L 471 105.76" fill="none" stroke="#666666" stroke-width="2" stroke-miterlimit="10" pointer-events="all"/><path d="M 465 170 L 465 240 L 450 240 L 450 305.53" fill="none" stroke="#7aa116" stroke-width="2" stroke-miterlimit="10" pointer-events="stroke"/><path d="M 444 295.76 L 450 307.76 L 456 295.76" fill="none" stroke="#7aa116" stroke-width="2" stroke-miterlimit="10" pointer-events="all"/><g transform="translate(-0.5 -0.5)"><switch><foreignObject pointer-events="none" width="100%" height="100%" requiredFeatures="http://www.w3.org/TR/SVG11/feature#Extensibility" style="overflow: visible; text-align: left;"><div xmlns="http://www.w3.org/1999/xhtml" style="display: flex; align-items: unsafe center; justify-content: unsafe center; width: 1px; height: 1px; padding-top: 240px; margin-left: 458px;"><div data-drawio-colors="color: #7AA116; background-color: #FFFFFF; " style="box-sizing: border-box; font-size: 0px; text-align: center;"><div style="display: inline-block; font-size: 9px; font-family: Verdana; color: rgb(122, 161, 22); line-height: 1.2; pointer-events: all; background-color: rgb(255, 255, 255); white-space: nowrap;">HTTP/SSH</div></div></div></foreignObject><text x="458" y="243" fill="#7AA116" font-family="Verdana" font-size="9px" text-anchor="middle">HTTP/SSH</text></switch></g><path d="M 450 310 L 450 300 L 280 300 L 280 455.53" fill="none" stroke="#ed7100" stroke-width="2" stroke-miterlimit="10" stroke-dasharray="6 6" pointer-events="stroke"/><path d="M 275 447.76 L 280 457.76 L 285 447.76" fill="none" stroke="#ed7100" stroke-width="2" stroke-miterlimit="10" pointer-events="all"/></g><switch><g requiredFeatures="http://www.w3.org/TR/SVG11/feature#Extensibility"/><a transform="translate(0,-5)" xlink:href="https://www.diagrams.net/doc/faq/svg-export-text-problems" target="_blank"><text text-anchor="middle" font-size="10px" x="50%" y="100%">Text is not SVG - cannot display</text></a></switch></svg>